<svg width="24" height="24" viewBox="0 0 24 24" fill="none" xmlns="http://www.w3.org/2000/svg">
<path fill-rule="evenodd" clip-rule="evenodd" d="M24 12C24 5.3731 18.6268 0 12 0C5.3731 0 0 5.3731 0 12C0 17.989 4.38762 22.9537 10.1252 23.855V15.4696H7.07748V12H10.1252V9.35562C10.1252 6.34842 11.9173 4.68622 14.6579 4.68622C15.9707 4.68622 17.3443 4.92077 17.3443 4.92077V7.87398H15.8307C14.3406 7.87398 13.8748 8.79875 13.8748 9.7488V11.9999H17.2025L16.671 15.4695H13.8747V23.8548C19.6123 22.9553 23.9998 17.9907 23.9998 11.9999L24 12Z" fill="#1977F3"/>
<path fill-rule="evenodd" clip-rule="evenodd" d="M16.671 15.4695L17.2027 11.9999H13.8749V9.74882C13.8749 8.80044 14.339 7.874 15.8307 7.874H17.3445V4.92078C17.3445 4.92078 15.9709 4.68622 14.6579 4.68622C11.9174 4.68622 10.1253 6.34678 10.1253 9.35564V12H7.07758V15.4696H10.1253V23.855C10.7361 23.951 11.3622 24 12.0001 24C12.638 24 13.2641 23.9494 13.8749 23.855V15.4696H16.6712L16.671 15.4695Z" fill="#FEFEFE"/>
</svg>
