<svg width="633" height="571" viewBox="0 0 633 571" fill="none" xmlns="http://www.w3.org/2000/svg">
<g clip-path="url(#clip0_804_280)">
<path d="M628.903 569.525H276.438C275.352 569.522 274.311 568.789 273.543 567.485C272.775 566.182 272.343 564.414 272.341 562.571V6.95387C272.343 5.11033 272.775 3.34299 273.543 2.0394C274.311 0.735823 275.352 0.0024147 276.438 1.90735e-06H628.903C629.989 0.0024147 631.031 0.735823 631.799 2.0394C632.566 3.34299 632.999 5.11033 633 6.95387V562.57C632.999 564.413 632.567 566.181 631.799 567.484C631.031 568.788 629.989 569.521 628.903 569.523V569.525ZM276.438 2.77608C275.787 2.77849 275.163 3.21846 274.703 3.99971C274.243 4.78097 273.984 5.83989 273.982 6.94475V562.57C273.984 563.674 274.243 564.733 274.703 565.515C275.163 566.296 275.787 566.736 276.438 566.738H628.903C629.554 566.736 630.178 566.296 630.638 565.515C631.099 564.734 631.358 563.675 631.359 562.57V6.95387C631.358 5.84901 631.099 4.79009 630.638 4.00884C630.178 3.22758 629.554 2.78761 628.903 2.7852L276.438 2.77608Z" fill="#E6E6E6"/>
<path d="M442.984 144.379C442.247 144.379 441.539 144.876 441.018 145.762C440.496 146.647 440.203 147.848 440.203 149.1C440.203 150.352 440.496 151.553 441.018 152.438C441.539 153.324 442.247 153.821 442.984 153.821H595.597C596.334 153.821 597.042 153.324 597.563 152.438C598.085 151.553 598.378 150.352 598.378 149.1C598.378 147.848 598.085 146.647 597.563 145.762C597.042 144.876 596.334 144.379 595.597 144.379H442.984Z" fill="#E6E6E6"/>
<path d="M442.984 172.708C442.247 172.708 441.539 173.205 441.018 174.09C440.496 174.976 440.203 176.177 440.203 177.429C440.203 178.681 440.496 179.882 441.018 180.767C441.539 181.652 442.247 182.15 442.984 182.15H520.896C521.634 182.15 522.341 181.652 522.863 180.767C523.384 179.882 523.677 178.681 523.677 177.429C523.677 176.177 523.384 174.976 522.863 174.09C522.341 173.205 521.634 172.708 520.896 172.708H442.984Z" fill="#E6E6E6"/>
<path d="M309.596 309.823C308.859 309.823 308.151 310.321 307.63 311.206C307.108 312.091 306.815 313.292 306.815 314.544C306.815 315.796 307.108 316.997 307.63 317.883C308.151 318.768 308.859 319.265 309.596 319.265H595.745C596.483 319.265 597.19 318.768 597.712 317.883C598.233 316.997 598.526 315.796 598.526 314.544C598.526 313.292 598.233 312.091 597.712 311.206C597.19 310.321 596.483 309.823 595.745 309.823H309.596Z" fill="#E6E6E6"/>
<path d="M309.596 338.152C308.859 338.152 308.151 338.649 307.63 339.535C307.108 340.42 306.815 341.621 306.815 342.873C306.815 344.125 307.108 345.326 307.63 346.211C308.151 347.097 308.859 347.594 309.596 347.594H521.045C521.782 347.594 522.49 347.097 523.011 346.211C523.533 345.326 523.826 344.125 523.826 342.873C523.826 341.621 523.533 340.42 523.011 339.535C522.49 338.649 521.782 338.152 521.045 338.152H309.596Z" fill="#E6E6E6"/>
<path d="M309.596 365.84C308.859 365.84 308.151 366.337 307.63 367.223C307.108 368.108 306.815 369.309 306.815 370.561C306.815 371.813 307.108 373.014 307.63 373.899C308.151 374.784 308.859 375.282 309.596 375.282H595.745C596.483 375.282 597.19 374.784 597.712 373.899C598.233 373.014 598.526 371.813 598.526 370.561C598.526 369.309 598.233 368.108 597.712 367.223C597.19 366.337 596.483 365.84 595.745 365.84H309.596Z" fill="#E6E6E6"/>
<path d="M309.596 394.169C308.859 394.169 308.151 394.666 307.63 395.551C307.108 396.437 306.815 397.638 306.815 398.89C306.815 400.142 307.108 401.343 307.63 402.228C308.151 403.113 308.859 403.611 309.596 403.611H521.045C521.782 403.611 522.49 403.113 523.011 402.228C523.533 401.343 523.826 400.142 523.826 398.89C523.826 397.638 523.533 396.437 523.011 395.551C522.49 394.666 521.782 394.169 521.045 394.169H309.596Z" fill="#E6E6E6"/>
<path d="M404.415 243.846H183.184C182.097 243.844 181.056 243.111 180.288 241.807C179.52 240.503 179.088 238.736 179.087 236.892V72.0901C179.088 70.2464 179.52 68.4789 180.288 67.1753C181.056 65.8716 182.097 65.1383 183.184 65.1362H404.415C405.501 65.1383 406.543 65.8716 407.311 67.1753C408.079 68.4789 408.511 70.2464 408.512 72.0901V236.892C408.511 238.736 408.079 240.503 407.311 241.807C406.543 243.111 405.501 243.844 404.415 243.846Z" fill="#4B91CB"/>
<path d="M593.976 504.388H510.118C509.032 504.386 507.99 503.653 507.222 502.349C506.454 501.046 506.022 499.278 506.021 497.435V474.628C506.022 472.784 506.454 471.017 507.222 469.713C507.99 468.41 509.032 467.676 510.118 467.674H593.976C595.062 467.676 596.103 468.41 596.871 469.713C597.639 471.017 598.071 472.784 598.072 474.628V497.435C598.071 499.278 597.639 501.046 596.871 502.349C596.103 503.653 595.062 504.386 593.976 504.388Z" fill="#4B91CB"/>
<path d="M97.0332 278.923C93.4194 274.344 92.3587 265.786 94.6643 259.809C94.8933 259.224 95.1524 258.674 95.4384 258.166L95.6694 136.415L106.331 139.794L106.8 259.539C109.228 264.322 109.719 271.292 107.752 276.392C105.446 282.369 100.647 283.502 97.0332 278.923Z" fill="#FFB8B8"/>
<path d="M152.48 551.439L163.471 551.438L168.7 479.473L152.478 479.475L152.48 551.439Z" fill="#FFB8B8"/>
<path d="M149.676 545.348L171.322 545.346H171.323C174.982 545.346 178.49 547.813 181.077 552.205C183.664 556.596 185.118 562.551 185.118 568.762V569.522L149.677 569.525L149.676 545.348Z" fill="#2F2E41"/>
<path d="M50.2727 551.439L61.2649 551.438L66.4935 479.473L50.2711 479.475L50.2727 551.439Z" fill="#FFB8B8"/>
<path d="M47.4692 545.348L69.1156 545.346H69.1165C72.7749 545.346 76.2835 547.813 78.8705 552.205C81.4575 556.596 82.9109 562.551 82.9112 568.762V569.522L47.4699 569.525L47.4692 545.348Z" fill="#2F2E41"/>
<path d="M151.838 531.339L150.917 521.956C149.971 521.394 149.166 520.299 148.639 518.852C147.649 516.199 147.492 512.465 148.17 507.752L140.754 401.441L102.035 333.252L77.1963 434.947L67.3635 515.422V527.049L47.7317 531.328L48.625 520.369C47.874 519.823 47.2483 518.876 46.8424 517.673C45.7145 514.486 45.7299 509.547 46.8881 502.994L46.9384 502.709L46.8743 501.731C46.8293 501.045 47.1245 435.312 58.6362 402.744L70.1655 303.865C69.8661 302.473 68.3879 294.365 71.0987 280.665C73.7741 267.145 81.2565 245.364 101.71 218.381L101.78 218.288L101.867 218.257C102.094 218.178 124.652 210.565 136.319 236.462L136.398 236.637V236.858C136.398 238.459 136.377 275.718 134.642 283.985L162.326 370.391C162.865 371.361 167.705 380.848 165.986 405.792L170.458 490.817C170.97 492.475 175.599 508.092 170.497 514.274L171.412 525.01L151.838 531.339Z" fill="#2F2E41"/>
<path d="M105.525 174.042C100.327 174.042 93.4194 170.923 89.1909 156.548L89.1077 156.266L99.5251 118.782C100.875 113.925 103.29 110.158 106.255 108.287C109.22 106.416 112.499 106.588 115.39 108.768C118.281 110.947 120.555 114.961 121.724 119.95C122.894 124.939 122.867 130.507 121.649 135.462L112.643 172.112L112.486 172.211C110.237 173.437 107.888 174.055 105.525 174.042Z" fill="#4B91CB"/>
<path d="M134.382 248.359L101.541 222.036L106.055 128.551L114.285 111.477L115.879 110.897C123.206 108.235 130.82 108.95 137.928 112.97L138.085 113.059L151.603 162.01C151.688 162.255 161.437 191.471 147.96 206.874L134.382 248.359Z" fill="#4B91CB"/>
<path d="M179.53 218.567C179.138 218.844 178.76 219.173 178.398 219.552L143.792 192.681L142.905 177.061L128.842 176.254L128.83 204.166C128.829 206.421 129.259 208.615 130.056 210.42C130.852 212.225 131.972 213.542 133.247 214.175L174.803 234.79C175.23 237.471 176.127 239.867 177.376 241.66C178.625 243.454 180.166 244.559 181.793 244.83C183.421 245.101 185.059 244.524 186.489 243.176C187.919 241.828 189.074 239.773 189.799 237.284C190.524 234.796 190.786 231.991 190.549 229.244C190.312 226.497 189.588 223.937 188.474 221.905C187.359 219.873 185.906 218.465 184.309 217.869C182.711 217.273 181.044 217.516 179.53 218.567L179.53 218.567Z" fill="#FFB8B8"/>
<path d="M137.201 183.727C133.258 183.727 128.808 181.412 124.536 174.161L124.404 173.938L127.291 132.783C127.664 127.451 129.253 122.579 131.716 119.21C134.179 115.841 137.321 114.241 140.47 114.755C143.619 115.268 146.524 117.852 148.565 121.955C150.605 126.059 151.619 131.354 151.388 136.71L149.685 176.314L149.554 176.491C149.471 176.605 144.116 183.727 137.201 183.727Z" fill="#4B91CB"/>
<path d="M147.754 78.9109C153.587 60.7972 149.666 38.0862 138.994 28.1844C128.323 18.2826 114.944 24.9396 109.111 43.0532C103.277 61.1669 107.199 83.8779 117.87 93.7797C128.541 103.682 141.921 97.0245 147.754 78.9109Z" fill="#FFB8B8"/>
<path d="M150.843 41.1774C149.75 30.3897 144.649 21.447 138.571 17.788C132.494 14.1289 125.64 15.3189 119.689 19.5325C118.697 20.2374 117.728 21.0283 116.785 21.9022C114.61 14.8638 109.277 10.7817 104.399 11.2223C98.5057 11.7546 93.1838 17.0474 88.0657 22.0357C82.9476 27.024 77.4555 31.9871 71.5553 31.7548C60.8931 31.3352 52.9608 14.5557 42.7081 9.56913C38.144 7.34935 33.2875 7.57389 28.8014 10.2121C24.3152 12.8504 20.4179 17.7738 17.641 24.3107C14.8642 30.8476 13.3431 38.6796 13.2853 46.7381C13.2275 54.7966 14.6358 62.6891 17.3181 69.3388C21.6927 56.0314 31.966 51.5368 40.8801 53.3484C49.7939 55.16 58.1017 61.7925 66.8345 65.3253C75.5676 68.8583 85.6816 68.7066 92.4459 58.6877C96.2832 53.0048 98.5361 44.8822 101.876 38.3581C104.136 33.9451 107.353 30.2189 110.64 29.3418C107.402 34.2907 104.931 40.5137 103.442 47.4639C100.807 60.1743 102.216 75.4356 107.683 85.205C113.544 95.679 122.743 98.4703 131.253 98.3009L131.431 97.9938C128.826 91.3737 126.77 82.1943 129.638 75.8955C132.47 69.678 138.055 70.5941 142.392 67.8428C148.432 64.0109 151.935 51.9652 150.843 41.1774Z" fill="#2F2E41"/>
<path d="M210.282 571H0.767452C0.563911 571 0.368706 570.863 0.224781 570.618C0.0808557 570.374 0 570.043 0 569.697C0 569.352 0.0808557 569.02 0.224781 568.776C0.368706 568.532 0.563911 568.395 0.767452 568.395H210.282C210.485 568.395 210.68 568.532 210.824 568.776C210.968 569.02 211.049 569.352 211.049 569.697C211.049 570.043 210.968 570.374 210.824 570.618C210.68 570.863 210.485 571 210.282 571Z" fill="#CCCCCC"/>
<path d="M283.873 122.937C282.912 122.942 282.135 125.06 282.136 127.667C282.138 130.267 282.915 132.374 283.873 132.379H365.89C366.851 132.374 367.628 130.256 367.626 127.649C367.624 125.048 366.848 122.942 365.89 122.937H283.873Z" fill="white"/>
<path d="M283.873 150.294C282.912 150.299 282.135 152.417 282.136 155.024C282.138 157.624 282.915 159.731 283.873 159.736H365.89C366.851 159.731 367.628 157.613 367.626 155.005C367.624 152.405 366.848 150.299 365.89 150.294H283.873Z" fill="white"/>
<path d="M283.873 177.32C282.912 177.325 282.135 179.443 282.136 182.05C282.138 184.65 282.915 186.757 283.873 186.762H319.165C320.125 186.757 320.903 184.639 320.901 182.032C320.899 179.431 320.123 177.325 319.165 177.32H283.873Z" fill="white"/>
<path d="M242.229 192.27C254.521 192.27 264.485 175.356 264.485 154.491C264.485 133.627 254.521 116.713 242.229 116.713C229.937 116.713 219.973 133.627 219.973 154.491C219.973 175.356 229.937 192.27 242.229 192.27Z" fill="white"/>
</g>
<defs>
<clipPath id="clip0_804_280">
<rect width="633" height="571" fill="white"/>
</clipPath>
</defs>
</svg>
