<svg width="25" height="24" viewBox="0 0 25 24" fill="none" xmlns="http://www.w3.org/2000/svg">
<path d="M24.5238 12.2756C24.5238 11.4598 24.4577 10.6397 24.3165 9.83719H12.9978V14.4582H19.4795C19.2105 15.9485 18.3463 17.267 17.0808 18.1046V21.103H20.9478C23.2187 19.013 24.5238 15.9265 24.5238 12.2756Z" fill="#4285F4"/>
<path d="M12.9978 24C16.2342 24 18.9637 22.9373 20.9522 21.103L17.0852 18.1046C16.0094 18.8366 14.6204 19.2511 13.0022 19.2511C9.87158 19.2511 7.21716 17.139 6.26475 14.2994H2.27429V17.3903C4.31141 21.4426 8.4606 24 12.9978 24Z" fill="#34A853"/>
<path d="M6.26034 14.2994C5.75767 12.8091 5.75767 11.1953 6.26034 9.70493V6.61398H2.27431C0.572302 10.0048 0.572302 13.9996 2.27431 17.3903L6.26034 14.2994Z" fill="#FBBC04"/>
<path d="M12.9978 4.74883C14.7086 4.72238 16.3621 5.36613 17.6011 6.54785L21.0272 3.12178C18.8578 1.08468 15.9785 -0.0352899 12.9978 -1.53117e-05C8.46058 -1.53117e-05 4.31141 2.5574 2.27429 6.61398L6.26033 9.70493C7.20833 6.8609 9.86716 4.74883 12.9978 4.74883Z" fill="#EA4335"/>
</svg>
