<svg width="367" height="450" viewBox="0 0 367 450" fill="none" xmlns="http://www.w3.org/2000/svg">
<g clip-path="url(#clip0_796_809)">
<path d="M228.023 261.496H93.5954C89.0368 261.489 84.6663 259.023 81.4429 254.639C78.2195 250.255 76.4063 244.31 76.4011 238.11V23.3858C76.4063 17.1856 78.2195 11.2414 81.4429 6.85725C84.6663 2.47308 89.0368 0.00697317 93.5954 -3.05176e-05H218.659L245.218 28.7921V238.11C245.212 244.31 243.399 250.255 240.176 254.639C236.952 259.023 232.582 261.489 228.023 261.496V261.496Z" fill="#E6E6E6"/>
<path d="M93.5955 6.73224C90.3492 6.73721 87.2369 8.49338 84.9414 11.6154C82.6459 14.7375 81.3547 18.9705 81.3511 23.3858V238.11C81.3547 242.525 82.6459 246.758 84.9414 249.88C87.2369 253.003 90.3492 254.759 93.5955 254.764H228.023C231.27 254.759 234.382 253.003 236.678 249.88C238.973 246.758 240.264 242.525 240.268 238.11V32.0354L216.927 6.73224H93.5955Z" fill="white"/>
<path d="M201.877 69.1684H140.674C140.298 69.1684 139.926 69.0676 139.578 68.8719C139.231 68.6762 138.915 68.3894 138.649 68.0277C138.384 67.6661 138.173 67.2368 138.029 66.7643C137.885 66.2918 137.811 65.7854 137.811 65.274C137.811 64.7626 137.885 64.2562 138.029 63.7837C138.173 63.3112 138.384 62.8819 138.649 62.5203C138.915 62.1586 139.231 61.8718 139.578 61.6761C139.926 61.4804 140.298 61.3796 140.674 61.3796H201.877C202.253 61.3796 202.626 61.4804 202.973 61.6761C203.32 61.8718 203.636 62.1586 203.902 62.5203C204.168 62.8819 204.379 63.3112 204.523 63.7837C204.667 64.2562 204.741 64.7626 204.741 65.274C204.741 65.7854 204.667 66.2918 204.523 66.7643C204.379 67.2368 204.168 67.6661 203.902 68.0277C203.636 68.3894 203.32 68.6762 202.973 68.8719C202.626 69.0676 202.253 69.1684 201.877 69.1684V69.1684Z" fill="#CCCCCC"/>
<path d="M213.688 82.3118H140.674C139.915 82.3118 139.186 81.9015 138.649 81.1712C138.112 80.4409 137.811 79.4503 137.811 78.4175C137.811 77.3846 138.112 76.3941 138.649 75.6637C139.186 74.9334 139.915 74.5231 140.674 74.5231H213.688C214.448 74.5231 215.176 74.9334 215.713 75.6637C216.25 76.3941 216.552 77.3846 216.552 78.4175C216.552 79.4503 216.25 80.4409 215.713 81.1712C215.176 81.9015 214.448 82.3118 213.688 82.3118Z" fill="#CCCCCC"/>
<path d="M201.877 128.071H140.674C139.915 128.071 139.186 127.66 138.649 126.93C138.112 126.2 137.811 125.209 137.811 124.176C137.811 123.143 138.112 122.153 138.649 121.423C139.186 120.692 139.915 120.282 140.674 120.282H201.877C202.637 120.282 203.365 120.692 203.902 121.423C204.439 122.153 204.741 123.143 204.741 124.176C204.741 125.209 204.439 126.2 203.902 126.93C203.365 127.66 202.637 128.071 201.877 128.071Z" fill="#CCCCCC"/>
<path d="M213.688 141.214H140.674C139.915 141.214 139.186 140.804 138.649 140.073C138.112 139.343 137.811 138.353 137.811 137.32C137.811 136.287 138.112 135.296 138.649 134.566C139.186 133.836 139.915 133.425 140.674 133.425H213.688C214.448 133.425 215.176 133.836 215.713 134.566C216.25 135.296 216.552 136.287 216.552 137.32C216.552 138.353 216.25 139.343 215.713 140.073C215.176 140.804 214.448 141.214 213.688 141.214Z" fill="#CCCCCC"/>
<path d="M201.877 186.973H140.674C139.915 186.973 139.186 186.563 138.649 185.832C138.112 185.102 137.811 184.111 137.811 183.079C137.811 182.046 138.112 181.055 138.649 180.325C139.186 179.594 139.915 179.184 140.674 179.184H201.877C202.637 179.184 203.365 179.594 203.902 180.325C204.439 181.055 204.741 182.046 204.741 183.079C204.741 184.111 204.439 185.102 203.902 185.832C203.365 186.563 202.637 186.973 201.877 186.973Z" fill="#CCCCCC"/>
<path d="M213.688 200.116H140.674C139.915 200.116 139.186 199.706 138.649 198.976C138.112 198.245 137.811 197.255 137.811 196.222C137.811 195.189 138.112 194.199 138.649 193.468C139.186 192.738 139.915 192.328 140.674 192.328H213.688C214.448 192.328 215.176 192.738 215.713 193.468C216.25 194.199 216.552 195.189 216.552 196.222C216.552 197.255 216.25 198.245 215.713 198.976C215.176 199.706 214.448 200.116 213.688 200.116V200.116Z" fill="#CCCCCC"/>
<path d="M115.187 85.6102C120.777 85.6102 125.308 79.4476 125.308 71.8457C125.308 64.2438 120.777 58.0813 115.187 58.0813C109.598 58.0813 105.067 64.2438 105.067 71.8457C105.067 79.4476 109.598 85.6102 115.187 85.6102Z" fill="#4B91CB"/>
<path d="M114.185 77.0965C113.957 77.097 113.735 76.9968 113.553 76.8111L113.542 76.7995L111.163 74.325C110.941 74.0929 110.796 73.7503 110.759 73.3725C110.723 72.9947 110.798 72.6127 110.968 72.3103C111.139 72.0079 111.391 71.8099 111.668 71.7598C111.946 71.7098 112.227 71.8117 112.45 72.0433L113.99 73.65L117.63 67.1906C117.715 67.0409 117.82 66.9152 117.94 66.8208C118.06 66.7264 118.193 66.665 118.33 66.6403C118.468 66.6156 118.608 66.628 118.742 66.6768C118.876 66.7255 119.002 66.8097 119.112 66.9245L119.112 66.9248L119.089 66.9675L119.113 66.9248C119.335 67.157 119.48 67.4996 119.517 67.8774C119.553 68.2552 119.478 68.6373 119.308 68.9399L115.026 76.5342C114.927 76.7092 114.8 76.8507 114.654 76.948C114.508 77.0452 114.348 77.0954 114.185 77.0948L114.185 77.0965Z" fill="white"/>
<path d="M116.23 144.512C121.819 144.512 126.35 138.35 126.35 130.748C126.35 123.146 121.819 116.984 116.23 116.984C110.64 116.984 106.109 123.146 106.109 130.748C106.109 138.35 110.64 144.512 116.23 144.512Z" fill="#CCCCCC"/>
<path d="M115.187 203.415C120.777 203.415 125.308 197.252 125.308 189.65C125.308 182.048 120.777 175.886 115.187 175.886C109.598 175.886 105.067 182.048 105.067 189.65C105.067 197.252 109.598 203.415 115.187 203.415Z" fill="#CCCCCC"/>
<path d="M244.701 29.7187H223.896C222.377 29.7187 220.921 28.8981 219.847 27.4375C218.773 25.9768 218.17 23.9957 218.17 21.93V1.03087C218.17 0.939373 218.189 0.84972 218.224 0.772207C218.26 0.694693 218.311 0.632452 218.372 0.592619C218.432 0.552786 218.5 0.536974 218.567 0.546998C218.634 0.557022 218.697 0.592475 218.75 0.649292L244.923 28.8503C244.981 28.9131 245.024 28.999 245.045 29.096C245.065 29.1931 245.063 29.2965 245.039 29.392C245.014 29.4874 244.969 29.5702 244.908 29.6287C244.848 29.6873 244.775 29.7187 244.701 29.7187Z" fill="#E6E6E6"/>
<path d="M103.868 301.728L24.3337 324.53C22.0352 325.185 19.6395 324.573 17.6722 322.829C15.7048 321.085 14.3265 318.351 13.8396 315.226L0.191573 227.161C-0.290198 224.035 0.15942 220.777 1.44178 218.101C2.72415 215.425 4.73454 213.55 7.03188 212.888L86.5663 190.087C88.8647 189.432 91.2604 190.043 93.2278 191.787C95.1951 193.531 96.5735 196.266 97.0604 199.39L110.708 287.455C111.19 290.581 110.741 293.84 109.458 296.516C108.176 299.191 106.165 301.066 103.868 301.728Z" fill="white"/>
<path d="M103.868 301.728L24.3337 324.53C22.0352 325.185 19.6395 324.573 17.6722 322.829C15.7048 321.085 14.3265 318.351 13.8396 315.226L0.191573 227.161C-0.290198 224.035 0.15942 220.777 1.44178 218.101C2.72415 215.425 4.73454 213.55 7.03188 212.888L86.5663 190.087C88.8647 189.432 91.2604 190.043 93.2278 191.787C95.1951 193.531 96.5735 196.266 97.0604 199.39L110.708 287.455C111.19 290.581 110.741 293.84 109.458 296.516C108.176 299.191 106.165 301.066 103.868 301.728ZM7.24682 214.275C5.21975 214.859 3.44589 216.514 2.31439 218.875C1.18289 221.236 0.786162 224.111 1.21124 226.869L14.8592 314.934C15.2889 317.691 16.5051 320.103 18.241 321.642C19.9769 323.181 22.0907 323.721 24.1187 323.143L103.653 300.341C105.68 299.757 107.454 298.103 108.586 295.742C109.717 293.381 110.114 290.506 109.689 287.748L96.0408 199.683C95.6111 196.926 94.3949 194.513 92.659 192.974C90.9231 191.435 88.8093 190.896 86.7813 191.474L7.24682 214.275Z" fill="#3F3D56"/>
<path d="M81.6245 219.124L41.4846 230.632C41.1333 230.743 40.7642 230.668 40.4518 230.423C40.1395 230.178 39.9072 229.781 39.802 229.312C39.7538 229.067 39.7429 228.812 39.7697 228.561C39.7965 228.31 39.8606 228.07 39.9581 227.854C40.0555 227.638 40.1843 227.452 40.3365 227.306C40.4887 227.16 40.6611 227.058 40.8433 227.006L81.7033 215.292C83.2987 216.514 82.7945 218.789 81.624 219.125L81.6245 219.124Z" fill="#CCCCCC"/>
<path d="M83.1084 228.701L42.9684 240.208C42.6172 240.319 42.2481 240.244 41.9357 239.999C41.6234 239.754 41.3911 239.357 41.2859 238.888C41.2377 238.643 41.2267 238.388 41.2536 238.137C41.2804 237.887 41.3445 237.646 41.4419 237.43C41.5394 237.214 41.6681 237.028 41.8203 236.882C41.9725 236.736 42.145 236.634 42.3272 236.582L83.1872 224.868C84.7826 226.091 84.2784 228.365 83.1079 228.701L83.1084 228.701Z" fill="#CCCCCC"/>
<path d="M35.1362 248.148L22.8859 251.66C22.4858 251.774 22.0688 251.668 21.7263 251.364C21.3839 251.061 21.144 250.585 21.0593 250.041L18.0121 230.379C17.9282 229.835 18.0064 229.267 18.2297 228.802C18.4529 228.336 18.8028 228.01 19.2027 227.894L31.4531 224.382C31.8531 224.268 32.2701 224.375 32.6125 224.679C32.9549 224.982 33.1948 225.458 33.2797 226.002L36.3268 245.664C36.4107 246.208 36.3325 246.775 36.1093 247.241C35.886 247.707 35.5361 248.033 35.1362 248.148V248.148Z" fill="#CCCCCC"/>
<path d="M86.0304 248.341L24.7695 265.904C24.4182 266.015 24.0491 265.94 23.7368 265.695C23.4244 265.45 23.1921 265.053 23.0869 264.584C23.0387 264.339 23.0278 264.084 23.0546 263.833C23.0814 263.582 23.1455 263.342 23.243 263.126C23.3404 262.91 23.4692 262.724 23.6214 262.578C23.7736 262.432 23.946 262.33 24.1282 262.278L86.1097 244.508C87.7051 245.731 87.2009 248.006 86.0304 248.341V248.341Z" fill="#CCCCCC"/>
<path d="M87.5151 257.92L26.2541 275.483C25.9028 275.594 25.5337 275.519 25.2214 275.274C24.909 275.029 24.6767 274.632 24.5715 274.163C24.5234 273.918 24.5124 273.663 24.5392 273.412C24.5661 273.161 24.6301 272.921 24.7276 272.705C24.825 272.489 24.9538 272.303 25.106 272.157C25.2582 272.011 25.4306 271.909 25.6128 271.856L87.5944 254.087C89.1898 255.31 88.6855 257.585 87.5151 257.92Z" fill="#CCCCCC"/>
<path d="M88.9985 267.493L27.7375 285.056C27.3862 285.167 27.0171 285.092 26.7048 284.847C26.3924 284.602 26.1601 284.204 26.0549 283.735C26.0068 283.491 25.9958 283.235 26.0226 282.985C26.0495 282.734 26.1135 282.494 26.211 282.278C26.3084 282.062 26.4372 281.875 26.5894 281.73C26.7416 281.584 26.914 281.482 27.0962 281.429L89.0778 263.66C90.6732 264.883 90.1689 267.158 88.9985 267.493V267.493Z" fill="#CCCCCC"/>
<path d="M90.4831 277.071L29.2221 294.634C28.8708 294.745 28.5017 294.67 28.1894 294.425C27.877 294.18 27.6448 293.783 27.5395 293.314C27.4914 293.069 27.4804 292.814 27.5072 292.563C27.5341 292.312 27.5982 292.072 27.6956 291.856C27.7931 291.64 27.9218 291.454 28.074 291.308C28.2262 291.162 28.3987 291.06 28.5809 291.008L90.5624 273.238C92.1578 274.461 91.6535 276.736 90.4831 277.071V277.071Z" fill="#CCCCCC"/>
<path d="M91.9667 286.645L30.7057 304.207C30.3545 304.318 29.9854 304.243 29.673 303.998C29.3607 303.753 29.1284 303.356 29.0232 302.887C28.975 302.642 28.964 302.387 28.9909 302.136C29.0177 301.886 29.0818 301.645 29.1793 301.429C29.2767 301.214 29.4054 301.027 29.5576 300.881C29.7098 300.735 29.8823 300.633 30.0645 300.581L92.046 282.812C93.6414 284.035 93.1372 286.309 91.9667 286.645V286.645Z" fill="#CCCCCC"/>
<path d="M102.781 242.802C102.641 243.145 102.522 243.503 102.425 243.872L77.3452 252.337L72.9823 246.198L65.3101 253.942L72.2572 265.831C72.8184 266.791 73.5936 267.478 74.4663 267.788C75.339 268.099 76.2621 268.016 77.0971 267.551L104.311 252.427C105.205 253.323 106.279 253.826 107.389 253.872C108.499 253.917 109.593 253.502 110.525 252.681C111.458 251.86 112.184 250.672 112.608 249.276C113.032 247.879 113.134 246.341 112.899 244.864C112.664 243.388 112.104 242.043 111.294 241.01C110.484 239.977 109.462 239.303 108.363 239.079C107.265 238.856 106.143 239.092 105.145 239.757C104.148 240.422 103.323 241.484 102.781 242.802L102.781 242.802Z" fill="#A0616A"/>
<path d="M17.1756 318.127C17.9574 317.799 18.6769 317.241 19.2831 316.494C19.8894 315.746 20.3678 314.827 20.6847 313.801C21.0015 312.775 21.1491 311.667 21.117 310.555C21.0849 309.443 20.8739 308.354 20.4989 307.364L37.7579 242.12L25.7721 239.231L12.5759 304.273C11.3959 305.24 10.5176 306.762 10.1076 308.551C9.69753 310.34 9.78421 312.271 10.3512 313.979C10.9181 315.686 11.926 317.052 13.1838 317.817C14.4416 318.581 15.8619 318.692 17.1756 318.127V318.127Z" fill="#A0616A"/>
<path d="M35.5661 253.702L23.732 247.524C23.3953 247.348 23.0904 247.076 22.8381 246.726C22.5858 246.375 22.392 245.955 22.2698 245.493C22.1477 245.032 22.1002 244.54 22.1304 244.051C22.1607 243.562 22.2681 243.088 22.4452 242.661L28.6534 227.69C29.3245 225.352 30.6497 223.472 32.3385 222.461C34.0274 221.45 35.942 221.391 37.6627 222.297C39.3834 223.203 40.7697 225 41.5178 227.294C42.2658 229.588 42.3146 232.192 41.6533 234.535L38.915 251.258C38.8365 251.737 38.683 252.187 38.4651 252.577C38.2471 252.968 37.9698 253.291 37.652 253.523C37.3342 253.754 36.9834 253.891 36.6234 253.921C36.2635 253.952 35.9029 253.877 35.5661 253.702V253.702Z" fill="#64B37C"/>
<path d="M62.2769 440.622L68.6649 440.621L71.7036 407.11L62.2759 407.11L62.2769 440.622Z" fill="#A0616A"/>
<path d="M60.6477 437.785L73.2276 437.784H73.2281C74.2809 437.784 75.3234 438.066 76.296 438.614C77.2687 439.162 78.1525 439.965 78.8969 440.978C79.6414 441.99 80.2319 443.192 80.6348 444.515C81.0377 445.838 81.245 447.256 81.245 448.688V449.042L60.6481 449.043L60.6477 437.785Z" fill="#2F2E41"/>
<path d="M26.3255 440.622L32.7134 440.621L35.7521 407.11L26.3245 407.11L26.3255 440.622Z" fill="#A0616A"/>
<path d="M24.6958 437.785L37.2757 437.784H37.2762C38.329 437.784 39.3715 438.066 40.3441 438.614C41.3168 439.162 42.2006 439.965 42.945 440.978C43.6895 441.99 44.28 443.192 44.6829 444.515C45.0858 445.838 45.2931 447.256 45.2931 448.688V449.042L24.6962 449.043L24.6958 437.785Z" fill="#2F2E41"/>
<path d="M33.0219 427.134H24.9381C24.6209 427.134 24.3069 427.046 24.0152 426.876C23.7236 426.706 23.4603 426.458 23.2414 426.145C23.0224 425.833 22.8523 425.463 22.7414 425.059C22.6305 424.655 22.5811 424.224 22.5961 423.793L26.4359 311.589L26.6778 311.58L65.7136 310.196L73.3523 422.464C73.3817 422.885 73.3492 423.31 73.2568 423.713C73.1645 424.117 73.014 424.492 72.8142 424.816C72.6144 425.139 72.3693 425.406 72.093 425.6C71.8168 425.794 71.515 425.911 71.2052 425.945L62.1254 426.932C61.555 426.994 60.9877 426.77 60.5302 426.302C60.0728 425.835 59.7567 425.156 59.6416 424.394L48.0274 344.474C47.9958 344.231 47.9011 344.011 47.7606 343.855C47.6202 343.7 47.4433 343.617 47.262 343.624H47.2589C47.077 343.618 46.8997 343.702 46.7595 343.859C46.6192 344.017 46.5253 344.238 46.4949 344.482L35.3224 424.561C35.2166 425.285 34.9296 425.937 34.5102 426.406C34.0908 426.875 33.5649 427.132 33.0219 427.134V427.134Z" fill="#2F2E41"/>
<path d="M47.8297 211.518C54.8974 211.518 60.627 203.725 60.627 194.112C60.627 184.5 54.8974 176.707 47.8297 176.707C40.762 176.707 35.0325 184.5 35.0325 194.112C35.0325 203.725 40.762 211.518 47.8297 211.518Z" fill="#A0616A"/>
<path d="M43.5388 324.738C37.4394 324.738 31.1745 322.558 25.9809 316.11C25.7045 315.77 25.4911 315.345 25.3581 314.871C25.2251 314.397 25.1761 313.887 25.2152 313.382C25.7711 306.589 28.4676 271.514 26.9491 248.084C26.6527 243.707 27.1083 239.297 28.2797 235.201C29.4512 231.105 31.3066 227.436 33.6994 224.482C36.0503 221.535 38.8726 219.372 41.9436 218.162C45.0145 216.953 48.2501 216.731 51.395 217.513C51.5544 217.552 51.7138 217.593 51.8733 217.634C62.1188 220.331 69.2374 233.228 68.4319 247.633C67.2565 268.652 66.2029 297.083 67.8573 313.161C67.9259 313.819 67.8414 314.489 67.6158 315.078C67.3902 315.668 67.0347 316.146 66.5991 316.447C62.8347 319.034 53.4032 324.738 43.5388 324.738Z" fill="#4B91CB"/>
<path d="M60.2376 254.954C59.9374 254.682 59.6837 254.326 59.494 253.908C59.3043 253.491 59.1831 253.023 59.1385 252.536L57.5794 235.536C57.0845 233.118 57.3146 230.532 58.2194 228.345C59.1241 226.158 60.6296 224.547 62.4058 223.867C64.1821 223.188 66.084 223.493 67.6947 224.718C69.3054 225.942 70.4935 227.985 70.9983 230.399L76.1338 246.104C76.2803 246.552 76.3541 247.038 76.3502 247.529C76.3462 248.019 76.2645 248.503 76.1107 248.946C75.957 249.39 75.7347 249.784 75.459 250.1C75.1834 250.416 74.8609 250.648 74.5134 250.78L62.3017 255.401C61.9542 255.533 61.5899 255.561 61.2337 255.484C60.8775 255.407 60.5378 255.226 60.2376 254.954V254.954Z" fill="#4B91CB"/>
<path d="M43.3624 211.272C42.1511 211.303 40.9474 211.006 39.8208 210.401C39.3251 210.141 38.8105 209.927 38.3157 209.667C33.946 207.371 31.0674 201.041 30.9643 194.672C30.8612 188.302 33.2866 182.119 36.8881 178.045C40.4896 173.97 45.1544 171.878 49.8254 171.395C54.8569 170.874 60.5225 172.609 63.334 178.308C64.0824 179.825 64.6058 181.666 64.1623 183.497C64.0295 184.05 63.7923 184.545 63.4744 184.934C62.2188 186.454 60.9671 185.311 59.6871 185.21C57.9278 185.072 56.3476 187.008 55.7797 189.277C55.2117 191.546 55.4618 194.044 55.9203 196.359C56.2697 197.751 56.4899 199.198 56.5759 200.664C56.6129 201.4 56.5112 202.136 56.2805 202.803C56.0497 203.47 55.6975 204.046 55.2572 204.476C54.1579 205.38 52.7141 204.857 51.6141 203.954C50.5141 203.052 49.5637 201.797 48.3755 201.133C47.1873 200.469 45.591 200.617 44.8994 202.089C44.6796 202.625 44.5308 203.209 44.4599 203.815C43.8399 207.656 43.9824 207.43 43.3624 211.272V211.272Z" fill="#2F2E41"/>
<path d="M99.8663 450H0.868939C0.730751 450 0.598222 449.925 0.500509 449.792C0.402795 449.66 0.3479 449.479 0.3479 449.291C0.3479 449.103 0.402795 448.923 0.500509 448.79C0.598222 448.657 0.730751 448.583 0.868939 448.583H99.8663C100.004 448.583 100.137 448.657 100.235 448.79C100.332 448.923 100.387 449.103 100.387 449.291C100.387 449.479 100.332 449.66 100.235 449.792C100.137 449.925 100.004 450 99.8663 450Z" fill="#CCCCCC"/>
<path d="M353.271 303.753L282.379 357.836C280.33 359.396 277.909 359.786 275.649 358.921C273.388 358.056 271.472 356.007 270.321 353.223L237.949 274.728C236.802 271.941 236.515 268.648 237.151 265.574C237.787 262.499 239.294 259.893 241.341 258.327L312.232 204.244C314.281 202.685 316.702 202.295 318.963 203.159C321.223 204.024 323.139 206.074 324.29 208.858L356.663 287.352C357.809 290.14 358.096 293.432 357.46 296.507C356.824 299.581 355.318 302.187 353.271 303.753V303.753Z" fill="white"/>
<path d="M353.271 303.753L282.379 357.836C280.33 359.396 277.909 359.786 275.649 358.921C273.388 358.056 271.472 356.007 270.321 353.223L237.949 274.728C236.802 271.941 236.515 268.648 237.151 265.574C237.787 262.499 239.294 259.893 241.341 258.327L312.232 204.244C314.281 202.685 316.702 202.295 318.963 203.159C321.223 204.024 323.139 206.074 324.29 208.858L356.663 287.352C357.809 290.14 358.096 293.432 357.46 296.507C356.824 299.581 355.318 302.187 353.271 303.753V303.753ZM241.85 259.563C240.044 260.945 238.715 263.244 238.154 265.957C237.593 268.67 237.846 271.575 238.857 274.035L271.23 352.529C272.245 354.986 273.936 356.794 275.931 357.557C277.925 358.32 280.061 357.976 281.87 356.6L352.761 302.517C354.567 301.135 355.896 298.836 356.457 296.123C357.019 293.41 356.766 290.505 355.754 288.046L323.382 209.551C322.366 207.094 320.675 205.286 318.681 204.523C316.686 203.76 314.55 204.104 312.742 205.48L241.85 259.563Z" fill="#3F3D56"/>
<path d="M313.895 233.963L278.118 261.258C277.807 261.507 277.438 261.586 277.086 261.479C276.734 261.372 276.425 261.087 276.222 260.682C276.122 260.468 276.055 260.229 276.026 259.979C275.997 259.729 276.005 259.473 276.05 259.228C276.096 258.982 276.178 258.752 276.291 258.551C276.404 258.35 276.546 258.182 276.709 258.058L313.129 230.274C314.92 230.792 314.938 233.168 313.895 233.964L313.895 233.963Z" fill="#CCCCCC"/>
<path d="M317.415 242.499L281.638 269.794C281.327 270.042 280.958 270.121 280.606 270.014C280.254 269.907 279.945 269.623 279.742 269.218C279.642 269.004 279.575 268.764 279.546 268.514C279.517 268.264 279.525 268.009 279.571 267.763C279.616 267.518 279.698 267.287 279.811 267.086C279.924 266.885 280.067 266.718 280.229 266.594L316.649 238.809C318.44 239.328 318.458 241.703 317.415 242.499L317.415 242.499Z" fill="#CCCCCC"/>
<path d="M275.908 280.554L264.988 288.884C264.632 289.156 264.21 289.224 263.817 289.073C263.423 288.923 263.09 288.566 262.89 288.081L255.662 270.556C255.462 270.071 255.412 269.498 255.523 268.963C255.634 268.427 255.896 267.974 256.252 267.701L267.171 259.371C267.528 259.1 267.949 259.032 268.343 259.183C268.736 259.333 269.07 259.69 269.27 260.174L276.498 277.7C276.698 278.185 276.748 278.758 276.637 279.293C276.526 279.828 276.264 280.282 275.908 280.554L275.908 280.554Z" fill="#CCCCCC"/>
<path d="M324.519 260.055L269.915 301.712C269.605 301.96 269.236 302.039 268.884 301.932C268.532 301.825 268.223 301.541 268.02 301.136C267.92 300.922 267.853 300.683 267.824 300.433C267.794 300.183 267.803 299.927 267.848 299.681C267.894 299.436 267.976 299.206 268.089 299.004C268.202 298.803 268.344 298.636 268.507 298.512L323.753 256.365C325.544 256.883 325.562 259.259 324.519 260.055Z" fill="#CCCCCC"/>
<path d="M328.04 268.593L273.437 310.25C273.126 310.498 272.757 310.577 272.405 310.47C272.053 310.363 271.744 310.079 271.541 309.674C271.441 309.46 271.375 309.221 271.345 308.971C271.316 308.721 271.324 308.465 271.37 308.219C271.415 307.974 271.497 307.744 271.61 307.542C271.723 307.341 271.866 307.174 272.028 307.05L327.274 264.903C329.065 265.421 329.084 267.797 328.04 268.593V268.593Z" fill="#CCCCCC"/>
<path d="M331.559 277.125L276.955 318.782C276.645 319.031 276.276 319.11 275.924 319.003C275.572 318.896 275.263 318.611 275.06 318.206C274.96 317.992 274.893 317.753 274.864 317.503C274.834 317.253 274.843 316.997 274.888 316.752C274.934 316.506 275.016 316.276 275.129 316.075C275.242 315.874 275.384 315.706 275.547 315.582L330.793 273.435C332.584 273.954 332.602 276.329 331.559 277.125V277.125Z" fill="#CCCCCC"/>
<path d="M335.08 285.662L280.476 327.32C280.166 327.568 279.797 327.647 279.445 327.54C279.093 327.433 278.784 327.149 278.581 326.744C278.481 326.53 278.414 326.29 278.385 326.04C278.355 325.79 278.364 325.535 278.409 325.289C278.455 325.044 278.537 324.813 278.65 324.612C278.763 324.411 278.905 324.244 279.068 324.12L334.314 281.972C336.105 282.491 336.123 284.867 335.08 285.662H335.08Z" fill="#CCCCCC"/>
<path d="M338.599 294.196L283.995 335.853C283.685 336.101 283.316 336.18 282.964 336.073C282.612 335.966 282.303 335.682 282.1 335.277C282 335.063 281.933 334.824 281.904 334.573C281.875 334.323 281.883 334.068 281.928 333.822C281.974 333.577 282.056 333.346 282.169 333.145C282.282 332.944 282.424 332.777 282.587 332.653L337.833 290.506C339.624 291.024 339.642 293.4 338.599 294.196V294.196Z" fill="#CCCCCC"/>
<path d="M329.073 326.173C329.37 325.281 329.52 324.311 329.512 323.331C329.504 322.352 329.338 321.387 329.026 320.504C328.714 319.621 328.264 318.842 327.706 318.222C327.149 317.602 326.499 317.155 325.801 316.914L324.316 293.192L317.174 300.854L319.679 322.206C319.459 323.828 319.683 325.503 320.31 326.914C320.937 328.326 321.923 329.375 323.081 329.864C324.239 330.353 325.488 330.247 326.593 329.567C327.697 328.887 328.58 327.679 329.073 326.173V326.173Z" fill="#FFB8B8"/>
<path d="M324.451 314.429L318.52 315.391C318.218 315.44 317.913 315.404 317.622 315.285C317.332 315.165 317.062 314.966 316.831 314.699C316.6 314.431 316.412 314.102 316.279 313.731C316.145 313.36 316.07 312.956 316.057 312.544L315.192 285.33L303.949 243.557C303.498 242.261 303.293 240.832 303.351 239.401C303.41 237.969 303.73 236.58 304.283 235.36C304.559 234.77 304.874 234.216 305.225 233.706C305.917 232.693 306.779 231.922 307.737 231.459C308.695 230.996 309.722 230.856 310.728 231.048C311.766 231.236 312.755 231.758 313.614 232.57C314.474 233.382 315.178 234.462 315.67 235.718L323.001 256.614C326.068 265.355 327.516 274.982 327.219 284.658L326.392 311.579C326.37 312.283 326.167 312.955 325.817 313.475C325.467 313.996 324.994 314.332 324.48 314.424L324.451 314.429Z" fill="#4B91CB"/>
<path d="M345.514 432.045L340.015 435.328L328.089 408.042L336.204 403.197L345.514 432.045Z" fill="#FFB8B8"/>
<path d="M349.257 438.458L331.526 449.043L331.427 448.738C331.029 447.506 330.814 446.179 330.793 444.833C330.772 443.487 330.947 442.148 331.306 440.894C331.666 439.64 332.203 438.494 332.889 437.523C333.574 436.551 334.393 435.773 335.299 435.232L335.299 435.231L346.129 428.766L349.257 438.458Z" fill="#2F2E41"/>
<path d="M271.689 441.125H265.683L262.826 409.62L271.69 409.621L271.689 441.125Z" fill="#FFB8B8"/>
<path d="M273.22 449.043L253.856 449.042V448.709C253.856 447.363 254.051 446.03 254.43 444.786C254.809 443.543 255.364 442.413 256.064 441.461C256.764 440.509 257.594 439.754 258.509 439.239C259.423 438.723 260.403 438.458 261.393 438.458H261.394L273.22 438.459L273.22 449.043Z" fill="#2F2E41"/>
<path d="M330.157 430.355L296.703 328.816C296.643 328.626 296.541 328.466 296.41 328.358C296.28 328.25 296.129 328.2 295.976 328.215C295.824 328.23 295.68 328.308 295.562 328.44C295.444 328.571 295.359 328.75 295.319 328.95L274.936 427.024C274.802 427.71 274.491 428.309 274.061 428.712C273.631 429.115 273.109 429.295 272.589 429.221L261.457 427.707C260.884 427.625 260.356 427.242 259.987 426.64C259.617 426.038 259.435 425.264 259.478 424.481C263.019 364.583 268.601 308.05 285.323 271.042L285.412 270.845L310.705 277.591L344.472 423.84C344.639 424.593 344.582 425.405 344.314 426.103C344.047 426.8 343.589 427.327 343.039 427.571L332.856 432.022C332.334 432.253 331.768 432.21 331.269 431.901C330.769 431.593 330.373 431.041 330.157 430.355V430.355Z" fill="#2F2E41"/>
<path d="M297.637 219.029C304.281 219.029 309.668 211.703 309.668 202.665C309.668 193.628 304.281 186.302 297.637 186.302C290.992 186.302 285.605 193.628 285.605 202.665C285.605 211.703 290.992 219.029 297.637 219.029Z" fill="#FFB8B8"/>
<path d="M283.768 273.875L283.615 273.832L283.579 273.625C281.958 264.317 281.919 254.158 283.464 243.433C284.247 237.951 286.428 233.021 289.622 229.511C292.815 226.001 296.817 224.137 300.922 224.246V224.246C305.377 224.369 309.628 226.802 312.807 231.048C315.986 235.294 317.851 241.031 318.022 247.086C318.538 265.534 312.995 281.528 312.939 281.687L312.856 281.921L283.768 273.875Z" fill="#4B91CB"/>
<path d="M251.516 305.006C252.228 304.863 252.909 304.509 253.51 303.969C254.111 303.429 254.617 302.717 254.994 301.882C255.371 301.047 255.608 300.11 255.69 299.137C255.771 298.164 255.695 297.179 255.466 296.25L269.324 281.704L260.72 277.689L248.88 292.118C247.758 292.744 246.844 293.908 246.311 295.389C245.779 296.87 245.664 298.566 245.989 300.154C246.314 301.743 247.056 303.114 248.075 304.008C249.093 304.903 250.318 305.257 251.516 305.006V305.006Z" fill="#FFB8B8"/>
<path d="M259.085 294.036C258.634 294.399 258.102 294.53 257.586 294.406C257.07 294.282 256.603 293.911 256.271 293.361L252.464 287.101C252.271 286.783 252.127 286.414 252.044 286.017C251.96 285.62 251.937 285.204 251.977 284.795C252.017 284.386 252.119 283.992 252.276 283.639C252.433 283.286 252.642 282.98 252.89 282.742L269.242 267.014L288.971 231.535C289.528 230.318 290.3 229.309 291.216 228.601C292.133 227.892 293.165 227.506 294.219 227.478C294.732 227.473 295.245 227.534 295.75 227.659V227.659C296.752 227.901 297.695 228.469 298.5 229.314C299.305 230.159 299.948 231.256 300.374 232.512C300.82 233.8 301.033 235.214 300.996 236.636C300.96 238.058 300.674 239.448 300.164 240.69L285.555 272.868L285.523 272.939L259.085 294.036Z" fill="#4B91CB"/>
<path d="M299.788 201.65C298.901 199.666 296.945 199.106 295.246 199.332C293.547 199.558 291.895 200.37 290.188 200.352C285.448 200.302 281.789 192.445 283.782 186.596C285.416 181.799 289.498 179.693 293.19 178.039C300.932 174.573 309.825 171.242 316.85 176.863C319.088 178.707 320.924 181.33 322.168 184.462C323.412 187.594 324.019 191.121 323.925 194.679C323.767 199.102 322.522 203.645 323.575 207.836C324.79 212.67 328.644 215.264 332.285 216.518C338.668 218.718 345.398 218.363 351.821 220.336C358.244 222.309 364.825 227.546 366.557 236.187C367.694 241.863 366.507 247.972 364.542 253.213C362.537 258.559 359.751 263.292 356.354 267.123C352.957 270.953 349.021 273.8 344.786 275.49C340.552 277.179 336.109 277.675 331.729 276.947C327.349 276.219 323.124 274.282 319.313 271.256C311.548 265.089 305.942 254.667 302.6 243.314C300.705 236.691 299.371 229.796 298.624 222.763C297.875 216.179 298.511 209.525 299.866 203.123C299.93 202.884 299.957 202.629 299.943 202.375C299.93 202.121 299.877 201.874 299.788 201.65Z" fill="#2F2E41"/>
<path d="M343.191 450H244.194C244.056 450 243.923 449.925 243.826 449.792C243.728 449.66 243.673 449.479 243.673 449.291C243.673 449.103 243.728 448.923 243.826 448.79C243.923 448.657 244.056 448.583 244.194 448.583H343.191C343.33 448.583 343.462 448.657 343.56 448.79C343.658 448.923 343.713 449.103 343.713 449.291C343.713 449.479 343.658 449.66 343.56 449.792C343.462 449.925 343.33 450 343.191 450Z" fill="#CCCCCC"/>
</g>
<defs>
<clipPath id="clip0_796_809">
<rect width="367" height="450" fill="white"/>
</clipPath>
</defs>
</svg>
