<svg width="531" height="499" viewBox="0 0 531 499" fill="none" xmlns="http://www.w3.org/2000/svg">
<g clip-path="url(#clip0_796_1101)">
<path d="M53.2023 454.319L52.3898 436.071C43.9197 431.548 34.4725 429.16 24.8684 429.112C38.0865 439.907 36.4346 460.715 45.3962 475.231C48.2259 479.737 52.0346 483.549 56.5398 486.385C61.0451 489.221 66.1315 491.008 71.4221 491.613L82.4834 498.378C84.0012 489.926 83.6666 481.246 81.5026 472.936C79.3386 464.625 75.3966 456.882 69.9483 450.24C66.8549 446.544 63.3078 443.252 59.3908 440.442C56.7415 447.419 53.2023 454.319 53.2023 454.319Z" fill="#F2F2F2"/>
<path d="M352.401 119.167H194.117C187.453 119.167 182.052 124.563 182.052 131.218V212.862C182.052 219.518 187.453 224.913 194.117 224.913H352.401C359.065 224.913 364.466 219.518 364.466 212.862V131.218C364.466 124.563 359.065 119.167 352.401 119.167Z" fill="white"/>
<path d="M352.402 225.727H194.117C190.702 225.723 187.429 224.367 185.014 221.955C182.6 219.543 181.242 216.273 181.238 212.863V131.219C181.242 127.808 182.6 124.538 185.014 122.126C187.429 119.715 190.702 118.358 194.117 118.354H352.402C355.816 118.358 359.089 119.715 361.504 122.127C363.918 124.538 365.276 127.808 365.28 131.219V212.863C365.276 216.273 363.918 219.543 361.504 221.955C359.089 224.366 355.816 225.723 352.402 225.727ZM194.117 119.981C191.134 119.984 188.274 121.169 186.165 123.276C184.056 125.383 182.87 128.239 182.866 131.219V212.863C182.87 215.842 184.056 218.698 186.165 220.805C188.274 222.912 191.134 224.097 194.117 224.1H352.402C355.384 224.097 358.244 222.912 360.353 220.805C362.462 218.698 363.648 215.842 363.651 212.863V131.219C363.648 128.239 362.462 125.383 360.353 123.276C358.244 121.17 355.384 119.984 352.402 119.981H194.117Z" fill="#3F3D56"/>
<path d="M518.529 106.559H360.244C356.937 106.556 353.767 105.242 351.429 102.907C349.091 100.571 347.775 97.4046 347.772 94.1017V12.4576C347.775 9.15473 349.091 5.98818 351.429 3.65272C353.767 1.31725 356.937 0.00361484 360.244 0H518.529C521.835 0.00377853 525.005 1.3175 527.343 3.65295C529.681 5.98841 530.996 9.15485 531 12.4576V94.1017C530.996 97.4045 529.681 100.571 527.343 102.906C525.005 105.242 521.835 106.556 518.529 106.559Z" fill="#F2F2F2"/>
<path d="M518.529 344.081H360.244C356.937 344.077 353.767 342.764 351.429 340.428C349.09 338.093 347.775 334.926 347.772 331.623V249.979C347.775 246.676 349.091 243.51 351.429 241.174C353.767 238.839 356.937 237.525 360.244 237.522H518.529C521.835 237.525 525.005 238.839 527.343 241.175C529.681 243.51 530.996 246.677 531 249.979V331.623C530.996 334.926 529.681 338.092 527.343 340.428C525.005 342.763 521.835 344.077 518.529 344.081Z" fill="#F2F2F2"/>
<path d="M318.783 160.383C317.732 156.546 315.573 153.103 312.576 150.485C309.578 147.866 305.874 146.187 301.927 145.659C301.839 145.646 301.756 145.663 301.669 145.657C301.557 145.621 301.442 145.593 301.326 145.574C282.914 143.072 261.661 152.328 253.987 170.675C250.188 165.386 244.131 161.969 237.652 162.308C229.388 162.742 222.094 169.065 219.859 177.382C219.736 177.882 219.77 178.408 219.956 178.888C220.142 179.369 220.471 179.78 220.899 180.067C222.1 181.142 223.543 181.912 225.105 182.311C228.449 183.056 231.804 183.738 235.172 184.358C241.743 185.566 248.348 186.543 254.988 187.289C268.46 188.807 282.025 189.346 295.576 188.902C300.088 188.754 304.44 188.596 308.574 186.503C311.615 184.912 314.185 182.554 316.031 179.664C317.808 176.818 318.971 173.634 319.445 170.314C319.919 166.994 319.694 163.611 318.783 160.383Z" fill="#3F3D56"/>
<path d="M316.753 161.355C315.758 157.952 313.77 154.922 311.043 152.652C308.207 150.341 304.782 148.868 301.153 148.4H300.933L300.729 148.363C300.664 148.343 300.598 148.327 300.531 148.316C294.459 147.595 288.306 148.035 282.399 149.612C271.045 152.594 260.292 159.657 255.272 171.051L254.555 172.686L253.483 171.26C251.835 169.009 249.687 167.172 247.208 165.89C244.729 164.608 241.986 163.918 239.195 163.873C238.923 163.873 238.651 163.878 238.374 163.894C234.595 164.137 230.984 165.542 228.036 167.917C225.088 170.292 222.949 173.519 221.911 177.157C221.858 177.42 221.889 177.693 222 177.938C222.111 178.183 222.295 178.386 222.528 178.521L222.612 178.583C223.666 179.476 224.914 180.111 226.257 180.438C229.504 181.127 232.81 181.765 236.078 182.334C242.417 183.442 248.923 184.356 255.408 185.051C266.877 186.281 278.411 186.816 289.945 186.654C291.635 186.633 293.32 186.597 295.003 186.545C299.333 186.414 303.428 186.284 307.308 184.419C310.089 183.042 312.464 180.969 314.201 178.401C315.846 175.917 316.926 173.105 317.367 170.16C317.808 167.215 317.598 164.21 316.753 161.355Z" fill="white"/>
<path d="M289.945 186.654C278.411 186.816 266.877 186.281 255.408 185.051C248.923 184.356 242.417 183.442 236.078 182.334C232.81 181.765 229.504 181.127 226.257 180.438C224.914 180.111 223.666 179.476 222.612 178.583L222.528 178.521C222.295 178.386 222.111 178.183 222 177.938C221.889 177.693 221.858 177.42 221.911 177.157C222.949 173.519 225.088 170.292 228.036 167.917C230.984 165.542 234.595 164.137 238.374 163.894C238.651 163.878 238.923 163.873 239.195 163.873C241.986 163.918 244.729 164.608 247.208 165.89C249.687 167.172 251.835 169.009 253.483 171.259L254.555 172.686L255.272 171.051C260.292 159.657 271.045 152.594 282.399 149.612C284.689 151.68 286.164 154.851 285.328 157.792C284.318 161.36 280.323 163.586 279.653 167.232C279.041 170.559 281.426 173.652 283.879 175.982C286.332 178.307 289.171 180.642 289.883 183.943C290.073 184.835 290.094 185.755 289.945 186.654Z" fill="#4B91CB"/>
<path d="M299.804 176.515C305.003 176.515 309.217 172.305 309.217 167.112C309.217 161.919 305.003 157.709 299.804 157.709C294.605 157.709 290.39 161.919 290.39 167.112C290.39 172.305 294.605 176.515 299.804 176.515Z" fill="#3F3D56"/>
<path d="M303.75 166.108L300.22 162.582C300.165 162.528 300.1 162.484 300.029 162.455C299.957 162.425 299.881 162.41 299.804 162.41C299.726 162.41 299.65 162.425 299.578 162.455C299.507 162.484 299.442 162.528 299.388 162.582L295.857 166.108C295.803 166.163 295.759 166.228 295.729 166.299C295.7 166.37 295.684 166.447 295.684 166.524C295.684 166.602 295.699 166.678 295.729 166.749C295.759 166.821 295.802 166.886 295.857 166.94C295.911 166.995 295.976 167.038 296.048 167.068C296.119 167.097 296.196 167.113 296.273 167.112C296.351 167.112 296.427 167.097 296.499 167.067C296.57 167.038 296.635 166.994 296.689 166.94L299.215 164.417V171.226C299.215 171.381 299.277 171.531 299.388 171.641C299.498 171.751 299.648 171.813 299.804 171.813C299.96 171.813 300.109 171.751 300.22 171.641C300.33 171.531 300.392 171.381 300.392 171.226V164.417L302.918 166.94C303.028 167.049 303.178 167.11 303.333 167.11C303.489 167.11 303.638 167.048 303.748 166.938C303.858 166.828 303.92 166.679 303.92 166.524C303.921 166.368 303.859 166.219 303.75 166.108H303.75Z" fill="white"/>
<path d="M470.326 77.3254H414.161C413.017 77.3241 411.92 76.8697 411.111 76.0618C410.303 75.2539 409.848 74.1585 409.846 73.0159V21.7981C409.848 20.6555 410.303 19.5602 411.111 18.7523C411.92 17.9444 413.017 17.49 414.161 17.4887H470.326C471.47 17.49 472.567 17.9444 473.376 18.7523C474.185 19.5602 474.639 20.6555 474.641 21.7981V73.0159C474.639 74.1585 474.185 75.2539 473.376 76.0618C472.567 76.8697 471.47 77.3241 470.326 77.3254Z" fill="white"/>
<path d="M470.327 78.1389H414.161C412.801 78.1374 411.498 77.5971 410.536 76.6368C409.575 75.6764 409.034 74.3742 409.032 73.016V21.7981C409.034 20.4399 409.575 19.1378 410.536 18.1774C411.498 17.217 412.801 16.6768 414.161 16.6753H470.327C471.686 16.6768 472.99 17.217 473.951 18.1774C474.913 19.1378 475.454 20.4399 475.455 21.7981V73.016C475.454 74.3742 474.913 75.6764 473.951 76.6368C472.99 77.5971 471.686 78.1374 470.327 78.1389ZM414.161 18.3022C413.233 18.3033 412.343 18.672 411.687 19.3273C411.031 19.9827 410.662 20.8713 410.661 21.7982V73.0161C410.662 73.9429 411.031 74.8315 411.687 75.4869C412.343 76.1423 413.233 76.511 414.161 76.5121H470.327C471.255 76.511 472.144 76.1423 472.8 75.4869C473.456 74.8315 473.825 73.9429 473.827 73.0161V21.7981C473.825 20.8713 473.456 19.9827 472.8 19.3273C472.144 18.6719 471.255 18.3032 470.327 18.3021L414.161 18.3022Z" fill="#CCCCCC"/>
<path d="M430.709 41.7657C434.575 41.7657 437.71 38.6348 437.71 34.7726C437.71 30.9105 434.575 27.7795 430.709 27.7795C426.842 27.7795 423.708 30.9105 423.708 34.7726C423.708 38.6348 426.842 41.7657 430.709 41.7657Z" fill="#CCCCCC"/>
<path d="M458.694 52.3947H425.792C425.24 52.3947 424.709 52.1754 424.318 51.7848C423.927 51.3943 423.708 50.8646 423.708 50.3124C423.708 49.7601 423.927 49.2304 424.318 48.8399C424.709 48.4494 425.24 48.23 425.792 48.23H458.694C459.247 48.23 459.777 48.4494 460.168 48.8399C460.559 49.2304 460.779 49.7601 460.779 50.3124C460.779 50.8646 460.559 51.3943 460.168 51.7848C459.777 52.1754 459.247 52.3947 458.694 52.3947Z" fill="#CCCCCC"/>
<path d="M441.669 60.6234H425.793C425.24 60.6234 424.709 60.4039 424.318 60.0134C423.927 59.6228 423.708 59.0932 423.708 58.5409C423.708 57.9885 423.927 57.4588 424.318 57.0683C424.709 56.6778 425.24 56.4583 425.793 56.4583H441.669C441.943 56.4578 442.215 56.5113 442.468 56.6157C442.722 56.7201 442.952 56.8734 443.146 57.0668C443.34 57.2603 443.494 57.49 443.599 57.743C443.704 57.9959 443.758 58.267 443.758 58.5409C443.758 58.8147 443.704 59.0858 443.599 59.3387C443.494 59.5917 443.34 59.8214 443.146 60.0149C442.952 60.2083 442.722 60.3616 442.468 60.466C442.215 60.5704 441.943 60.6239 441.669 60.6234Z" fill="#CCCCCC"/>
<path d="M412.99 92.3575C410.066 92.3575 407.208 91.4915 404.777 89.869C402.346 88.2465 400.451 85.9404 399.333 83.2423C398.214 80.5442 397.921 77.5753 398.491 74.711C399.062 71.8468 400.47 69.2158 402.537 67.1507C404.604 65.0857 407.238 63.6794 410.106 63.1097C412.973 62.5399 415.946 62.8323 418.647 63.9499C421.348 65.0675 423.657 66.9601 425.281 69.3883C426.905 71.8165 427.772 74.6713 427.772 77.5917C427.772 81.5078 426.215 85.2635 423.443 88.0327C420.67 90.8018 416.91 92.3575 412.99 92.3575Z" fill="#CCCCCC"/>
<path d="M418.822 76.1351H414.448V71.7654C414.447 71.3797 414.293 71.0101 414.02 70.7377C413.746 70.4653 413.376 70.3123 412.99 70.3123C412.604 70.3123 412.233 70.4653 411.96 70.7377C411.686 71.0101 411.532 71.3797 411.532 71.7654V76.1351H407.157C406.77 76.1351 406.399 76.2886 406.126 76.5617C405.852 76.8349 405.699 77.2054 405.699 77.5917C405.699 77.978 405.852 78.3484 406.126 78.6216C406.399 78.8947 406.77 79.0482 407.157 79.0482H411.532V83.4178C411.532 83.8041 411.685 84.1746 411.959 84.4478C412.232 84.721 412.603 84.8744 412.99 84.8744C413.376 84.8744 413.747 84.721 414.021 84.4478C414.294 84.1746 414.448 83.8041 414.448 83.4178V79.0482H418.822C419.209 79.0482 419.58 78.8947 419.854 78.6216C420.127 78.3484 420.281 77.9779 420.281 77.5916C420.281 77.2053 420.127 76.8349 419.854 76.5617C419.58 76.2885 419.209 76.1351 418.822 76.1351V76.1351Z" fill="white"/>
<path d="M412.008 309.849C411.978 309.849 411.949 309.848 411.919 309.847C411.572 309.834 411.232 309.738 410.93 309.567C410.628 309.395 410.371 309.153 410.183 308.861C408.771 306.753 407.039 304.879 405.048 303.305C403.843 302.343 402.584 301.448 401.366 300.583C398.225 298.352 395.266 296.251 393.624 293.347C390.044 287.016 394.26 278.197 400.284 274.242C407.041 269.806 415.928 269.11 424.526 269.019C425.419 269.01 426.313 269.005 427.208 269.005C442.699 269.011 458.157 270.423 473.392 273.223C478.458 274.157 483.761 275.301 488.022 278.076C492.258 280.835 494.833 285.18 494.582 289.146C494.215 294.935 488.071 299.26 482.477 300.391C477.144 301.468 471.605 300.741 465.741 299.97C464.446 299.8 463.107 299.624 461.784 299.471C447.397 297.81 420.371 302.929 419.227 303.148L418.093 303.365L413.691 309.023C413.494 309.281 413.239 309.489 412.947 309.633C412.654 309.776 412.333 309.85 412.008 309.849Z" fill="white"/>
<path d="M412.008 310.662L411.898 310.661C411.419 310.645 410.951 310.514 410.534 310.278C410.117 310.042 409.763 309.709 409.502 309.307C408.138 307.271 406.464 305.461 404.54 303.941C403.349 302.99 402.101 302.104 400.894 301.247C397.68 298.964 394.646 296.809 392.916 293.747C389.114 287.025 393.512 277.714 399.837 273.562C406.768 269.011 415.795 268.299 424.517 268.206C425.414 268.196 426.311 268.192 427.208 268.192C442.748 268.197 458.256 269.614 473.54 272.423C478.687 273.372 484.079 274.536 488.467 277.394C492.944 280.311 495.664 284.944 495.395 289.197C495.002 295.39 488.529 299.997 482.638 301.189C477.171 302.293 471.567 301.557 465.635 300.776C464.344 300.607 463.01 300.432 461.69 300.278C447.389 298.631 420.518 303.729 419.381 303.948L418.548 304.106L414.334 309.522C414.06 309.877 413.708 310.165 413.305 310.363C412.901 310.561 412.458 310.664 412.008 310.662ZM427.208 269.819C426.316 269.819 425.425 269.823 424.534 269.833C416.06 269.923 407.311 270.602 400.732 274.922C395.009 278.679 390.973 287.005 394.333 292.947C395.886 295.693 398.777 297.746 401.836 299.919C403.063 300.791 404.33 301.691 405.557 302.67C407.614 304.297 409.405 306.235 410.864 308.414C410.982 308.598 411.142 308.75 411.332 308.858C411.521 308.966 411.734 309.026 411.952 309.035L412.008 309.036C412.209 309.037 412.408 308.991 412.589 308.903C412.769 308.814 412.927 308.684 413.048 308.524L417.639 302.624L419.074 302.349C420.22 302.129 447.33 296.98 461.877 298.663C463.205 298.816 464.548 298.992 465.847 299.163C471.641 299.926 477.113 300.646 482.315 299.594C487.613 298.523 493.428 294.479 493.769 289.094C494.002 285.417 491.571 281.359 487.577 278.758C483.441 276.064 478.229 274.941 473.244 274.023C458.058 271.232 442.649 269.824 427.208 269.819H427.208Z" fill="#CCCCCC"/>
<path d="M476.073 281.608H415.266C414.916 281.607 414.58 281.467 414.332 281.22C414.085 280.972 413.946 280.636 413.946 280.286C413.946 279.936 414.085 279.601 414.332 279.353C414.58 279.105 414.916 278.966 415.266 278.965H476.073C476.424 278.966 476.759 279.105 477.007 279.353C477.254 279.601 477.393 279.936 477.393 280.286C477.393 280.636 477.254 280.972 477.007 281.22C476.759 281.467 476.424 281.607 476.073 281.608Z" fill="#CCCCCC"/>
<path d="M476.073 289.72H415.266C415.092 289.72 414.92 289.687 414.759 289.621C414.598 289.554 414.451 289.457 414.328 289.335C414.205 289.212 414.107 289.066 414.04 288.906C413.973 288.745 413.939 288.573 413.938 288.4C413.938 288.226 413.972 288.054 414.039 287.893C414.105 287.732 414.203 287.587 414.326 287.464C414.449 287.341 414.595 287.243 414.756 287.177C414.917 287.111 415.089 287.076 415.263 287.077H476.073C476.424 287.078 476.759 287.217 477.007 287.465C477.254 287.713 477.393 288.048 477.393 288.398C477.393 288.748 477.254 289.084 477.007 289.332C476.759 289.579 476.424 289.719 476.073 289.72Z" fill="#CCCCCC"/>
<path d="M422.352 297.831H415.266C414.915 297.83 414.58 297.691 414.332 297.443C414.085 297.195 413.946 296.86 413.946 296.51C413.946 296.16 414.085 295.824 414.332 295.576C414.58 295.329 414.915 295.189 415.266 295.188H422.352C422.702 295.189 423.038 295.329 423.285 295.576C423.533 295.824 423.672 296.16 423.672 296.51C423.672 296.86 423.533 297.195 423.285 297.443C423.038 297.691 422.702 297.83 422.352 297.831Z" fill="#CCCCCC"/>
<path d="M411.945 324.691C416.81 324.691 420.754 320.752 420.754 315.892C420.754 311.032 416.81 307.093 411.945 307.093C407.079 307.093 403.135 311.032 403.135 315.892C403.135 320.752 407.079 324.691 411.945 324.691Z" fill="white"/>
<path d="M411.945 324.799C410.181 324.799 408.457 324.277 406.991 323.298C405.524 322.319 404.381 320.928 403.706 319.301C403.031 317.673 402.855 315.882 403.199 314.155C403.543 312.427 404.392 310.84 405.639 309.594C406.886 308.348 408.475 307.5 410.205 307.157C411.935 306.813 413.727 306.989 415.357 307.663C416.986 308.337 418.379 309.479 419.359 310.944C420.338 312.408 420.861 314.13 420.861 315.892C420.859 318.254 419.918 320.517 418.247 322.187C416.575 323.857 414.309 324.796 411.945 324.799Z" fill="#CCCCCC"/>
<path d="M411.285 319.409C411.266 319.409 411.247 319.408 411.229 319.407C411.063 319.399 410.9 319.356 410.753 319.279C410.606 319.203 410.477 319.095 410.375 318.964L408.902 317.074C408.809 316.954 408.741 316.818 408.701 316.672C408.661 316.526 408.65 316.374 408.668 316.224C408.687 316.074 408.735 315.929 408.81 315.798C408.885 315.666 408.985 315.551 409.104 315.458L409.157 315.417C409.277 315.324 409.414 315.255 409.559 315.215C409.705 315.175 409.858 315.164 410.008 315.183C410.158 315.201 410.304 315.25 410.435 315.324C410.567 315.399 410.682 315.499 410.775 315.619C410.85 315.714 410.944 315.792 411.051 315.848C411.159 315.904 411.277 315.935 411.398 315.941C411.518 315.947 411.639 315.927 411.751 315.882C411.864 315.837 411.965 315.768 412.048 315.68L415.037 312.528C415.248 312.307 415.538 312.178 415.843 312.17C416.149 312.161 416.445 312.275 416.667 312.484L416.716 312.531C416.826 312.635 416.914 312.759 416.976 312.897C417.038 313.036 417.072 313.184 417.076 313.336C417.08 313.487 417.054 313.637 417 313.778C416.946 313.92 416.864 314.049 416.76 314.158L412.121 319.049C412.014 319.163 411.884 319.253 411.74 319.315C411.596 319.377 411.441 319.409 411.285 319.409Z" fill="white"/>
<path d="M134.233 272.027C133.881 272.029 133.529 272.062 133.183 272.126L127.416 235.659L133.193 200.552C133.557 198.344 133.068 196.08 131.826 194.217C130.584 192.354 128.681 191.031 126.501 190.514C124.321 189.998 122.026 190.326 120.079 191.434C118.132 192.541 116.677 194.344 116.009 196.48C113.843 203.403 112.771 210.621 112.832 217.873L113.034 241.816L128.408 278.586C128.543 279.707 128.999 280.766 129.722 281.635C130.444 282.504 131.403 283.146 132.482 283.483C133.562 283.821 134.716 283.839 135.806 283.537C136.895 283.235 137.874 282.624 138.625 281.779C139.375 280.934 139.865 279.89 140.036 278.774C140.207 277.657 140.051 276.515 139.587 275.484C139.123 274.454 138.371 273.58 137.421 272.966C136.471 272.353 135.364 272.027 134.233 272.027L134.233 272.027Z" fill="#FFB8B8"/>
<path d="M109.75 201.97C109.749 200.143 110.108 198.333 110.807 196.645C111.506 194.956 112.531 193.422 113.824 192.13C115.117 190.837 116.652 189.812 118.342 189.113C120.031 188.413 121.843 188.053 123.672 188.053C125.501 188.053 127.312 188.413 129.002 189.113C130.691 189.812 132.227 190.837 133.519 192.13C134.812 193.422 135.838 194.956 136.537 196.645C137.236 198.333 137.595 200.143 137.593 201.97L128.544 233.854L112.83 233.074L109.75 201.97Z" fill="#2F2E41"/>
<path d="M142.769 481.652L151.754 481.652L156.028 447.034L142.767 447.035L142.769 481.652Z" fill="#FFB8B8"/>
<path d="M167.43 491.768L153.929 482.454V476.378L152.397 476.468L142.772 477.045L139.726 477.224L137.992 497.999L137.935 498.69H144.311L144.441 497.999L145.451 492.679L148.033 497.999L148.367 498.69H165.272C166.279 498.688 167.244 498.289 167.956 497.579C168.669 496.868 169.071 495.905 169.075 494.9C169.076 494.284 168.926 493.677 168.64 493.131C168.353 492.586 167.938 492.118 167.43 491.768Z" fill="#2F2E41"/>
<path d="M88.8828 460.965L96.0222 466.414L120.462 441.501L109.925 433.458L88.8828 460.965Z" fill="#FFB8B8"/>
<path d="M102.329 483.96L97.2628 468.371L100.956 463.543L99.6853 462.685L91.6862 457.306L89.1573 455.601L75.1508 471.056L74.6853 471.571L79.7518 475.438L80.2754 474.968L84.3116 471.353L83.129 477.146L82.9741 477.898L96.4068 488.151C97.2078 488.76 98.2174 489.028 99.2153 488.895C100.213 488.763 101.118 488.242 101.733 487.446C102.108 486.956 102.358 486.383 102.462 485.776C102.566 485.169 102.52 484.545 102.329 483.96Z" fill="#2F2E41"/>
<path d="M125.333 311.422L134.315 338.956C134.315 338.956 137.507 368.337 140.919 374.845C141.557 376.167 141.996 377.576 142.222 379.026C142.32 379.514 142.393 380.026 142.458 380.539C142.589 381.556 142.678 382.605 142.735 383.662C142.906 388.155 142.713 392.655 142.157 397.117C140.545 398.516 139.364 411.132 138.541 426.693C138.452 428.312 138.368 429.958 138.289 431.631C138.126 435.006 137.98 438.471 137.849 441.953C136.913 466.144 137.434 460.971 137.434 460.971C160.203 465.144 159.267 457.62 159.267 457.62C159.267 457.62 167.084 422.732 169.104 406.837C169.348 404.982 169.495 403.795 169.527 403.453C169.617 401.772 169.926 400.109 170.448 398.508C170.889 397.879 171.284 397.218 171.628 396.531C171.63 396.531 171.631 396.531 171.632 396.53C171.633 396.53 171.634 396.529 171.634 396.529C171.635 396.528 171.636 396.527 171.636 396.526C171.636 396.525 171.637 396.524 171.637 396.523C173.247 393.03 174.155 389.254 174.308 385.411C174.423 383.746 174.429 382.075 174.324 380.409C174.196 370.658 175.022 360.918 176.791 351.329C178.217 344.78 177.288 332.123 176.026 321.28C175.513 316.807 174.935 312.642 174.454 309.347C174.43 309.209 174.414 309.071 174.397 308.933C173.778 304.792 173.322 302.124 173.322 302.124C173.322 302.124 175.399 295.015 173.86 292.387C173.151 291.208 173.249 288.426 173.55 285.677C173.925 282.325 174.625 279.202 174.625 279.202L132.336 271.759C131.449 273.231 130.659 274.655 129.885 276.029C115.903 301.84 125.333 311.422 125.333 311.422Z" fill="#2F2E41"/>
<path d="M113.246 193.635C113.717 192.339 114.506 191.182 115.542 190.27C116.578 189.359 117.826 188.722 119.173 188.419C121.169 187.853 123.246 187.626 125.318 187.749C131.382 187.987 135.655 176.591 141.66 177.47C141.66 177.47 147.311 175.455 151.733 179.147C155.75 182.5 158.519 191.622 159.55 191.103C160.038 190.993 160.544 190.993 161.032 191.104C165.183 191.686 168.96 193.813 171.609 197.059C174.257 200.304 175.581 204.429 175.316 208.608L174.879 216.006C174.879 216.006 177.968 220.651 173.485 228.852L176.087 257.78C176.087 257.78 180.423 298.081 173.909 303.816C167.395 309.551 143.399 284.545 143.399 284.545C143.399 284.545 124.965 281.61 126.056 278.206C127.148 274.802 132.873 265.36 132.873 265.36C133.006 264.834 132.99 264.28 132.827 263.762C132.664 263.244 132.36 262.781 131.949 262.426C130.556 261.537 132.117 259.524 132.235 259.34C132.1 259.474 131.043 260.581 130.237 258.25C129.431 255.919 131.916 252.984 131.916 252.984L124.898 237.891L119.374 225.967L118.703 224.592L114.052 215L113.944 214.777C111.489 209.664 110.946 203.843 112.413 198.365C112.897 196.832 113.178 195.241 113.246 193.635Z" fill="#4B91CB"/>
<path d="M98.6465 440.31C115.349 456.318 118.712 449.51 118.712 449.51C118.712 449.51 127.743 439.122 138.541 426.693C142.418 422.235 146.514 417.517 150.504 412.922C156.017 406.569 161.319 400.452 165.537 395.587C170.203 390.194 173.526 386.339 174.308 385.411C174.423 383.746 174.428 382.075 174.324 380.409C174.196 370.658 175.022 360.919 176.791 351.329C178.216 344.781 177.288 332.124 176.026 321.281C174.137 325.209 171.954 329.87 170.146 334.173C168.127 338.964 166.555 343.3 166.311 345.659C165.537 352.923 155.073 364.929 155.073 364.929L154.951 364.954C153.232 365.409 148.387 371.038 142.222 379.026C125.382 400.842 98.6465 440.31 98.6465 440.31Z" fill="#2F2E41"/>
<path d="M235.528 185.963C235.569 186.312 235.642 186.658 235.746 186.994L200.13 196.863L164.554 195.121C162.316 195.011 160.12 195.753 158.408 197.197C156.697 198.641 155.597 200.68 155.331 202.902C155.065 205.125 155.653 207.365 156.975 209.172C158.298 210.978 160.257 212.216 162.458 212.637C169.59 213.999 176.891 214.242 184.097 213.357L207.888 210.435L242.713 190.998C243.814 190.737 244.815 190.164 245.597 189.348C246.379 188.532 246.909 187.507 247.121 186.398C247.334 185.288 247.222 184.141 246.797 183.094C246.372 182.047 245.654 181.145 244.728 180.496C243.802 179.847 242.709 179.479 241.578 179.437C240.448 179.395 239.33 179.679 238.358 180.257C237.386 180.834 236.602 181.68 236.1 182.692C235.597 183.705 235.399 184.84 235.528 185.963L235.528 185.963Z" fill="#FFB8B8"/>
<path d="M168.629 218.224C166.812 218.433 164.972 218.281 163.214 217.779C161.456 217.277 159.813 216.434 158.381 215.298C156.949 214.162 155.756 212.755 154.868 211.158C153.98 209.561 153.417 207.805 153.209 205.99C153.001 204.175 153.153 202.337 153.656 200.581C154.16 198.825 155.005 197.185 156.143 195.755C157.281 194.325 158.69 193.134 160.289 192.248C161.888 191.362 163.647 190.8 165.464 190.593L198.206 195.948L199.216 211.632L168.629 218.224Z" fill="#2F2E41"/>
<path d="M162.923 165.276C160.903 168.966 157.685 171.859 153.799 173.478C149.913 175.097 145.591 175.346 141.544 174.184C137.498 173.021 133.968 170.517 131.537 167.083C129.105 163.65 127.917 159.491 128.168 155.293C128.419 151.095 130.093 147.107 132.916 143.986C135.739 140.865 139.541 138.798 143.697 138.124C147.854 137.451 152.116 138.211 155.781 140.28C159.447 142.349 162.298 145.604 163.865 149.507C163.95 149.719 164.026 149.931 164.102 150.151C164.988 152.612 165.341 155.233 165.138 157.84C164.935 160.447 164.18 162.982 162.923 165.276Z" fill="#FFB6B6"/>
<path d="M165.587 150.151C164.79 147.923 165.137 149.084 164.332 146.864C164.591 147.957 164.511 149.104 164.102 150.151H142.039V137.34C148.503 134.781 154.822 132.603 158.64 137.34C162.041 137.34 165.303 138.69 167.709 141.092C170.114 143.495 171.465 146.753 171.466 150.151H165.587Z" fill="#2F2E41"/>
<path d="M157.766 185.764C157.749 185.527 157.723 185.281 157.689 185.044C157.393 183.304 156.912 181.599 156.256 179.96C155.62 178.172 154.975 176.376 154.33 174.588C155.16 177.833 154.907 181.261 153.609 184.349C149.885 181.451 152.235 174.825 147.366 174.825C135.66 174.825 123.614 165.344 123.614 153.642C123.614 141.949 128.636 133.205 140.342 133.205C152.057 133.205 161.558 138.56 161.787 150.253C147.366 153.642 160.489 184.578 157.766 185.764Z" fill="#2F2E41"/>
<path d="M125.077 151.85C132.573 151.85 138.649 145.78 138.649 138.293C138.649 130.805 132.573 124.736 125.077 124.736C117.581 124.736 111.504 130.805 111.504 138.293C111.504 145.78 117.581 151.85 125.077 151.85Z" fill="#2F2E41"/>
<path d="M4.29129e-06 498.032C-0.000375252 498.159 0.0244253 498.285 0.0729944 498.403C0.121564 498.52 0.192926 498.627 0.282993 498.717C0.373061 498.807 0.480042 498.879 0.597793 498.927C0.715543 498.976 0.841734 499 0.969106 499H229.223C229.48 499 229.726 498.898 229.908 498.716C230.09 498.535 230.192 498.289 230.192 498.032C230.192 497.775 230.09 497.529 229.908 497.348C229.726 497.166 229.48 497.064 229.223 497.064H0.969106C0.841736 497.064 0.715566 497.088 0.597818 497.137C0.480069 497.185 0.373085 497.257 0.283018 497.347C0.192951 497.437 0.121565 497.544 0.0729944 497.661C0.0244237 497.779 -0.000370928 497.905 4.29129e-06 498.032Z" fill="#CCCCCC"/>
</g>
<defs>
<clipPath id="clip0_796_1101">
<rect width="531" height="499" fill="white"/>
</clipPath>
</defs>
</svg>
