<svg width="540" height="426" viewBox="0 0 540 426" fill="none" xmlns="http://www.w3.org/2000/svg">
<g clip-path="url(#clip0_796_1048)">
<path d="M80.0543 301.979C79.6113 301.247 79.0266 300.63 78.3414 300.172C77.6562 299.713 76.8872 299.424 76.0885 299.325C75.2898 299.226 74.4809 299.319 73.7188 299.598C72.9567 299.876 72.2598 300.334 71.6774 300.938L54.3145 291.16L55.3938 302.176L71.7165 309.773C72.7119 310.773 74.0091 311.341 75.3622 311.367C76.7154 311.394 78.0304 310.878 79.0582 309.917C80.0859 308.956 80.755 307.618 80.9386 306.155C81.1222 304.692 80.8076 303.206 80.0543 301.979H80.0543Z" fill="#A0616A"/>
<path d="M64.6239 306.413C64.3098 306.57 63.9688 306.654 63.6231 306.658C63.2775 306.662 62.935 306.586 62.6178 306.437L46.1255 298.63C40.4864 295.962 35.9275 291.15 33.2968 285.089L24.6264 265.119C23.9865 264.222 23.5149 263.197 23.2387 262.101C22.9624 261.005 22.8868 259.86 23.0163 258.732C23.1457 257.604 23.4777 256.515 23.9931 255.527C24.5086 254.54 25.1974 253.672 26.0202 252.975C26.8431 252.278 27.7838 251.765 28.7886 251.465C29.7933 251.165 30.8425 251.084 31.876 251.226C32.9095 251.369 33.9071 251.732 34.8118 252.296C35.7164 252.86 36.5104 253.612 37.1482 254.511L52.3887 285.364L66.4612 296.963C66.864 297.297 67.1632 297.757 67.3184 298.282C67.4735 298.808 67.4772 299.372 67.3288 299.899L65.9475 304.767C65.7992 305.289 65.5085 305.75 65.1144 306.087C64.9633 306.216 64.7986 306.326 64.6239 306.413Z" fill="#CCCCCC"/>
<path d="M24.2447 241.634C31.6617 241.634 37.6744 235.074 37.6744 226.981C37.6744 218.888 31.6617 212.327 24.2447 212.327C16.8277 212.327 10.8151 218.888 10.8151 226.981C10.8151 235.074 16.8277 241.634 24.2447 241.634Z" fill="#A0616A"/>
<path d="M29.6845 419.208L36.3876 419.208L39.577 390.995L29.6829 390.995L29.6845 419.208Z" fill="#A0616A"/>
<path d="M49.3162 425.999L28.2481 426L28.2477 417.118L41.1758 417.118C43.3347 417.118 45.4051 418.053 46.9318 419.719C48.4584 421.384 49.3161 423.643 49.3162 425.999L49.3162 425.999Z" fill="#2F2E41"/>
<path d="M7.81304 419.208L14.5161 419.208L17.7055 390.995L7.8114 390.995L7.81304 419.208Z" fill="#A0616A"/>
<path d="M27.4447 425.999L6.37659 426L6.37622 417.118L19.3044 417.118C21.4632 417.118 23.5337 418.053 25.0603 419.719C26.5869 421.384 27.4446 423.643 27.4447 425.999L27.4447 425.999Z" fill="#2F2E41"/>
<path d="M5.47218 411.133C5.2412 410.845 5.06926 410.507 4.96789 410.14C4.86651 409.774 4.83804 409.389 4.88438 409.009L16.6209 312.963L45.7803 318.366L48.8923 316.329L40.845 407.459C40.7781 408.074 40.5187 408.645 40.1107 409.076C39.7027 409.507 39.171 409.771 38.6053 409.823L29.7759 410.626C29.4249 410.658 29.0716 410.608 28.7401 410.478C28.4085 410.348 28.1064 410.142 27.8541 409.874C27.6018 409.606 27.4053 409.281 27.2778 408.923C27.1503 408.565 27.0947 408.181 27.115 407.797L29.4009 364.398C29.405 364.324 29.3838 364.251 29.3415 364.194C29.2992 364.136 29.2388 364.098 29.172 364.086C29.1052 364.074 29.0367 364.089 28.9798 364.129C28.9229 364.169 28.8817 364.231 28.864 364.302L17.5548 410.063C17.4133 410.633 17.1041 411.136 16.6748 411.494C16.2455 411.853 15.72 412.048 15.1791 412.049H7.32347C6.97285 412.049 6.62627 411.967 6.30698 411.809C5.98769 411.651 5.70306 411.42 5.47218 411.133Z" fill="#2F2E41"/>
<path d="M25.6663 319.686C25.3316 319.355 24.9014 319.163 24.4503 319.143C23.9992 319.122 23.5557 319.275 23.1969 319.574L17.3672 324.521C17.0499 324.791 16.6768 324.972 16.2805 325.048C15.8842 325.124 15.4769 325.093 15.0943 324.957C14.7118 324.821 14.3656 324.585 14.0862 324.269C13.8068 323.953 13.6027 323.567 13.4919 323.145C10.6323 312.218 4.15364 284.712 5.74968 265.353C6.65437 254.38 15.3387 246.04 25.1087 246.74C31.788 247.226 36.1822 251.43 38.1692 259.236C43.048 278.4 48.4096 313.554 49.4348 320.407C49.5158 320.938 49.4475 321.484 49.239 321.973C49.0306 322.462 48.6916 322.87 48.2666 323.145C45.5083 324.951 42.3568 325.919 39.1397 325.947C35.2471 325.947 30.5796 324.468 25.6663 319.686Z" fill="#CCCCCC"/>
<path d="M27.866 326.503C27.9313 325.629 27.8201 324.75 27.5403 323.928C27.2605 323.106 26.8189 322.36 26.2466 321.744C25.6742 321.129 24.9851 320.657 24.2277 320.363C23.4703 320.07 22.6631 319.96 21.8629 320.044L13.7312 300.658L8.34998 310.053L16.897 327.022C17.1145 328.479 17.8145 329.799 18.8642 330.731C19.9139 331.663 21.2405 332.143 22.5926 332.079C23.9446 332.015 25.2283 331.412 26.2002 330.384C27.1721 329.357 27.7648 327.976 27.866 326.503Z" fill="#A0616A"/>
<path d="M13.2164 319.602C12.8802 319.514 12.5648 319.35 12.2905 319.121C12.0163 318.891 11.7894 318.601 11.6246 318.27L3.06235 301.022C0.134189 295.125 -0.731336 288.269 0.626773 281.728L5.09865 260.177C5.10271 259.04 5.31201 257.916 5.71459 256.867C6.11717 255.819 6.70513 254.868 7.44487 254.068C8.1846 253.268 9.06161 252.635 10.0257 252.205C10.9899 251.774 12.0222 251.556 13.0638 251.562C14.1054 251.567 15.1358 251.797 16.096 252.237C17.0562 252.677 17.9275 253.32 18.6601 254.128C19.3926 254.936 19.972 255.893 20.3652 256.945C20.7584 257.998 20.9576 259.125 20.9515 260.261L15.4937 294.801L20.0067 313.404C20.1351 313.937 20.1101 314.501 19.9352 315.019C19.7603 315.536 19.4439 315.983 19.0288 316.298L15.1887 319.198C14.7767 319.509 14.2877 319.676 13.7869 319.676C13.5947 319.676 13.4032 319.651 13.2164 319.602Z" fill="#CCCCCC"/>
<path opacity="0.2" d="M19.862 274.827L14.9409 297.499L22.0492 316.59L17.1281 298.095L19.862 274.827Z" fill="black"/>
<path d="M16.5811 239.031C15.3865 239.055 14.1994 238.82 13.0883 238.341C12.5994 238.135 12.0919 237.966 11.6039 237.761C7.29429 235.944 4.45538 230.936 4.35371 225.896C4.25203 220.856 6.64402 215.965 10.1959 212.741C13.7478 209.517 18.3484 207.862 22.9552 207.479C27.9174 207.067 33.505 208.44 36.2779 212.949C37.0159 214.15 37.5321 215.606 37.0948 217.055C36.9638 217.492 36.7298 217.884 36.4163 218.192C35.178 219.394 33.9435 218.49 32.6811 218.41C30.946 218.301 29.3876 219.833 28.8275 221.628C28.2674 223.423 28.514 225.4 28.9662 227.231C29.3107 228.333 29.5279 229.477 29.6128 230.638C29.6493 231.22 29.549 231.802 29.3214 232.33C29.0938 232.858 28.7464 233.313 28.3122 233.653C27.228 234.368 25.8041 233.955 24.7193 233.241C23.6344 232.527 22.697 231.534 21.5252 231.009C20.3534 230.483 18.779 230.6 18.0969 231.765C17.8802 232.189 17.7335 232.651 17.6635 233.13C17.052 236.17 17.1926 235.991 16.5811 239.031L16.5811 239.031Z" fill="#2F2E41"/>
<path d="M414.101 137.508H82.2007C80.9365 137.509 79.7244 138.058 78.8304 139.033C77.9365 140.008 77.4337 141.331 77.4326 142.71V388.11C77.4337 389.49 77.9365 390.812 78.8304 391.788C79.7244 392.763 80.9365 393.312 82.2007 393.313H414.101C414.79 393.313 415.471 393.15 416.097 392.834C416.723 392.519 417.278 392.059 417.726 391.487C417.764 391.442 417.798 391.394 417.83 391.344C418.114 390.964 418.345 390.54 418.513 390.085C418.753 389.46 418.876 388.788 418.874 388.11V235.347H417.512V388.11C417.513 388.836 417.317 389.546 416.949 390.151C416.622 390.683 416.179 391.118 415.659 391.416C415.177 391.687 414.643 391.828 414.101 391.827H82.2007C81.2976 391.826 80.4317 391.434 79.793 390.737C79.1544 390.04 78.7951 389.096 78.794 388.11V142.71C78.7951 141.725 79.1544 140.78 79.793 140.083C80.4317 139.387 81.2976 138.995 82.2007 138.994H414.101C415.005 138.993 415.872 139.385 416.511 140.082C417.151 140.779 417.511 141.724 417.512 142.71V175.685H418.874V142.71C418.872 141.33 418.369 140.007 417.474 139.031C416.579 138.056 415.366 137.508 414.101 137.508Z" fill="#3F3D56"/>
<path d="M418.189 158.361H78.1113V159.849H418.189V158.361Z" fill="#3F3D56"/>
<path d="M89.6971 153.126C91.9555 153.126 93.7863 151.129 93.7863 148.665C93.7863 146.2 91.9555 144.203 89.6971 144.203C87.4388 144.203 85.608 146.2 85.608 148.665C85.608 151.129 87.4388 153.126 89.6971 153.126Z" fill="#CCCCCC"/>
<path d="M101.453 153.126C103.712 153.126 105.542 151.129 105.542 148.665C105.542 146.2 103.712 144.203 101.453 144.203C99.1949 144.203 97.3641 146.2 97.3641 148.665C97.3641 151.129 99.1949 153.126 101.453 153.126Z" fill="#CCCCCC"/>
<path d="M113.209 153.126C115.468 153.126 117.299 151.129 117.299 148.665C117.299 146.2 115.468 144.203 113.209 144.203C110.951 144.203 109.12 146.2 109.12 148.665C109.12 151.129 110.951 153.126 113.209 153.126Z" fill="#CCCCCC"/>
<path d="M195.343 363.234C193.935 363.227 192.552 362.837 191.317 362.099C190.082 361.361 189.036 360.299 188.272 359.009C187.509 357.719 187.052 356.241 186.944 354.71C186.835 353.178 187.079 351.642 187.652 350.239L197.393 326.523C189.721 319.119 183.581 310.017 179.382 299.823C175.183 289.63 173.021 278.577 173.039 267.401C173.039 223.738 205.595 188.214 245.612 188.214C285.63 188.214 318.185 223.738 318.185 267.401C318.185 311.064 285.63 346.588 245.612 346.588C238.612 346.58 231.65 345.461 224.945 343.266L200.082 361.632C198.685 362.672 197.034 363.23 195.343 363.234ZM245.612 199.264C232.661 199.255 220.028 203.644 209.465 211.82C198.902 219.997 190.932 231.556 186.659 244.897C182.387 258.237 182.024 272.697 185.62 286.273C189.217 299.849 196.595 311.867 206.732 320.662L209.801 323.333L199.319 348.852L223.373 331.084L225.748 331.954C234.328 335.1 243.432 336.171 252.43 335.096C261.427 334.02 270.102 330.822 277.855 325.724C285.607 320.627 292.25 313.75 297.325 305.572C302.399 297.395 305.783 288.11 307.242 278.364C308.702 268.617 308.201 258.64 305.775 249.125C303.349 239.611 299.056 230.785 293.193 223.261C287.331 215.736 280.039 209.693 271.823 205.549C263.607 201.406 254.663 199.261 245.612 199.264Z" fill="#3F3D56"/>
<path d="M245.612 274.767C251.205 274.767 255.739 269.82 255.739 263.718C255.739 257.616 251.205 252.669 245.612 252.669C240.02 252.669 235.486 257.616 235.486 263.718C235.486 269.82 240.02 274.767 245.612 274.767Z" fill="#3F3D56"/>
<path d="M216.92 274.767C222.513 274.767 227.047 269.82 227.047 263.718C227.047 257.616 222.513 252.669 216.92 252.669C211.328 252.669 206.794 257.616 206.794 263.718C206.794 269.82 211.328 274.767 216.92 274.767Z" fill="#3F3D56"/>
<path d="M274.304 274.767C279.897 274.767 284.431 269.82 284.431 263.718C284.431 257.616 279.897 252.669 274.304 252.669C268.711 252.669 264.177 257.616 264.177 263.718C264.177 269.82 268.711 274.767 274.304 274.767Z" fill="#3F3D56"/>
<path d="M500.262 219.985H404.028C402.867 219.985 401.755 219.482 400.935 218.587C400.114 217.692 399.653 216.478 399.653 215.212C399.653 213.946 400.114 212.732 400.935 211.837C401.755 210.942 402.867 210.439 404.028 210.439H500.262C501.422 210.439 502.535 210.942 503.355 211.837C504.176 212.732 504.637 213.946 504.637 215.212C504.637 216.478 504.176 217.692 503.355 218.587C502.535 219.482 501.422 219.985 500.262 219.985Z" fill="#CCCCCC"/>
<path d="M437.382 199.7H404.028C402.867 199.7 401.755 199.197 400.935 198.302C400.114 197.407 399.653 196.193 399.653 194.927C399.653 193.661 400.114 192.447 400.935 191.552C401.755 190.657 402.867 190.154 404.028 190.154H437.382C438.542 190.154 439.654 190.657 440.475 191.552C441.295 192.447 441.756 193.661 441.756 194.927C441.756 196.193 441.295 197.407 440.475 198.302C439.654 199.197 438.542 199.7 437.382 199.7Z" fill="#CCCCCC"/>
<path d="M360.44 225.801C370.707 225.801 379.03 216.719 379.03 205.516C379.03 194.313 370.707 185.231 360.44 185.231C350.172 185.231 341.849 194.313 341.849 205.516C341.849 216.719 350.172 225.801 360.44 225.801Z" fill="#4B91CB"/>
<path d="M509.908 174.492H336.577C334.113 174.496 331.75 175.566 330.008 177.467C328.265 179.368 327.285 181.946 327.281 184.635V226.398C327.285 229.086 328.265 231.664 330.008 233.565C331.75 235.466 334.113 236.536 336.577 236.54H509.908C512.373 236.536 514.735 235.466 516.477 233.565C518.22 231.664 519.2 229.086 519.204 226.398V184.635C519.2 181.946 518.22 179.368 516.477 177.467C514.735 175.566 512.373 174.496 509.908 174.492ZM518.11 226.398C518.108 228.77 517.243 231.045 515.705 232.722C514.168 234.4 512.083 235.344 509.908 235.347H336.577C334.402 235.344 332.318 234.4 330.78 232.722C329.243 231.045 328.378 228.77 328.375 226.398V184.635C328.378 182.262 329.243 179.987 330.78 178.31C332.318 176.632 334.402 175.688 336.577 175.685H509.908C512.083 175.688 514.168 176.632 515.705 178.31C517.243 179.987 518.108 182.262 518.11 184.635V226.398Z" fill="#3F3D56"/>
<path d="M518.11 191.197C525.056 191.197 530.686 185.054 530.686 177.475C530.686 169.897 525.056 163.753 518.11 163.753C511.165 163.753 505.534 169.897 505.534 177.475C505.534 185.054 511.165 191.197 518.11 191.197Z" fill="#4B91CB"/>
<path d="M517.724 185.192C517.673 185.137 517.632 185.071 517.605 184.999C517.577 184.927 517.563 184.849 517.563 184.771V169.583C517.563 169.425 517.621 169.273 517.724 169.161C517.826 169.05 517.965 168.987 518.11 168.987C518.255 168.987 518.394 169.05 518.497 169.161C518.599 169.273 518.657 169.425 518.657 169.583V184.771C518.657 184.889 518.625 185.004 518.565 185.102C518.505 185.2 518.419 185.277 518.319 185.322C518.22 185.367 518.11 185.379 518.004 185.356C517.897 185.333 517.8 185.276 517.724 185.192Z" fill="white"/>
<path d="M510.764 177.599C510.688 177.515 510.636 177.409 510.614 177.293C510.593 177.178 510.604 177.058 510.646 176.949C510.687 176.84 510.757 176.746 510.847 176.681C510.937 176.615 511.043 176.58 511.151 176.58H525.07C525.215 176.58 525.354 176.643 525.456 176.755C525.559 176.867 525.616 177.019 525.616 177.177C525.616 177.335 525.559 177.487 525.456 177.599C525.354 177.711 525.215 177.773 525.07 177.773H511.151C511.079 177.774 511.008 177.758 510.941 177.728C510.875 177.698 510.815 177.654 510.764 177.599Z" fill="white"/>
<path d="M533.165 359.864H506.914C506.914 360.688 479.859 361.356 479.859 361.356C479.434 361.705 479.047 362.105 478.705 362.549C477.678 363.886 477.116 365.577 477.119 367.322V368.515C477.12 370.493 477.84 372.389 479.122 373.788C480.404 375.186 482.142 375.972 483.954 375.973H533.165C534.977 375.971 536.715 375.185 537.996 373.787C539.278 372.389 539.998 370.493 540 368.515V367.322C539.997 365.345 539.277 363.45 537.995 362.052C536.714 360.654 534.977 359.867 533.165 359.864Z" fill="#3F3D56"/>
<path d="M512.385 375.677H505.276V425.792H512.385V375.677Z" fill="#3F3D56"/>
<path d="M532.616 425.52C532.616 426.358 521.844 425.844 508.557 425.844C495.27 425.844 484.498 426.358 484.498 425.52C484.498 424.682 495.27 418.036 508.557 418.036C521.844 418.036 532.616 424.682 532.616 425.52Z" fill="#3F3D56"/>
<path d="M511.111 292.705C519.567 292.705 526.421 285.225 526.421 275.999C526.421 266.773 519.567 259.294 511.111 259.294C502.656 259.294 495.801 266.773 495.801 275.999C495.801 285.225 502.656 292.705 511.111 292.705Z" fill="#2F2E41"/>
<path d="M473.011 418.928L466.307 418.928L463.118 390.715L473.012 390.716L473.011 418.928Z" fill="#FFB8B8"/>
<path d="M461.519 416.838H474.447V425.72H453.379C453.379 423.364 454.237 421.105 455.763 419.439C457.29 417.774 459.36 416.838 461.519 416.838Z" fill="#2F2E41"/>
<path d="M462.546 414.846L456.151 412.656L460.849 384.695L470.288 387.928L462.546 414.846Z" fill="#FFB8B8"/>
<path d="M452.155 409.098L464.49 413.321L462.053 421.795L441.952 414.912C442.598 412.665 444.036 410.79 445.95 409.699C447.863 408.609 450.096 408.392 452.155 409.098Z" fill="#2F2E41"/>
<path d="M515.212 354.974C515.057 353.552 514.779 352.15 514.381 350.786L513.129 349.067L509.87 344.605L509.728 344.611C509.487 344.623 508.487 344.682 506.939 344.813H506.923C505.966 344.897 504.796 345.004 503.467 345.142C503.117 345.183 502.751 345.219 502.374 345.261V351.49H509.208C509.541 351.49 509.861 351.622 510.111 351.861C510.36 352.101 510.521 352.431 510.564 352.79C510.57 352.856 510.575 352.915 510.575 352.981C510.575 353.377 510.431 353.756 510.175 354.036C509.919 354.315 509.571 354.472 509.208 354.473H469.512C469.006 354.839 468.52 355.237 468.057 355.666C466.659 356.847 465.651 358.493 465.186 360.355C462.868 371.476 458.642 392.215 457.395 398.306C457.304 398.765 457.325 399.242 457.454 399.689C457.584 400.137 457.818 400.54 458.133 400.86C458.366 401.096 458.639 401.281 458.937 401.402L463.869 403.419C464.072 403.501 464.283 403.555 464.498 403.58C464.525 403.58 464.547 403.586 464.574 403.586C464.625 403.591 464.676 403.593 464.727 403.592C465.226 403.59 465.712 403.423 466.123 403.115C466.534 402.806 466.85 402.369 467.029 401.862L470.922 390.717L476.921 373.534L479.294 366.739C482.044 367.443 505.119 373.015 512.845 364.036C513.607 363.152 514.208 362.117 514.616 360.988C515.266 359.067 515.471 357.001 515.212 354.974Z" fill="#2F2E41"/>
<path d="M521.905 356.597C521.784 356.066 521.648 355.517 521.489 354.962L516.978 348.781L516.836 348.787C516.552 348.805 515.201 348.882 513.129 349.067C510.778 349.282 507.491 349.628 503.801 350.171C503.691 350.183 503.577 350.201 503.467 350.219C503.106 350.272 502.74 350.326 502.374 350.386V351.49H509.208C509.541 351.49 509.861 351.622 510.111 351.861C510.36 352.101 510.521 352.431 510.564 352.79C510.57 352.856 510.575 352.915 510.575 352.981C510.575 353.377 510.431 353.756 510.175 354.036C509.918 354.315 509.571 354.472 509.208 354.473H485.051C483.996 354.848 482.979 355.242 482.006 355.666C476.899 357.873 473.077 360.767 472.295 364.532C472.032 365.796 471.742 367.186 471.436 368.666C470.299 374.167 468.916 380.903 467.663 387.024V387.03C467.406 388.295 467.15 389.524 466.903 390.717C465.859 395.848 464.973 400.197 464.503 402.482C464.492 402.548 464.481 402.608 464.47 402.673V402.685C464.416 403.147 464.468 403.617 464.623 404.051L464.629 404.057V404.063C464.779 404.479 465.024 404.847 465.34 405.131C465.551 405.321 465.789 405.472 466.045 405.579L470.977 407.595C471.252 407.707 471.542 407.766 471.835 407.768C472.246 407.769 472.651 407.656 473.011 407.44C473.528 407.134 473.927 406.637 474.137 406.038L484.756 375.634L486.402 370.915C489.152 371.619 512.227 377.186 519.953 368.213C521.479 366.41 522.35 364.062 522.402 361.608C522.456 359.92 522.289 358.233 521.905 356.597Z" fill="#2F2E41"/>
<path d="M521.298 303.963C521.21 303.85 521.117 303.736 521.019 303.629C519.563 301.958 517.764 300.688 515.771 299.922C513.778 299.155 511.647 298.915 509.553 299.22C507.726 299.482 505.916 299.87 504.134 300.383C501.833 301.029 499.726 302.318 498.021 304.124C496.693 305.529 495.647 307.22 494.95 309.089C494.252 310.958 493.919 312.965 493.969 314.983C493.991 315.8 493.997 316.635 493.986 317.482C493.986 317.876 493.98 318.276 493.975 318.676H499.366C499.6 318.675 499.833 318.705 500.061 318.765C500.719 318.937 501.304 319.345 501.724 319.924C502.144 320.503 502.372 321.219 502.374 321.957V349.712C502.74 349.825 503.106 349.938 503.467 350.058C503.582 350.099 503.691 350.135 503.801 350.171C503.926 350.213 504.052 350.254 504.173 350.296C505.282 350.672 506.367 351.07 507.426 351.489H509.208C509.541 351.49 509.861 351.622 510.111 351.861C510.36 352.101 510.521 352.431 510.564 352.79C510.936 352.951 511.297 353.112 511.652 353.273C512.916 353.846 514.113 354.419 515.212 354.974C516.694 355.713 518.012 356.417 519.116 357.032C519.464 357.225 519.847 357.327 520.237 357.33C520.749 357.328 521.247 357.149 521.659 356.817C521.744 356.748 521.826 356.675 521.905 356.596C522.197 356.297 522.419 355.924 522.549 355.511C522.68 355.097 522.716 354.654 522.654 354.222C522.089 349.535 521.925 344.802 522.162 340.082C522.315 336.115 522.643 332.046 523.07 328.114C523.299 325.984 523.556 323.896 523.824 321.885C524.081 319.964 524.355 318.121 524.622 316.379C524.974 314.17 524.857 311.902 524.281 309.75C523.704 307.598 522.684 305.618 521.298 303.963Z" fill="#4B91CB"/>
<path d="M498.885 304.452C498.605 304.321 498.316 304.211 498.021 304.124C496.564 303.696 495.014 303.854 493.655 304.569C492.296 305.285 491.218 306.509 490.618 308.02L486.861 317.482L486.391 318.676H499.366C499.6 318.675 499.833 318.705 500.061 318.765L500.498 317.661L502.16 313.473C502.82 311.803 502.846 309.915 502.232 308.224C501.618 306.532 500.415 305.176 498.885 304.452Z" fill="#4B91CB"/>
<path d="M510.551 294.561C517.968 294.561 523.981 288.001 523.981 279.908C523.981 271.815 517.968 265.254 510.551 265.254C503.134 265.254 497.122 271.815 497.122 279.908C497.122 288.001 503.134 294.561 510.551 294.561Z" fill="#FFB8B8"/>
<path d="M496.88 272.708C503.241 276.945 510.413 279.524 517.836 280.243L515.627 277.355C517.236 278.004 518.928 278.37 520.642 278.441C522.353 278.412 524.146 277.693 525.118 276.155C525.551 275.391 525.808 274.523 525.868 273.627C525.928 272.73 525.788 271.831 525.46 271.007C524.787 269.362 523.739 267.932 522.416 266.854C520.072 264.83 517.305 263.471 514.362 262.897C511.42 262.324 508.392 262.553 505.551 263.565C503.602 264.201 501.856 265.423 500.514 267.091C499.24 268.805 496.789 270.331 497.441 272.42L496.88 272.708Z" fill="#2F2E41"/>
<path d="M512.809 260.883C508.574 256.196 503.448 252.58 497.793 250.288C494.163 248.82 490.212 247.914 486.417 248.747C482.622 249.58 479.033 252.445 477.974 256.508C477.109 259.83 478.003 263.407 479.346 266.534C480.69 269.661 482.483 272.561 483.57 275.805C484.678 279.116 485.012 282.675 484.54 286.162C484.068 289.648 482.805 292.95 480.867 295.769C478.928 298.588 476.375 300.834 473.439 302.303C470.504 303.772 467.278 304.418 464.056 304.182C467.784 304.727 471.221 306.639 474.866 307.657C478.511 308.675 482.812 308.606 485.521 305.757C488.386 302.742 488.444 297.841 488.305 293.501C488.099 287.048 487.893 280.596 487.687 274.144C487.582 270.853 487.493 267.457 488.58 264.386C489.668 261.314 492.253 258.625 495.27 258.653C497.557 258.674 499.581 260.186 501.415 261.676C503.249 263.167 505.19 264.758 507.468 264.98C509.746 265.201 512.347 263.362 512.177 260.873L512.809 260.883Z" fill="#2F2E41"/>
<path d="M523.824 321.886L516.158 322.112L515.6 327.989L515.475 329.349L503.467 335.232L502.374 335.769V346.227L503.467 345.887L506.923 344.813H506.939L522.162 340.082L522.337 340.029C523.567 339.641 524.649 338.831 525.424 337.718C526.198 336.606 526.623 335.251 526.635 333.854L526.673 326.915L526.706 321.802L523.824 321.886Z" fill="#FFB8B8"/>
<path d="M526.318 310.263C526.215 308.447 525.456 306.749 524.206 305.544C522.957 304.338 521.32 303.723 519.655 303.835C517.99 303.946 516.434 304.775 515.329 306.138C514.224 307.502 513.661 309.288 513.763 311.105L514.6 325.996C514.622 326.388 514.724 326.77 514.897 327.114C515.07 327.459 515.31 327.757 515.6 327.989C516.063 328.365 516.633 328.549 517.208 328.508L523.07 328.114L524.847 327.995C525.17 327.977 525.487 327.889 525.779 327.734C526.07 327.579 526.33 327.361 526.542 327.094C526.589 327.037 526.632 326.978 526.673 326.915C527.02 326.407 527.191 325.781 527.154 325.149L526.318 310.263Z" fill="#4B91CB"/>
<path d="M504.173 350.296H503.467V350.219C503.106 350.272 502.74 350.326 502.374 350.386V351.49H507.426C506.365 351.072 505.281 350.674 504.173 350.296ZM504.173 350.296H503.467V350.219C503.106 350.272 502.74 350.326 502.374 350.386V351.49H507.426C506.365 351.072 505.281 350.674 504.173 350.296ZM509.208 350.296H503.467V321.957C503.465 320.987 503.175 320.044 502.639 319.269C502.104 318.494 501.352 317.93 500.498 317.661C500.131 317.541 499.75 317.48 499.366 317.482H450.702C449.615 317.484 448.573 317.956 447.804 318.795C447.035 319.633 446.603 320.771 446.601 321.957V351.191C446.602 352.378 447.034 353.516 447.803 354.355C448.572 355.194 449.615 355.665 450.702 355.666H509.208C509.814 355.665 510.398 355.42 510.849 354.979C511.3 354.537 511.586 353.93 511.652 353.273C511.664 353.176 511.669 353.079 511.669 352.981C511.668 352.269 511.408 351.587 510.947 351.084C510.486 350.581 509.861 350.297 509.208 350.296ZM510.575 352.981C510.575 353.377 510.431 353.756 510.175 354.036C509.919 354.315 509.571 354.472 509.208 354.473H450.702C449.905 354.472 449.14 354.126 448.576 353.511C448.012 352.896 447.695 352.061 447.695 351.191V321.957C447.695 321.087 448.012 320.253 448.576 319.637C449.14 319.022 449.905 318.676 450.702 318.676H499.366C499.6 318.675 499.833 318.705 500.061 318.765C500.719 318.937 501.304 319.345 501.724 319.924C502.144 320.503 502.372 321.219 502.374 321.957V351.49H509.208C509.541 351.49 509.861 351.622 510.111 351.861C510.36 352.101 510.521 352.431 510.564 352.79C510.57 352.856 510.575 352.915 510.575 352.981ZM504.173 350.296H503.467V350.219C503.106 350.272 502.74 350.326 502.374 350.386V351.49H507.426C506.365 351.072 505.281 350.674 504.173 350.296Z" fill="#3F3D56"/>
<path d="M475.033 340.155C476.844 340.155 478.313 338.552 478.313 336.575C478.313 334.598 476.844 332.995 475.033 332.995C473.221 332.995 471.752 334.598 471.752 336.575C471.752 338.552 473.221 340.155 475.033 340.155Z" fill="#4B91CB"/>
<path d="M193.137 57.6206C193.072 57.5496 193.02 57.4652 192.985 57.3723C192.949 57.2794 192.931 57.1798 192.931 57.0792V37.592C192.931 37.389 193.005 37.1943 193.137 37.0507C193.268 36.9072 193.447 36.8265 193.633 36.8265C193.819 36.8265 193.997 36.9072 194.129 37.0507C194.261 37.1943 194.334 37.389 194.334 37.592V57.0792C194.334 57.2306 194.293 57.3786 194.216 57.5045C194.139 57.6304 194.03 57.7285 193.901 57.7864C193.773 57.8444 193.632 57.8595 193.496 57.83C193.36 57.8005 193.235 57.7276 193.137 57.6206H193.137Z" fill="white"/>
</g>
<defs>
<clipPath id="clip0_796_1048">
<rect width="540" height="426" fill="white"/>
</clipPath>
</defs>
</svg>
