<svg width="494" height="325" viewBox="0 0 494 325" fill="none" xmlns="http://www.w3.org/2000/svg">
<g clip-path="url(#clip0_796_873)">
<path d="M31.2903 271.43L29.7494 280.853C29.6333 281.573 29.5119 282.306 29.38 283.033C28.0921 282.708 26.7568 282.799 25.5067 283.297C26.4985 285.024 27.3873 286.836 28.1663 288.719C27.1953 292.366 25.7705 295.736 23.3853 298.174C21.7922 299.765 19.8895 300.83 17.8607 301.265C15.8318 301.7 13.7452 301.49 11.8022 300.656L11.8708 300.283C9.30615 294.218 10.6993 286.571 13.8866 280.968C15.5123 278.205 17.4384 275.723 19.6122 273.591C21.7652 271.404 24.0924 269.442 26.3985 267.506C26.9164 267.072 27.5288 266.836 28.1573 266.828C28.7859 266.821 29.4021 267.041 29.9272 267.463C30.4523 267.884 30.8625 268.486 31.1053 269.193C31.3481 269.9 31.4125 270.678 31.2903 271.43Z" fill="#E4E4E4"/>
<path d="M12.351 323.329C11.7024 317.57 11.0354 311.738 11.4903 305.918C11.8945 300.75 13.1879 295.701 15.8222 291.562C17.2204 289.368 18.9217 287.489 20.8496 286.009C21.3525 285.623 21.8148 286.594 21.3145 286.978C17.9788 289.548 15.3987 293.342 13.9462 297.814C12.342 302.787 12.0845 308.209 12.3631 313.491C12.5304 316.686 12.8845 319.859 13.2417 323.03C13.2705 323.173 13.2532 323.324 13.1933 323.453C13.1335 323.581 13.0357 323.677 12.9198 323.72C12.802 323.759 12.6764 323.74 12.5703 323.666C12.4642 323.593 12.3861 323.471 12.3531 323.328L12.351 323.329Z" fill="#F2F2F2"/>
<path d="M17.9167 34.4967C40.5221 34.0176 63.1299 33.9488 85.7402 34.2902C108.347 34.6337 130.947 35.3893 153.538 36.5569C166.216 37.2122 178.888 37.9972 191.555 38.9119C192.572 38.9853 192.569 37.0555 191.555 36.9824C168.985 35.3546 146.399 34.1366 123.797 33.3284C101.198 32.5223 78.5926 32.1284 55.9805 32.1467C43.2919 32.157 30.6039 32.2971 17.9167 32.5671C16.8992 32.5887 16.8959 34.5183 17.9167 34.4967V34.4967Z" fill="#E6E6E6"/>
<path d="M175.455 22.3978L185.34 21.5011C186.349 21.4095 186.358 19.4792 185.34 19.5716L175.455 20.4682C174.445 20.5599 174.437 22.4902 175.455 22.3978Z" fill="#E6E6E6"/>
<path d="M175.455 33.9752L185.34 33.0785C186.349 32.9869 186.358 31.0566 185.34 31.149L175.455 32.0456C174.445 32.1372 174.437 34.0676 175.455 33.9752Z" fill="#E6E6E6"/>
<path d="M174.711 28.6881L188.765 30.2443C189.78 30.3566 189.773 28.4263 188.765 28.3147L174.711 26.7585C173.697 26.6462 173.703 28.5764 174.711 28.6881Z" fill="#E6E6E6"/>
<path d="M23.7667 19.8028C23.0793 19.7976 22.4059 20.0392 21.8304 20.4973C21.2548 20.9554 20.8027 21.6099 20.5302 22.3791C20.2255 23.132 20.1314 23.9858 20.2624 24.81C20.3934 25.6342 20.7422 26.3834 21.2556 26.9431C21.7382 27.4435 22.3171 27.7867 22.9381 27.9404C23.559 28.0942 24.2018 28.0535 24.8064 27.8223C25.4247 27.5591 25.9609 27.0688 26.3411 26.4188C26.7213 25.7689 26.9269 24.9913 26.9296 24.193C26.9572 23.3074 26.7603 22.4329 26.3658 21.6885C25.9713 20.944 25.3982 20.3657 24.7245 20.0322C24.5221 19.9652 24.3062 19.9984 24.1238 20.1247C23.9414 20.2509 23.8073 20.4599 23.7508 20.7061C23.7009 20.9525 23.7304 21.213 23.8332 21.4337C23.9361 21.6545 24.1045 21.8188 24.3037 21.8929C24.4416 21.9578 24.1777 21.8102 24.3065 21.8957C24.3594 21.9309 24.4134 21.9627 24.4654 22.0002C24.5096 22.0322 24.5519 22.0671 24.5949 22.1013C24.7427 22.2189 24.5228 22.015 24.6173 22.1207C24.6992 22.2123 24.7803 22.3017 24.8548 22.4028C24.8829 22.4411 24.9932 22.5474 24.9075 22.4731C24.8419 22.4162 24.8822 22.4296 24.9075 22.4752C24.9266 22.5099 24.9469 22.5436 24.9659 22.5784C25.0276 22.6923 25.0837 22.8105 25.1339 22.9324C25.1455 22.9606 25.1561 22.9895 25.168 23.0176C25.1901 23.0702 25.2223 23.084 25.1701 23.0181C25.1204 22.9551 25.1521 22.9594 25.1699 23.02C25.1816 23.0599 25.1944 23.0992 25.2058 23.1392C25.2429 23.2693 25.274 23.4019 25.2991 23.5362C25.3107 23.5983 25.32 23.6608 25.33 23.7233C25.3653 23.9448 25.3248 23.5855 25.3334 23.7501C25.3405 23.8875 25.3488 24.0235 25.3469 24.1614C25.346 24.2245 25.3437 24.2876 25.3401 24.3506C25.3383 24.382 25.3354 24.4133 25.3337 24.4447C25.3255 24.5961 25.3253 24.3894 25.3426 24.3753C25.3065 24.5038 25.2824 24.6369 25.2711 24.7721C25.2569 24.8321 25.2401 24.8908 25.2243 24.9501C25.1692 25.1571 25.276 24.8372 25.2173 24.9787C25.169 25.1003 25.115 25.2183 25.0556 25.3323C25.0298 25.38 24.9326 25.4879 25.0121 25.4128C25.0984 25.3314 24.9668 25.4716 24.9388 25.5077C24.9027 25.554 24.8653 25.5988 24.8265 25.6419C24.8017 25.6715 24.7755 25.6992 24.748 25.7251C24.743 25.722 24.8803 25.6133 24.8063 25.6708C24.7122 25.744 24.6232 25.8222 24.524 25.8858C24.5125 25.8932 24.3858 25.9648 24.3863 25.9673C24.3808 25.9413 24.5492 25.8951 24.4336 25.9406C24.4094 25.9501 24.3855 25.9617 24.3614 25.9716C24.2561 26.0148 24.1487 26.0497 24.0398 26.076C24.0149 26.0821 23.9885 26.0852 23.964 26.0929C23.8821 26.1187 24.0421 26.0778 24.047 26.0811C23.9865 26.078 23.9259 26.0845 23.8668 26.1006C23.7545 26.1084 23.6419 26.1084 23.5296 26.1005C23.5036 26.0987 23.4777 26.0956 23.4517 26.0937C23.3914 26.0895 23.3471 26.0365 23.4274 26.094C23.4893 26.1384 23.4842 26.106 23.4293 26.0936C23.4037 26.0879 23.3779 26.083 23.3522 26.0771C23.2411 26.0518 23.1311 26.0189 23.0229 25.9788C22.9647 25.9572 22.9077 25.932 22.8502 25.9076C22.8252 25.8987 22.8009 25.8873 22.7774 25.8734C22.7771 25.8655 22.9255 25.9598 22.8471 25.9084C22.7482 25.8434 22.646 25.789 22.5494 25.718C22.4979 25.6801 22.4484 25.6389 22.3983 25.5984C22.3763 25.5822 22.3554 25.5639 22.3357 25.5437C22.3373 25.5355 22.4584 25.6723 22.3949 25.5984C22.3145 25.5051 22.2285 25.4215 22.1524 25.3221C22.135 25.2994 22.1185 25.2756 22.1012 25.2528L22.0844 25.2294C22.0415 25.1655 22.0407 25.1658 22.082 25.2303C22.1239 25.2454 22.122 25.3015 22.0822 25.2286C22.068 25.2026 22.053 25.1774 22.0388 25.1514C21.9745 25.0398 21.9197 24.9204 21.8752 24.7953C21.879 24.7916 21.9438 25.0274 21.8943 24.8495C21.8849 24.8159 21.8744 24.7828 21.8652 24.7491C21.8471 24.6823 21.831 24.6147 21.8172 24.5463C21.8035 24.4787 21.7965 24.4088 21.7827 24.3414C21.7595 24.2278 21.7963 24.4311 21.7921 24.426C21.7789 24.4101 21.7845 24.3116 21.7835 24.288C21.7772 24.1366 21.7914 23.9897 21.7936 23.8392C21.7953 23.7226 21.7857 23.93 21.7837 23.924C21.7841 23.889 21.7892 23.8545 21.7987 23.8215C21.813 23.7421 21.8264 23.6629 21.8439 23.5844C21.864 23.4945 21.8871 23.4057 21.9133 23.3181C21.923 23.2853 21.935 23.253 21.944 23.2199C21.9774 23.0987 21.8781 23.3662 21.9328 23.257C22.0081 23.1067 22.0642 22.944 22.1442 22.7956C22.1631 22.7604 22.2783 22.5644 22.2172 22.6633C22.1563 22.7619 22.2798 22.5751 22.3031 22.5434C22.4002 22.4116 22.5144 22.3034 22.6149 22.1772C22.6744 22.1025 22.5734 22.214 22.5674 22.2192C22.5986 22.1921 22.6291 22.1639 22.6606 22.1375C22.7155 22.0913 22.7718 22.0476 22.8295 22.0065C22.8944 21.9601 22.9679 21.9256 23.0308 21.8765C23.1051 21.8185 22.9739 21.9019 22.9716 21.9037C23.0055 21.8831 23.0411 21.8666 23.0776 21.8544C23.1389 21.8279 23.4055 21.6877 23.4614 21.7316C23.4589 21.7296 23.259 21.7512 23.4206 21.7385C23.4588 21.7355 23.4968 21.731 23.535 21.7291C23.6124 21.7252 23.6895 21.7275 23.7667 21.7324C23.9762 21.7307 24.1768 21.6286 24.3249 21.448C24.4731 21.2674 24.5569 21.023 24.5583 20.7676C24.5538 20.5135 24.469 20.2712 24.3215 20.0915C24.174 19.9117 23.9753 19.8083 23.7667 19.8028L23.7667 19.8028Z" fill="#E6E6E6"/>
<path d="M34.8485 19.8028C34.1611 19.7976 33.4877 20.0392 32.9122 20.4973C32.3366 20.9554 31.8845 21.6099 31.612 22.3791C31.3072 23.132 31.2132 23.9858 31.3442 24.81C31.4752 25.6342 31.824 26.3834 32.3374 26.9431C32.82 27.4435 33.3989 27.7867 34.0198 27.9404C34.6408 28.0942 35.2836 28.0535 35.8882 27.8223C36.5065 27.5591 37.0427 27.0688 37.4229 26.4188C37.8031 25.7689 38.0087 24.9913 38.0114 24.193C38.039 23.3074 37.8421 22.4329 37.4476 21.6885C37.0531 20.944 36.48 20.3657 35.8063 20.0322C35.6039 19.9652 35.388 19.9984 35.2056 20.1247C35.0232 20.2509 34.8891 20.4599 34.8326 20.7061C34.7827 20.9525 34.8122 21.213 34.915 21.4337C35.0179 21.6545 35.1862 21.8188 35.3855 21.8929C35.5234 21.9578 35.2594 21.8102 35.3883 21.8957C35.4412 21.9309 35.4952 21.9627 35.5472 22.0002C35.5914 22.0322 35.6337 22.0671 35.6767 22.1013C35.8245 22.2189 35.6046 22.015 35.699 22.1207C35.781 22.2123 35.8621 22.3017 35.9365 22.4028C35.9647 22.4411 36.075 22.5474 35.9893 22.4731C35.9237 22.4162 35.964 22.4296 35.9893 22.4752C36.0084 22.5099 36.0287 22.5436 36.0476 22.5784C36.1094 22.6923 36.1655 22.8105 36.2156 22.9324C36.2273 22.9606 36.2379 22.9895 36.2497 23.0176C36.2719 23.0702 36.304 23.084 36.2519 23.0181C36.2021 22.9551 36.2338 22.9594 36.2517 23.02C36.2634 23.0599 36.2762 23.0992 36.2875 23.1392C36.3247 23.2693 36.3558 23.4019 36.3809 23.5362C36.3925 23.5983 36.4018 23.6608 36.4118 23.7233C36.4471 23.9448 36.4066 23.5855 36.4152 23.7501C36.4223 23.8875 36.4306 24.0235 36.4287 24.1614C36.4278 24.2245 36.4255 24.2876 36.4219 24.3506C36.4201 24.382 36.4172 24.4133 36.4155 24.4447C36.4073 24.5961 36.407 24.3894 36.4244 24.3753C36.3882 24.5038 36.3642 24.6369 36.3529 24.7721C36.3387 24.8321 36.3219 24.8908 36.3061 24.9501C36.251 25.1571 36.3578 24.8372 36.2991 24.9787C36.2508 25.1003 36.1968 25.2183 36.1374 25.3323C36.1116 25.38 36.0143 25.4879 36.0939 25.4128C36.1802 25.3314 36.0486 25.4716 36.0206 25.5077C35.9845 25.554 35.9471 25.5988 35.9083 25.6419C35.8835 25.6715 35.8573 25.6992 35.8298 25.7251C35.8248 25.722 35.962 25.6133 35.8881 25.6708C35.794 25.744 35.7049 25.8222 35.6058 25.8858C35.5943 25.8932 35.4676 25.9648 35.4681 25.9673C35.4626 25.9413 35.631 25.8951 35.5154 25.9406C35.4911 25.9501 35.4673 25.9617 35.4432 25.9716C35.3379 26.0148 35.2305 26.0497 35.1216 26.076C35.0967 26.0821 35.0703 26.0852 35.0457 26.0929C34.9639 26.1187 35.1239 26.0778 35.1287 26.0811C35.0683 26.078 35.0077 26.0845 34.9486 26.1006C34.8363 26.1084 34.7237 26.1084 34.6114 26.1005C34.5854 26.0987 34.5595 26.0956 34.5335 26.0937C34.4732 26.0895 34.4289 26.0365 34.5092 26.094C34.5711 26.1384 34.566 26.106 34.5111 26.0936C34.4855 26.0879 34.4597 26.083 34.434 26.0771C34.3229 26.0518 34.2129 26.0189 34.1047 25.9788C34.0465 25.9572 33.9895 25.932 33.932 25.9076C33.907 25.8987 33.8826 25.8873 33.8592 25.8734C33.8589 25.8655 34.0072 25.9598 33.9289 25.9084C33.83 25.8434 33.7278 25.789 33.6312 25.718C33.5797 25.6801 33.5302 25.6389 33.4801 25.5984C33.4581 25.5822 33.4371 25.5639 33.4175 25.5437C33.4191 25.5355 33.5402 25.6723 33.4766 25.5984C33.3963 25.5051 33.3103 25.4215 33.2342 25.3221C33.2168 25.2994 33.2003 25.2756 33.183 25.2528L33.1662 25.2294C33.1233 25.1655 33.1225 25.1658 33.1638 25.2303C33.2057 25.2454 33.2038 25.3015 33.164 25.2286C33.1498 25.2026 33.1347 25.1774 33.1206 25.1514C33.0563 25.0398 33.0015 24.9204 32.957 24.7953C32.9608 24.7916 33.0255 25.0274 32.9761 24.8495C32.9667 24.8159 32.9562 24.7828 32.947 24.7491C32.9288 24.6823 32.9128 24.6147 32.899 24.5463C32.8853 24.4787 32.8783 24.4088 32.8645 24.3414C32.8412 24.2278 32.8781 24.4311 32.8739 24.426C32.8607 24.4101 32.8663 24.3116 32.8653 24.288C32.859 24.1366 32.8731 23.9897 32.8754 23.8392C32.8771 23.7226 32.8674 23.93 32.8654 23.924C32.8659 23.889 32.871 23.8545 32.8805 23.8215C32.8948 23.7421 32.9081 23.6629 32.9257 23.5844C32.9458 23.4945 32.9689 23.4057 32.995 23.3181C33.0048 23.2853 33.0167 23.253 33.0258 23.2199C33.0591 23.0987 32.9599 23.3662 33.0146 23.257C33.0899 23.1067 33.146 22.944 33.226 22.7956C33.2449 22.7604 33.3601 22.5644 33.299 22.6633C33.2381 22.7619 33.3615 22.5751 33.3849 22.5434C33.482 22.4116 33.5962 22.3034 33.6967 22.1772C33.7562 22.1025 33.6552 22.214 33.6492 22.2192C33.6804 22.1921 33.7108 22.1639 33.7424 22.1375C33.7973 22.0913 33.8536 22.0476 33.9113 22.0065C33.9762 21.9601 34.0496 21.9256 34.1126 21.8765C34.1869 21.8185 34.0557 21.9019 34.0534 21.9037C34.0873 21.8831 34.1228 21.8666 34.1594 21.8544C34.2207 21.8279 34.4873 21.6877 34.5432 21.7316C34.5407 21.7296 34.3408 21.7512 34.5024 21.7385C34.5405 21.7355 34.5786 21.731 34.6168 21.7291C34.6942 21.7252 34.7713 21.7275 34.8485 21.7324C35.058 21.7307 35.2586 21.6286 35.4067 21.448C35.5549 21.2674 35.6387 21.023 35.6401 20.7676C35.6356 20.5135 35.5508 20.2712 35.4033 20.0915C35.2558 19.9117 35.0571 19.8083 34.8485 19.8028L34.8485 19.8028Z" fill="#E6E6E6"/>
<path d="M45.9303 19.8028C45.2429 19.7976 44.5695 20.0392 43.9939 20.4973C43.4184 20.9554 42.9662 21.6099 42.6938 22.3791C42.389 23.132 42.295 23.9858 42.4259 24.81C42.5569 25.6342 42.9058 26.3834 43.4192 26.9431C43.9018 27.4435 44.4807 27.7867 45.1016 27.9404C45.7226 28.0942 46.3654 28.0535 46.97 27.8223C47.5883 27.5591 48.1245 27.0688 48.5047 26.4188C48.8849 25.7689 49.0905 24.9913 49.0931 24.193C49.1208 23.3074 48.9239 22.4329 48.5294 21.6885C48.1349 20.944 47.5618 20.3657 46.8881 20.0322C46.6857 19.9652 46.4698 19.9984 46.2874 20.1247C46.105 20.2509 45.9709 20.4599 45.9144 20.7061C45.8645 20.9525 45.894 21.213 45.9968 21.4337C46.0997 21.6545 46.268 21.8188 46.4673 21.8929C46.6052 21.9578 46.3412 21.8102 46.47 21.8957C46.523 21.9309 46.577 21.9627 46.629 22.0002C46.6732 22.0322 46.7155 22.0671 46.7585 22.1013C46.9063 22.2189 46.6864 22.015 46.7808 22.1207C46.8627 22.2123 46.9439 22.3017 47.0183 22.4028C47.0465 22.4411 47.1568 22.5474 47.0711 22.4731C47.0055 22.4162 47.0458 22.4296 47.071 22.4752C47.0902 22.5099 47.1105 22.5436 47.1294 22.5784C47.1911 22.6923 47.2472 22.8105 47.2974 22.9324C47.3091 22.9606 47.3197 22.9895 47.3315 23.0176C47.3537 23.0702 47.3858 23.084 47.3337 23.0181C47.2839 22.9551 47.3156 22.9594 47.3334 23.02C47.3452 23.0599 47.3579 23.0992 47.3693 23.1392C47.4064 23.2693 47.4376 23.4019 47.4627 23.5362C47.4743 23.5983 47.4836 23.6608 47.4936 23.7233C47.5289 23.9448 47.4884 23.5855 47.497 23.7501C47.5041 23.8875 47.5124 24.0235 47.5104 24.1614C47.5095 24.2245 47.5073 24.2876 47.5037 24.3506C47.5019 24.382 47.499 24.4133 47.4973 24.4447C47.4891 24.5961 47.4888 24.3894 47.5062 24.3753C47.47 24.5038 47.446 24.6369 47.4347 24.7721C47.4205 24.8321 47.4037 24.8908 47.3879 24.9501C47.3328 25.1571 47.4396 24.8372 47.3809 24.9787C47.3326 25.1003 47.2786 25.2183 47.2192 25.3323C47.1934 25.38 47.0961 25.4879 47.1757 25.4128C47.262 25.3314 47.1304 25.4716 47.1023 25.5077C47.0663 25.554 47.0289 25.5988 46.9901 25.6419C46.9653 25.6715 46.939 25.6992 46.9116 25.7251C46.9065 25.722 47.0438 25.6133 46.9698 25.6708C46.8758 25.744 46.7867 25.8222 46.6876 25.8858C46.6761 25.8932 46.5493 25.9648 46.5499 25.9673C46.5444 25.9413 46.7128 25.8951 46.5972 25.9406C46.5729 25.9501 46.5491 25.9617 46.5249 25.9716C46.4197 26.0148 46.3123 26.0497 46.2034 26.076C46.1785 26.0821 46.1521 26.0852 46.1275 26.0929C46.0457 26.1187 46.2057 26.0778 46.2105 26.0811C46.15 26.078 46.0895 26.0845 46.0304 26.1006C45.9181 26.1084 45.8055 26.1084 45.6932 26.1005C45.6672 26.0987 45.6413 26.0956 45.6153 26.0937C45.555 26.0895 45.5107 26.0365 45.591 26.094C45.6529 26.1384 45.6478 26.106 45.5929 26.0936C45.5672 26.0879 45.5415 26.083 45.5158 26.0771C45.4046 26.0518 45.2947 26.0189 45.1865 25.9788C45.1283 25.9572 45.0713 25.932 45.0138 25.9076C44.9888 25.8987 44.9644 25.8873 44.941 25.8734C44.9406 25.8655 45.089 25.9598 45.0107 25.9084C44.9118 25.8434 44.8096 25.789 44.713 25.718C44.6615 25.6801 44.612 25.6389 44.5619 25.5984C44.5399 25.5822 44.5189 25.5639 44.4993 25.5437C44.5009 25.5355 44.622 25.6723 44.5584 25.5984C44.4781 25.5051 44.3921 25.4215 44.316 25.3221C44.2986 25.2994 44.2821 25.2756 44.2647 25.2528L44.2479 25.2294C44.205 25.1655 44.2042 25.1658 44.2456 25.2303C44.2875 25.2454 44.2856 25.3015 44.2458 25.2286C44.2316 25.2026 44.2165 25.1774 44.2024 25.1514C44.1381 25.0398 44.0833 24.9204 44.0388 24.7953C44.0426 24.7916 44.1073 25.0274 44.0578 24.8495C44.0485 24.8159 44.038 24.7828 44.0288 24.7491C44.0106 24.6823 43.9946 24.6147 43.9808 24.5463C43.9671 24.4787 43.9601 24.4088 43.9463 24.3414C43.923 24.2278 43.9599 24.4311 43.9557 24.426C43.9425 24.4101 43.9481 24.3116 43.9471 24.288C43.9408 24.1366 43.9549 23.9897 43.9571 23.8392C43.9589 23.7226 43.9492 23.93 43.9472 23.924C43.9477 23.889 43.9528 23.8545 43.9623 23.8215C43.9766 23.7421 43.9899 23.6629 44.0075 23.5844C44.0276 23.4945 44.0507 23.4057 44.0768 23.3181C44.0866 23.2853 44.0985 23.253 44.1076 23.2199C44.1409 23.0987 44.0417 23.3662 44.0964 23.257C44.1717 23.1067 44.2278 22.944 44.3078 22.7956C44.3267 22.7604 44.4419 22.5644 44.3808 22.6633C44.3199 22.7619 44.4433 22.5751 44.4667 22.5434C44.5638 22.4116 44.678 22.3034 44.7785 22.1772C44.838 22.1025 44.737 22.214 44.731 22.2192C44.7621 22.1921 44.7926 22.1639 44.8242 22.1375C44.8791 22.0913 44.9354 22.0476 44.9931 22.0065C45.058 21.9601 45.1314 21.9256 45.1944 21.8765C45.2687 21.8185 45.1375 21.9019 45.1351 21.9037C45.1691 21.8831 45.2046 21.8666 45.2412 21.8544C45.3025 21.8279 45.5691 21.6877 45.625 21.7316C45.6224 21.7296 45.4226 21.7512 45.5841 21.7385C45.6223 21.7355 45.6604 21.731 45.6986 21.7291C45.776 21.7252 45.853 21.7275 45.9303 21.7324C46.1398 21.7307 46.3404 21.6286 46.4885 21.448C46.6367 21.2674 46.7205 21.023 46.7219 20.7676C46.7174 20.5135 46.6325 20.2712 46.4851 20.0915C46.3376 19.9117 46.1388 19.8083 45.9303 19.8028L45.9303 19.8028Z" fill="#E6E6E6"/>
<path d="M206.021 233.477H11.8765C9.42153 233.474 7.06787 232.284 5.33191 230.168C3.59595 228.052 2.61946 225.183 2.6167 222.191V11.2862C2.61945 8.29398 3.59592 5.42522 5.33187 3.30937C7.06783 1.19351 9.42151 0.0033554 11.8765 0H206.021C208.477 0.00335541 210.83 1.19351 212.566 3.30937C214.302 5.42523 215.279 8.29398 215.281 11.2862V222.191C215.279 225.183 214.302 228.052 212.566 230.168C210.83 232.284 208.476 233.474 206.021 233.477ZM11.8765 1.28638C9.70133 1.28939 7.61594 2.34392 6.07785 4.2186C4.53977 6.09329 3.67458 8.63504 3.67211 11.2862V222.191C3.67464 224.842 4.53985 227.384 6.07794 229.259C7.61602 231.133 9.70137 232.188 11.8765 232.191H206.021C208.197 232.188 210.282 231.133 211.82 229.259C213.358 227.384 214.223 224.842 214.226 222.191V11.2862C214.223 8.63504 213.358 6.09329 211.82 4.2186C210.282 2.34392 208.197 1.28939 206.021 1.28638H11.8765Z" fill="#E6E6E6"/>
<path d="M11.5549 143.499L79.8288 143.246L147.754 142.994L186.071 142.852C186.276 142.843 186.471 142.738 186.614 142.558C186.756 142.378 186.836 142.137 186.836 141.887C186.836 141.637 186.756 141.396 186.614 141.216C186.471 141.036 186.276 140.931 186.071 140.922L117.797 141.175L49.8719 141.427L11.5549 141.569C11.3497 141.578 11.1553 141.683 11.0127 141.863C10.87 142.043 10.7903 142.284 10.7903 142.534C10.7903 142.784 10.87 143.025 11.0127 143.205C11.1553 143.385 11.3497 143.49 11.5549 143.499Z" fill="#E6E6E6"/>
<path d="M45.9978 141.935L46.42 111.552C46.4372 110.31 44.8541 110.31 44.8369 111.552L44.4147 141.935C44.3974 143.177 45.9805 143.177 45.9978 141.935Z" fill="#E6E6E6"/>
<path d="M78.6286 142.263L79.6574 104.074L79.9513 93.1634C79.9848 91.9214 78.4016 91.9228 78.3682 93.1634L77.3394 131.352L77.0454 142.263C77.012 143.505 78.5951 143.504 78.6286 142.263Z" fill="#E6E6E6"/>
<path d="M111.171 75.0608C110.551 88.5871 109.403 128.484 108.782 142.01C108.725 143.251 110.308 143.247 110.365 142.01C110.986 128.484 112.134 88.587 112.754 75.0608C112.811 73.8201 111.228 73.8241 111.171 75.0608Z" fill="#E6E6E6"/>
<path d="M143.557 128.437L143.363 141.438C143.345 142.681 144.928 142.681 144.946 141.438C145.176 126.083 145.763 126.584 145.828 122.25C145.846 121.008 144.263 121.008 144.245 122.25C144.245 122.25 143.786 113.083 143.557 128.437Z" fill="#E6E6E6"/>
<path d="M175.279 94.284L175.458 130.758L175.509 141.202C175.516 141.453 175.602 141.69 175.75 141.863C175.898 142.037 176.095 142.134 176.3 142.134C176.506 142.134 176.703 142.037 176.851 141.863C176.998 141.69 177.085 141.453 177.092 141.202L176.913 104.728L176.862 94.284C176.855 94.0339 176.768 93.7969 176.62 93.6231C176.473 93.4492 176.275 93.3521 176.07 93.3521C175.865 93.3521 175.668 93.4492 175.52 93.6231C175.372 93.7969 175.286 94.0339 175.279 94.284Z" fill="#E6E6E6"/>
<path d="M11.6822 142.413C10.3718 138.024 13.3257 133.803 16.361 131.906C19.9974 129.634 24.1806 129.118 27.8556 126.928C33.3343 123.662 37.3249 117.8 40.8757 111.932C44.5305 105.893 47.8746 99.412 52.5186 94.3942C54.9657 91.6913 57.856 89.6526 60.9981 88.4132C64.9571 86.9073 69.1558 86.804 73.2465 87.4108C81.6996 88.6649 89.5357 92.9203 97.6919 95.6249C105.382 98.1749 113.854 99.6088 121.402 95.6435C125.237 93.6289 128.373 90.25 131.741 87.326C135 84.4665 138.645 82.3236 142.51 80.9941C150.087 78.4261 158.361 79.1118 165.415 83.453C171.9 87.3922 177.034 93.9966 179.911 102.101C183.255 111.837 182.82 122.718 181.728 132.967C181.445 135.616 181.109 138.256 180.77 140.895C180.613 142.11 182.138 142.633 182.296 141.408C183.657 130.84 185.013 119.938 183.32 109.303C181.857 100.017 177.667 91.6992 171.536 85.906C165.379 80.097 157.724 77.1527 149.947 77.6016C145.871 77.8321 141.859 78.9197 138.087 80.8164C134.172 82.7903 130.856 85.7159 127.489 88.7944C124.026 91.9595 120.457 94.5775 116.158 95.6098C111.989 96.6111 107.651 96.2358 103.5 95.2904C94.9339 93.3397 86.9496 88.8681 78.4565 86.5769C70.5875 84.4541 62.0963 84.242 55.0499 89.6603C49.6297 93.8281 45.7996 100.299 42.1239 106.547C38.4805 112.74 34.7909 119.362 29.4632 123.593C26.2132 126.174 22.5599 127.126 18.9243 128.577C15.2793 130.032 11.78 132.487 10.2938 137.039C9.65325 138.913 9.60404 141.01 10.1556 142.926C10.5013 144.084 12.0317 143.584 11.6822 142.413V142.413Z" fill="#E6E6E6"/>
<path d="M45.4735 107.351L45.4707 107.353L45.4764 107.351H45.4735Z" fill="#E6E6E6"/>
<path d="M48.2177 105.576C47.8518 104.787 47.2681 104.18 46.5702 103.866C45.8724 103.551 45.1056 103.548 44.406 103.857C44.0583 104.012 43.7395 104.25 43.4686 104.557C43.1976 104.865 42.9801 105.235 42.8287 105.647C42.7984 105.734 42.7806 105.826 42.7559 105.916C42.7216 105.984 42.6804 106.045 42.6496 106.115C42.3215 106.912 42.2317 107.824 42.3956 108.693C42.5595 109.562 42.9669 110.334 43.5476 110.876C44.1283 111.418 44.8459 111.697 45.5769 111.663C46.308 111.63 47.0066 111.287 47.5525 110.694C48.1262 110.062 48.505 109.209 48.6261 108.278C48.7471 107.347 48.603 106.394 48.2177 105.576ZM46.235 107.215C46.2415 107.264 46.2391 107.308 46.235 107.215V107.215ZM46.0334 106.656C46.0257 106.645 46.0266 106.647 46.0334 106.656V106.656ZM45.1451 107.092C45.1332 107.069 45.1321 107.066 45.1451 107.092V107.092ZM45.3557 107.309C45.4058 107.33 45.386 107.326 45.3557 107.309V107.309ZM45.4497 107.364L45.4705 107.352C45.4654 107.353 45.4603 107.352 45.4558 107.349L45.4564 107.349L45.4727 107.351L45.4758 107.349L45.4664 107.347C45.4745 107.346 45.4755 107.348 45.476 107.349C45.5702 107.297 45.5064 107.322 45.4518 107.343L45.4482 107.342C45.4141 107.32 45.3774 107.306 45.3396 107.299C45.3362 107.297 45.332 107.295 45.3291 107.292C45.2988 107.266 45.1456 107.12 45.2877 107.273C45.2568 107.24 45.2262 107.207 45.1971 107.171C45.18 107.15 45.1644 107.127 45.1507 107.102C45.132 107.063 45.114 107.023 45.0965 106.984L45.0938 106.962C45.0915 106.945 45.0898 106.937 45.0878 106.927C45.0887 106.915 45.0902 106.904 45.0916 106.892C45.1022 106.857 45.109 106.821 45.1117 106.784L45.1178 106.775C45.1406 106.736 45.1605 106.691 45.1822 106.651C45.0674 106.863 45.227 106.627 45.239 106.598C45.241 106.592 45.2374 106.595 45.2383 106.592C45.2429 106.589 45.2415 106.591 45.2471 106.587C45.2827 106.561 45.3164 106.533 45.3525 106.508C45.3955 106.479 45.5649 106.421 45.3892 106.482C45.4291 106.468 45.4674 106.45 45.5077 106.438C45.515 106.435 45.5742 106.425 45.606 106.418C45.634 106.417 45.6611 106.416 45.664 106.416C45.6771 106.417 45.6903 106.419 45.7034 106.419C45.6743 106.424 45.8035 106.458 45.8418 106.465C45.8474 106.471 45.8502 106.474 45.8577 106.481C45.8902 106.51 45.9296 106.535 45.9639 106.562C45.8108 106.442 45.9659 106.572 45.9951 106.607C46.0126 106.629 46.0287 106.651 46.0452 106.674C46.0602 106.695 46.0739 106.718 46.0859 106.742C46.111 106.798 46.1377 106.855 46.1641 106.91L46.1714 106.924C46.1713 106.926 46.1712 106.928 46.1712 106.93C46.1849 107.019 46.2052 107.107 46.2318 107.192C46.2331 107.199 46.2341 107.206 46.2348 107.214C46.2373 107.263 46.2406 107.312 46.2407 107.361L46.2403 107.371C46.1184 107.293 45.9832 107.252 45.8457 107.251C45.7082 107.25 45.5725 107.289 45.4497 107.364H45.4497Z" fill="#E6E6E6"/>
<path d="M45.4778 107.35C45.4805 107.351 45.4779 107.351 45.4773 107.351L45.4778 107.35Z" fill="#E6E6E6"/>
<path d="M45.4771 107.35L45.4781 107.35L45.4771 107.35Z" fill="#E6E6E6"/>
<path d="M45.4783 107.351L45.4749 107.351C45.4793 107.352 45.4777 107.351 45.4783 107.351Z" fill="#E6E6E6"/>
<path d="M45.4758 107.349L45.4778 107.35L45.4758 107.349Z" fill="#E6E6E6"/>
<path d="M79.2465 89.342L79.2437 89.3434L79.2493 89.342H79.2465Z" fill="#E6E6E6"/>
<path d="M81.9906 87.5671C81.6248 86.7773 81.041 86.1712 80.3432 85.8564C79.6453 85.5416 78.8785 85.5385 78.179 85.8476C77.8312 86.0023 77.5124 86.2405 77.2415 86.5479C76.9706 86.8554 76.753 87.226 76.6016 87.6377C76.5713 87.7252 76.5536 87.8172 76.5289 87.9069C76.4946 87.9745 76.4533 88.0355 76.4226 88.1062C76.0945 88.9031 76.0047 89.8146 76.1686 90.6835C76.3325 91.5525 76.7398 92.3245 77.3205 92.8668C77.9012 93.409 78.6189 93.6875 79.3499 93.6542C80.0809 93.6209 80.7795 93.2779 81.3254 92.6844C81.8991 92.0523 82.278 91.1999 82.399 90.2689C82.52 89.3379 82.3759 88.3844 81.9906 87.5671ZM80.0079 89.2057C80.0144 89.2544 80.012 89.2991 80.0079 89.2057V89.2057ZM79.8064 88.6471C79.7986 88.6363 79.7996 88.6374 79.8064 88.6471V88.6471ZM78.9181 89.0825C78.9062 89.0602 78.905 89.0565 78.9181 89.0825V89.0825ZM79.1286 89.3001C79.1788 89.3209 79.1589 89.3165 79.1286 89.3001V89.3001ZM79.2226 89.3547L79.2435 89.343C79.2384 89.3436 79.2332 89.3424 79.2287 89.3395L79.2293 89.3393L79.2456 89.3418L79.2487 89.3401L79.2393 89.3375C79.2474 89.3371 79.2484 89.3385 79.2489 89.34C79.3431 89.2875 79.2793 89.3128 79.2247 89.3334L79.2211 89.3323C79.187 89.3112 79.1504 89.2969 79.1126 89.2899C79.1091 89.2875 79.1049 89.2858 79.102 89.2832C79.0717 89.2569 78.9185 89.1111 79.0606 89.264C79.0297 89.2307 78.9991 89.198 78.97 89.1621C78.9529 89.1406 78.9374 89.1173 78.9236 89.0925C78.905 89.0535 78.8869 89.0142 78.8694 88.9746L78.8667 88.9532C78.8644 88.9354 78.8627 88.928 78.8607 88.9173C78.8617 88.9063 78.8631 88.8944 78.8645 88.8829C78.8751 88.8482 78.8819 88.812 78.8846 88.7751L78.8907 88.7657C78.9135 88.727 78.9334 88.6819 78.9551 88.6417C78.8404 88.8541 78.9999 88.6183 79.0119 88.5884C79.0139 88.5833 79.0104 88.5861 79.0112 88.5825C79.0159 88.5794 79.0144 88.5815 79.0201 88.5775C79.0556 88.552 79.0893 88.5236 79.1254 88.4992C79.1684 88.4701 79.3378 88.4115 79.1621 88.4727C79.202 88.4588 79.2403 88.4413 79.2807 88.4284C79.288 88.4261 79.3471 88.416 79.379 88.4091C79.4069 88.4082 79.4341 88.4072 79.4369 88.4072C79.4501 88.4074 79.4632 88.4094 79.4763 88.4101C79.4472 88.4148 79.5764 88.4489 79.6147 88.456C79.6203 88.4613 79.6231 88.4647 79.6307 88.4715C79.6631 88.5004 79.7025 88.526 79.7368 88.553C79.5837 88.4324 79.7388 88.5626 79.768 88.5982C79.7855 88.6195 79.8016 88.6423 79.8181 88.6647C79.8332 88.686 79.8468 88.7088 79.8589 88.7329C79.8839 88.7889 79.9107 88.8457 79.937 88.9008L79.9443 88.915C79.9442 88.9168 79.9441 88.9186 79.9441 88.9204C79.9579 89.0099 79.9781 89.0976 80.0047 89.1827C80.006 89.1899 80.007 89.1972 80.0077 89.2045C80.0102 89.2535 80.0135 89.3023 80.0136 89.3516L80.0133 89.3615C79.8914 89.2841 79.7561 89.2431 79.6186 89.2419C79.4812 89.2407 79.3454 89.2793 79.2226 89.3547Z" fill="#E6E6E6"/>
<path d="M79.2513 89.3417L79.2478 89.3423C79.2522 89.3427 79.2506 89.342 79.2513 89.3417Z" fill="#E6E6E6"/>
<path d="M79.249 89.34L79.251 89.341L79.249 89.34Z" fill="#E6E6E6"/>
<path d="M79.2507 89.3408C79.2535 89.3416 79.2509 89.3415 79.2502 89.3417L79.2507 89.3408Z" fill="#E6E6E6"/>
<path d="M79.25 89.3405L79.2511 89.3409L79.25 89.3405Z" fill="#E6E6E6"/>
<path d="M111.967 98.3447L111.969 98.3457L111.967 98.3447Z" fill="#E6E6E6"/>
<path d="M114.708 69.5578C114.343 68.7681 113.759 68.162 113.061 67.8472C112.363 67.5324 111.596 67.5292 110.897 67.8384C110.549 67.9931 110.23 68.2312 109.959 68.5387C109.688 68.8461 109.471 69.2167 109.319 69.6284C109.289 69.7159 109.271 69.808 109.247 69.8976C109.212 69.9652 109.171 70.0263 109.14 70.097C108.812 70.8939 108.722 71.8053 108.886 72.6742C109.05 73.5432 109.458 74.3153 110.038 74.8575C110.619 75.3998 111.337 75.6782 112.068 75.6449C112.799 75.6116 113.497 75.2687 114.043 74.6751C114.617 74.043 114.996 73.1906 115.117 72.2596C115.238 71.3286 115.094 70.3751 114.708 69.5578ZM112.726 71.1964C112.732 71.2451 112.73 71.2899 112.726 71.1964V71.1964ZM112.524 70.6378C112.516 70.627 112.517 70.6282 112.524 70.6378V70.6378ZM111.636 71.0732C111.624 71.0509 111.623 71.0472 111.636 71.0732V71.0732ZM111.846 71.2908C111.897 71.3116 111.877 71.3072 111.846 71.2908V71.2908ZM111.94 71.3454L111.961 71.3338C111.956 71.3343 111.951 71.3331 111.946 71.3302L111.947 71.3301L111.963 71.3325L111.966 71.3309L111.957 71.3282C111.965 71.3278 111.966 71.3292 111.967 71.3308C112.061 71.2782 111.997 71.3035 111.943 71.3241L111.939 71.3231C111.905 71.302 111.868 71.2877 111.83 71.2806C111.827 71.2782 111.823 71.2765 111.82 71.274C111.789 71.2477 111.636 71.1018 111.778 71.2547C111.747 71.2214 111.717 71.1887 111.688 71.1528C111.671 71.1313 111.655 71.1081 111.641 71.0832C111.623 71.0443 111.605 71.0049 111.587 70.9653L111.585 70.9439C111.582 70.9261 111.58 70.9187 111.579 70.908C111.579 70.897 111.581 70.8851 111.582 70.8736C111.593 70.839 111.6 70.8027 111.602 70.7658L111.609 70.7564C111.631 70.7177 111.651 70.6726 111.673 70.6324C111.558 70.8448 111.718 70.609 111.73 70.5791C111.732 70.574 111.728 70.5768 111.729 70.5733C111.734 70.5701 111.732 70.5723 111.738 70.5683C111.773 70.5427 111.807 70.5143 111.843 70.4899C111.886 70.4609 112.056 70.4023 111.88 70.4634C111.92 70.4496 111.958 70.432 111.998 70.4192C112.006 70.4169 112.065 70.4068 112.097 70.3998C112.125 70.3989 112.152 70.3979 112.155 70.3979C112.168 70.3981 112.181 70.4001 112.194 70.4008C112.165 70.4055 112.294 70.4396 112.333 70.4468C112.338 70.4521 112.341 70.4555 112.348 70.4622C112.381 70.4911 112.42 70.5168 112.455 70.5437C112.301 70.4231 112.457 70.5533 112.486 70.589C112.503 70.6103 112.519 70.633 112.536 70.6554C112.551 70.6768 112.565 70.6996 112.577 70.7236C112.602 70.7796 112.628 70.8364 112.655 70.8915L112.662 70.9057C112.662 70.9075 112.662 70.9093 112.662 70.9112C112.676 71.0006 112.696 71.0884 112.723 71.1734C112.724 71.1806 112.725 71.1879 112.725 71.1952C112.728 71.2442 112.731 71.293 112.731 71.3423L112.731 71.3523C112.609 71.2748 112.474 71.2338 112.336 71.2326C112.199 71.2314 112.063 71.2701 111.94 71.3454Z" fill="#E6E6E6"/>
<path d="M111.964 98.3466L111.961 98.348L111.967 98.3466H111.964Z" fill="#E6E6E6"/>
<path d="M111.968 98.3452L111.969 98.3455L111.968 98.3452Z" fill="#E6E6E6"/>
<path d="M111.969 98.3463L111.966 98.3469C111.97 98.3473 111.968 98.3466 111.969 98.3463Z" fill="#E6E6E6"/>
<path d="M111.969 98.3454C111.971 98.3462 111.969 98.3461 111.968 98.3463L111.969 98.3454Z" fill="#E6E6E6"/>
<path d="M147.954 119.083C147.588 118.294 147.004 117.687 146.306 117.373C145.608 117.058 144.841 117.055 144.142 117.364C143.794 117.519 143.475 117.757 143.204 118.064C142.933 118.372 142.716 118.742 142.565 119.154C142.534 119.241 142.516 119.333 142.492 119.423C142.457 119.491 142.416 119.552 142.385 119.622C142.057 120.419 141.968 121.331 142.131 122.2C142.295 123.069 142.703 123.841 143.283 124.383C143.864 124.925 144.582 125.204 145.313 125.17C146.044 125.137 146.742 124.794 147.288 124.201C147.862 123.568 148.241 122.716 148.362 121.785C148.483 120.854 148.339 119.901 147.954 119.083ZM145.971 120.722C145.977 120.771 145.975 120.815 145.971 120.722V120.722ZM145.769 120.163C145.762 120.152 145.762 120.154 145.769 120.163V120.163ZM144.881 120.599C144.869 120.576 144.868 120.573 144.881 120.599V120.599ZM145.092 120.816C145.142 120.837 145.122 120.833 145.092 120.816V120.816ZM145.186 120.871L145.206 120.859C145.201 120.86 145.196 120.859 145.192 120.856L145.192 120.856L145.209 120.858L145.212 120.856L145.202 120.854C145.21 120.853 145.211 120.855 145.212 120.856C145.306 120.804 145.242 120.829 145.188 120.85L145.184 120.849C145.15 120.827 145.113 120.813 145.075 120.806C145.072 120.804 145.068 120.802 145.065 120.799C145.035 120.773 144.881 120.627 145.024 120.78C144.993 120.747 144.962 120.714 144.933 120.678C144.916 120.657 144.9 120.634 144.886 120.609C144.868 120.57 144.85 120.53 144.832 120.491L144.83 120.469C144.827 120.452 144.826 120.444 144.824 120.433C144.825 120.422 144.826 120.411 144.827 120.399C144.838 120.364 144.845 120.328 144.848 120.291L144.854 120.282C144.876 120.243 144.896 120.198 144.918 120.158C144.803 120.37 144.963 120.134 144.975 120.105C144.977 120.099 144.973 120.102 144.974 120.099C144.979 120.096 144.977 120.098 144.983 120.094C145.018 120.068 145.052 120.04 145.088 120.015C145.131 119.986 145.301 119.928 145.125 119.989C145.165 119.975 145.203 119.957 145.244 119.945C145.251 119.942 145.31 119.932 145.342 119.925C145.37 119.924 145.397 119.923 145.4 119.923C145.413 119.924 145.426 119.926 145.439 119.926C145.41 119.931 145.539 119.965 145.578 119.972C145.583 119.978 145.586 119.981 145.594 119.988C145.626 120.017 145.665 120.042 145.7 120.069C145.547 119.949 145.702 120.079 145.731 120.114C145.748 120.136 145.765 120.158 145.781 120.181C145.796 120.202 145.81 120.225 145.822 120.249C145.847 120.305 145.874 120.362 145.9 120.417L145.907 120.431C145.907 120.433 145.907 120.435 145.907 120.437C145.921 120.526 145.941 120.614 145.968 120.699C145.969 120.706 145.97 120.713 145.971 120.721C145.973 120.77 145.976 120.819 145.977 120.868L145.976 120.878C145.854 120.8 145.719 120.759 145.582 120.758C145.444 120.757 145.308 120.796 145.186 120.871Z" fill="#E6E6E6"/>
<path d="M145.209 78.4078L145.207 78.4092L145.212 78.4078H145.209Z" fill="#E6E6E6"/>
<path d="M145.213 78.4064L145.214 78.4067L145.213 78.4064Z" fill="#E6E6E6"/>
<path d="M145.214 78.4075L145.211 78.4081C145.215 78.4085 145.214 78.4078 145.214 78.4075Z" fill="#E6E6E6"/>
<path d="M145.214 78.4066C145.216 78.4074 145.214 78.4073 145.213 78.4075L145.214 78.4066Z" fill="#E6E6E6"/>
<path d="M145.212 78.4058L145.214 78.4068L145.212 78.4058Z" fill="#E6E6E6"/>
<path d="M176.348 91.2701L176.349 91.2704L176.348 91.2701Z" fill="#E6E6E6"/>
<path d="M179.088 89.4967C178.722 88.7069 178.138 88.1008 177.441 87.786C176.743 87.4712 175.976 87.4681 175.276 87.7772C174.929 87.9319 174.61 88.17 174.339 88.4775C174.068 88.785 173.85 89.1555 173.699 89.5673C173.669 89.6548 173.651 89.7468 173.626 89.8365C173.592 89.9041 173.551 89.9651 173.52 90.0358C173.192 90.8327 173.102 91.7441 173.266 92.6131C173.43 93.482 173.837 94.2541 174.418 94.7964C174.999 95.3386 175.716 95.617 176.447 95.5838C177.178 95.5505 177.877 95.2075 178.423 94.614C178.997 93.9819 179.375 93.1294 179.496 92.1984C179.617 91.2674 179.473 90.314 179.088 89.4967ZM177.105 91.1352C177.112 91.184 177.109 91.2287 177.105 91.1352V91.1352ZM176.904 90.5767C176.896 90.5658 176.897 90.567 176.904 90.5767V90.5767ZM176.015 91.0121C176.004 90.9898 176.002 90.986 176.015 91.0121V91.0121ZM176.226 91.2296C176.276 91.2504 176.256 91.2461 176.226 91.2296V91.2296ZM176.32 91.2842L176.341 91.2726C176.336 91.2732 176.331 91.272 176.326 91.269L176.327 91.2689L176.343 91.2714L176.346 91.2697L176.337 91.267C176.345 91.2667 176.346 91.268 176.346 91.2696C176.441 91.217 176.377 91.2423 176.322 91.2629L176.319 91.2619C176.284 91.2408 176.248 91.2265 176.21 91.2195C176.206 91.2171 176.202 91.2153 176.199 91.2128C176.169 91.1865 176.016 91.0406 176.158 91.1936C176.127 91.1603 176.097 91.1276 176.067 91.0916C176.05 91.0702 176.035 91.0469 176.021 91.0221C176.002 90.9831 175.984 90.9438 175.967 90.9041L175.964 90.8827C175.962 90.8649 175.96 90.8576 175.958 90.8469C175.959 90.8358 175.961 90.824 175.962 90.8125C175.973 90.7778 175.979 90.7415 175.982 90.7047L175.988 90.6952C176.011 90.6566 176.031 90.6115 176.052 90.5713C175.938 90.7836 176.097 90.5478 176.109 90.5179C176.111 90.5128 176.108 90.5156 176.109 90.5121C176.113 90.5089 176.112 90.5111 176.117 90.5071C176.153 90.4816 176.187 90.4531 176.223 90.4288C176.266 90.3997 176.435 90.3411 176.26 90.4023C176.299 90.3884 176.338 90.3708 176.378 90.358C176.385 90.3557 176.445 90.3456 176.476 90.3386C176.504 90.3378 176.531 90.3367 176.534 90.3368C176.547 90.337 176.561 90.3389 176.574 90.3396C176.545 90.3444 176.674 90.3784 176.712 90.3856C176.718 90.3909 176.721 90.3943 176.728 90.401C176.761 90.4299 176.8 90.4556 176.834 90.4826C176.681 90.362 176.836 90.4922 176.865 90.5278C176.883 90.5491 176.899 90.5718 176.915 90.5943C176.931 90.6156 176.944 90.6384 176.956 90.6624C176.981 90.7185 177.008 90.7752 177.034 90.8304L177.042 90.8445C177.042 90.8463 177.042 90.8482 177.042 90.85C177.055 90.9395 177.076 91.0272 177.102 91.1123C177.103 91.1195 177.104 91.1267 177.105 91.1341C177.108 91.1831 177.111 91.2319 177.111 91.2812L177.111 91.2911C176.989 91.2136 176.854 91.1726 176.716 91.1714C176.579 91.1702 176.443 91.2089 176.32 91.2842Z" fill="#E6E6E6"/>
<path d="M176.344 91.2715L176.341 91.273L176.347 91.2715H176.344Z" fill="#E6E6E6"/>
<path d="M176.346 91.2696L176.348 91.2706L176.346 91.2696Z" fill="#E6E6E6"/>
<path d="M176.348 91.2703C176.351 91.2712 176.348 91.271 176.348 91.2713L176.348 91.2703Z" fill="#E6E6E6"/>
<path d="M176.349 91.2713L176.345 91.2718C176.35 91.2723 176.348 91.2716 176.349 91.2713Z" fill="#E6E6E6"/>
<path d="M167.811 120.748L143.275 122.41C143.137 122.419 143.001 122.364 142.895 122.254C142.789 122.145 142.722 121.991 142.707 121.823C142.692 121.655 142.73 121.487 142.814 121.352C142.898 121.218 143.021 121.128 143.158 121.101L168.237 116.127L167.811 120.748Z" fill="#3F3D56"/>
<path d="M198.994 187.328L208.24 168.368L215.074 172.302C215.074 172.302 203.298 190.229 202.923 190.745C203.084 191.616 203.024 192.526 202.751 193.355C202.477 194.184 202.004 194.892 201.394 195.386C200.784 195.88 200.065 196.136 199.332 196.121C198.599 196.106 197.888 195.821 197.291 195.302C196.695 194.783 196.241 194.056 195.991 193.217C195.741 192.377 195.706 191.465 195.891 190.601C196.075 189.736 196.471 188.961 197.025 188.376C197.579 187.792 198.266 187.426 198.994 187.328Z" fill="#FFB6B6"/>
<path d="M202.84 143.285L217.82 152.811C218.756 153.633 219.542 154.684 220.125 155.897C220.709 157.11 221.079 158.458 221.211 159.855C221.344 161.253 221.235 162.668 220.893 164.011C220.551 165.354 219.982 166.595 219.224 167.655L208.897 182.094L204.398 174.664L207.866 165.826L201.151 163.668L202.84 143.285Z" fill="#4B91CB"/>
<path d="M160.15 121.057L158.463 143.018L150.905 143.033C150.905 143.033 155.241 120.685 155.399 120.023C154.948 119.32 154.682 118.466 154.637 117.575C154.592 116.683 154.771 115.796 155.149 115.031C155.526 114.266 156.086 113.659 156.753 113.289C157.42 112.92 158.164 112.807 158.885 112.964C159.606 113.121 160.272 113.541 160.793 114.169C161.314 114.797 161.666 115.602 161.803 116.48C161.94 117.357 161.856 118.264 161.561 119.082C161.266 119.899 160.774 120.588 160.15 121.057V121.057Z" fill="#FFB6B6"/>
<path d="M175.195 165.966L157.799 162.078C150.474 161.004 147.468 155.129 148.79 149.399L153.043 130.959L159.721 135.323L159.695 145.118L169.042 143.561L175.195 165.966Z" fill="#4B91CB"/>
<path d="M168.074 317.73H163.291L161.016 295.242H168.075L168.074 317.73Z" fill="#FFB6B6"/>
<path d="M168.243 323.812L153.534 323.811V323.584C153.534 321.733 154.137 319.959 155.211 318.65C156.285 317.342 157.741 316.606 159.259 316.606H159.259L161.946 314.122L166.959 316.607L168.243 316.607L168.243 323.812Z" fill="#2F2E41"/>
<path d="M201.919 317.73H206.702L208.977 295.242H201.917L201.919 317.73Z" fill="#FFB6B6"/>
<path d="M201.75 323.812L216.459 323.811V323.584C216.459 321.733 215.856 319.959 214.782 318.65C213.708 317.342 212.252 316.606 210.734 316.606H210.733L208.047 314.122L203.034 316.607L201.75 316.607L201.75 323.812Z" fill="#2F2E41"/>
<path d="M160.805 278.718C160.876 277.434 161.437 270.338 161.437 270.338L162.783 255.289L165.154 215.398L167.267 204.912L177.73 209.88L186.219 204.92L196.309 208.851L204.166 212.442C204.166 212.442 204.179 213.979 204.24 215.836C204.321 218.267 204.462 221.248 204.798 222.022C205.36 223.392 205.219 230.742 205.219 230.742C205.219 230.742 205.777 245.697 206.48 247.337C207.183 248.976 207.324 252.391 207.112 253.076C206.9 253.76 207.815 271.72 207.815 271.72C207.815 271.72 210.163 303.502 208.69 308.294C207.217 313.086 201.65 309.947 201.65 309.947C201.65 309.947 201.919 308.668 200.305 308.065C198.69 307.463 193.773 262.398 193.773 262.398C193.773 262.398 192.858 253.158 192.017 250.509C191.176 247.861 190.403 240.421 190.403 240.421C190.403 240.421 185.21 228.106 185.143 225.368C185.143 225.368 184.463 222.805 183.821 225.626C183.178 228.446 181.285 235.202 181.285 235.202L179.438 243.499L177.265 255.896L175.86 266.333C175.86 266.333 173.754 280.185 173.418 280.784C173.081 281.382 173.418 294.037 173.418 294.037C173.418 294.037 171.79 304.815 169.489 306.696C167.189 308.578 161.094 306.726 161.094 306.726C161.094 306.726 160.734 280.001 160.805 278.718Z" fill="#2F2E41"/>
<path d="M168.626 171.173L167.289 192.281L165.281 194.815C165.1 195.043 164.958 195.314 164.865 195.61C164.772 195.907 164.729 196.224 164.738 196.541C164.748 196.858 164.81 197.17 164.92 197.458C165.031 197.745 165.188 198.003 165.382 198.215L164.276 200.527L163.884 207.815C163.772 208.382 163.765 208.972 163.862 209.543C163.959 210.114 164.158 210.652 164.445 211.118C164.732 211.585 165.101 211.968 165.524 212.241C165.946 212.513 166.413 212.669 166.891 212.696L201.526 214.68C202.001 214.707 202.475 214.607 202.915 214.386C203.355 214.165 203.75 213.829 204.072 213.402C204.394 212.975 204.634 212.467 204.778 211.914C204.921 211.361 204.962 210.776 204.9 210.202L201.955 183.179V181.158L200.636 177.256L201.314 164.184L202.89 143.435L193.728 140.551L188.76 136.385L180.13 136.552L174.893 141.795L167.91 143.127L162.63 144.407L161.957 146.189L163.303 145.832L168.179 169.013L168.626 171.173Z" fill="#4B91CB"/>
<path d="M184.252 133.556C189.867 133.556 194.418 128.009 194.418 121.165C194.418 114.321 189.867 108.773 184.252 108.773C178.637 108.773 174.085 114.321 174.085 121.165C174.085 128.009 178.637 133.556 184.252 133.556Z" fill="#FFB6B6"/>
<path d="M181.801 132.757L189.146 132.3C190.087 132.242 191.115 132.141 191.799 131.351C192.167 130.864 192.451 130.29 192.632 129.665C193.311 127.743 193.99 125.82 194.652 123.889C195.567 121.217 196.466 118.396 196.232 115.514C196.178 114.199 195.725 112.954 194.962 112.021C194.572 111.572 194.071 111.292 193.538 111.226C193.004 111.16 192.467 111.312 192.012 111.657C191.898 110.746 191.617 109.878 191.188 109.119C190.759 108.359 190.194 107.729 189.536 107.275C188.206 106.38 186.689 105.988 185.176 106.149C182.98 106.321 180.884 107.328 179.183 109.027C178.704 109.566 178.193 110.059 177.654 110.504C177.383 110.725 177.078 110.876 176.757 110.949C176.436 111.021 176.106 111.013 175.788 110.925C175.473 110.822 175.199 110.584 175.017 110.254C174.835 109.924 174.757 109.525 174.797 109.131C174.28 109.602 173.925 110.292 173.802 111.065C173.679 111.838 173.797 112.639 174.132 113.311C173.751 113.506 173.335 113.577 172.924 113.518C172.514 113.459 172.123 113.271 171.789 112.974C171.432 113.19 171.116 113.494 170.861 113.868C170.605 114.242 170.417 114.676 170.308 115.144C170.198 115.611 170.17 116.102 170.225 116.583C170.28 117.065 170.417 117.527 170.628 117.94C170.838 118.353 171.116 118.709 171.445 118.983C171.775 119.257 172.147 119.445 172.539 119.534C172.932 119.623 173.335 119.611 173.723 119.499C174.111 119.387 174.476 119.177 174.793 118.883C175.239 119.644 175.073 120.679 175.015 121.611C174.957 122.544 175.162 123.702 175.9 123.96C176.897 124.309 177.704 122.672 178.742 122.69C178.997 122.715 179.244 122.817 179.46 122.986C179.676 123.156 179.854 123.388 179.978 123.661C180.223 124.211 180.39 124.806 180.473 125.423L181.801 132.706" fill="#2F2E41"/>
<path d="M468.209 244.178C468.209 242.259 467.68 240.702 467.031 240.698H290.068C289.416 240.702 288.891 242.259 288.888 244.178V323.167C288.888 323.345 288.833 323.517 288.735 323.649C288.637 323.781 288.502 323.864 288.356 323.881C287.881 323.937 287.406 323.988 286.931 324.036C286.92 324.036 286.908 324.04 286.896 324.04C286.638 324.068 286.379 324.09 286.121 324.115H286.118C285.985 323.815 285.854 323.513 285.724 323.208C285.68 323.105 285.657 322.991 285.657 322.876V239.663C285.657 239.134 285.674 238.6 285.704 238.074C285.746 237.351 285.819 236.632 285.924 235.919C286.42 232.593 287.542 230.341 288.817 230.334H468.279C468.465 230.335 468.649 230.383 468.82 230.474C469.07 230.609 469.297 230.802 469.487 231.043C469.744 231.369 469.964 231.736 470.142 232.135C470.873 233.911 471.294 235.853 471.378 237.838C471.378 237.859 471.381 237.881 471.381 237.902C471.422 238.482 471.443 239.073 471.44 239.663L471.481 247.335L471.507 251.91L471.587 266.266L471.616 271.364L471.745 323.703C471.745 323.893 471.683 324.075 471.573 324.209C471.463 324.344 471.314 324.419 471.158 324.419H468.796C468.641 324.419 468.491 324.344 468.381 324.209C468.271 324.075 468.209 323.893 468.209 323.703V244.178Z" fill="#E6E6E6"/>
<path d="M420.122 194.436H401.054C400.785 194.436 400.526 194.567 400.336 194.8C400.145 195.033 400.038 195.348 400.039 195.677V232.391H421.141V195.677C421.141 195.514 421.115 195.352 421.064 195.202C421.012 195.051 420.937 194.914 420.843 194.799C420.748 194.684 420.636 194.592 420.512 194.53C420.389 194.468 420.256 194.435 420.122 194.436ZM410.653 215.296C410.056 215.293 409.485 215.002 409.064 214.488C408.642 213.974 408.404 213.278 408.401 212.552V208.317C408.401 207.589 408.638 206.891 409.06 206.376C409.483 205.862 410.055 205.573 410.653 205.573C411.25 205.573 411.822 205.862 412.245 206.376C412.667 206.891 412.904 207.589 412.904 208.317V212.552C412.901 213.278 412.663 213.974 412.242 214.488C411.82 215.002 411.249 215.293 410.653 215.296Z" fill="#CCCCCC"/>
<path d="M399.973 231.216V234.759C399.973 234.942 400.033 235.118 400.14 235.248C400.246 235.378 400.391 235.451 400.541 235.451H420.638C420.789 235.45 420.933 235.377 421.039 235.247C421.146 235.118 421.206 234.942 421.206 234.759V231.216H399.973Z" fill="#3F3D56"/>
<path d="M451.698 137.14H370.189C369.489 137.141 368.818 137.481 368.322 138.084C367.827 138.688 367.548 139.506 367.547 140.359V207.398C367.548 208.252 367.827 209.071 368.322 209.674C368.817 210.278 369.489 210.617 370.189 210.618H451.698C452.398 210.617 453.069 210.278 453.565 209.674C454.06 209.071 454.339 208.252 454.339 207.398V140.359C454.338 139.506 454.059 138.688 453.564 138.084C453.069 137.481 452.398 137.141 451.698 137.14Z" fill="#E6E6E6"/>
<path d="M451.017 139.465H370.87C370.495 139.466 370.136 139.648 369.871 139.972C369.606 140.295 369.457 140.734 369.457 141.191V206.568C369.458 207.024 369.607 207.462 369.872 207.785C370.137 208.108 370.496 208.289 370.87 208.29H451.017C451.392 208.289 451.751 208.108 452.015 207.785C452.28 207.462 452.429 207.024 452.43 206.568V141.191C452.43 140.734 452.281 140.295 452.016 139.972C451.751 139.648 451.392 139.466 451.017 139.465Z" fill="white"/>
<path d="M435.406 236.684H387.723C387.592 236.684 387.463 236.648 387.345 236.58C387.228 236.511 387.124 236.412 387.041 236.288C386.959 236.165 386.901 236.02 386.87 235.866C386.839 235.711 386.837 235.55 386.864 235.394L387.604 231.111C387.646 230.872 387.754 230.657 387.91 230.502C388.067 230.348 388.261 230.263 388.462 230.262H434.666C434.867 230.263 435.062 230.348 435.218 230.502C435.374 230.657 435.482 230.872 435.524 231.111L436.264 235.394C436.291 235.55 436.289 235.711 436.258 235.866C436.228 236.02 436.169 236.165 436.087 236.288C436.005 236.412 435.901 236.511 435.783 236.58C435.665 236.648 435.536 236.684 435.406 236.684Z" fill="#CCCCCC"/>
<path d="M390.012 231.034H389.059C388.916 231.034 388.801 231.174 388.801 231.348V231.794C388.801 231.967 388.916 232.108 389.059 232.108H390.012C390.154 232.108 390.27 231.967 390.27 231.794V231.348C390.27 231.174 390.154 231.034 390.012 231.034Z" fill="#E6E6E6"/>
<path d="M392.949 231.034H391.996C391.854 231.034 391.738 231.174 391.738 231.348V231.794C391.738 231.967 391.854 232.108 391.996 232.108H392.949C393.092 232.108 393.207 231.967 393.207 231.794V231.348C393.207 231.174 393.092 231.034 392.949 231.034Z" fill="#E6E6E6"/>
<path d="M395.886 231.034H394.933C394.791 231.034 394.675 231.174 394.675 231.348V231.794C394.675 231.967 394.791 232.108 394.933 232.108H395.886C396.029 232.108 396.144 231.967 396.144 231.794V231.348C396.144 231.174 396.029 231.034 395.886 231.034Z" fill="#E6E6E6"/>
<path d="M398.824 231.034H397.87C397.728 231.034 397.613 231.174 397.613 231.348V231.794C397.613 231.967 397.728 232.108 397.87 232.108H398.824C398.966 232.108 399.081 231.967 399.081 231.794V231.348C399.081 231.174 398.966 231.034 398.824 231.034Z" fill="#E6E6E6"/>
<path d="M401.761 231.034H400.807C400.665 231.034 400.55 231.174 400.55 231.348V231.794C400.55 231.967 400.665 232.108 400.807 232.108H401.761C401.903 232.108 402.018 231.967 402.018 231.794V231.348C402.018 231.174 401.903 231.034 401.761 231.034Z" fill="#E6E6E6"/>
<path d="M404.698 231.034H403.744C403.602 231.034 403.487 231.174 403.487 231.348V231.794C403.487 231.967 403.602 232.108 403.744 232.108H404.698C404.84 232.108 404.955 231.967 404.955 231.794V231.348C404.955 231.174 404.84 231.034 404.698 231.034Z" fill="#E6E6E6"/>
<path d="M407.635 231.034H406.682C406.539 231.034 406.424 231.174 406.424 231.348V231.794C406.424 231.967 406.539 232.108 406.682 232.108H407.635C407.777 232.108 407.893 231.967 407.893 231.794V231.348C407.893 231.174 407.777 231.034 407.635 231.034Z" fill="#E6E6E6"/>
<path d="M410.572 231.034H409.619C409.477 231.034 409.361 231.174 409.361 231.348V231.794C409.361 231.967 409.477 232.108 409.619 232.108H410.572C410.715 232.108 410.83 231.967 410.83 231.794V231.348C410.83 231.174 410.715 231.034 410.572 231.034Z" fill="#E6E6E6"/>
<path d="M413.51 231.034H412.556C412.414 231.034 412.299 231.174 412.299 231.348V231.794C412.299 231.967 412.414 232.108 412.556 232.108H413.51C413.652 232.108 413.767 231.967 413.767 231.794V231.348C413.767 231.174 413.652 231.034 413.51 231.034Z" fill="#E6E6E6"/>
<path d="M416.447 231.034H415.493C415.351 231.034 415.236 231.174 415.236 231.348V231.794C415.236 231.967 415.351 232.108 415.493 232.108H416.447C416.589 232.108 416.704 231.967 416.704 231.794V231.348C416.704 231.174 416.589 231.034 416.447 231.034Z" fill="#E6E6E6"/>
<path d="M419.384 231.034H418.43C418.288 231.034 418.173 231.174 418.173 231.348V231.794C418.173 231.967 418.288 232.108 418.43 232.108H419.384C419.526 232.108 419.641 231.967 419.641 231.794V231.348C419.641 231.174 419.526 231.034 419.384 231.034Z" fill="#E6E6E6"/>
<path d="M422.321 231.034H421.368C421.225 231.034 421.11 231.174 421.11 231.348V231.794C421.11 231.967 421.225 232.108 421.368 232.108H422.321C422.463 232.108 422.579 231.967 422.579 231.794V231.348C422.579 231.174 422.463 231.034 422.321 231.034Z" fill="#E6E6E6"/>
<path d="M425.258 231.034H424.305C424.163 231.034 424.047 231.174 424.047 231.348V231.794C424.047 231.967 424.163 232.108 424.305 232.108H425.258C425.401 232.108 425.516 231.967 425.516 231.794V231.348C425.516 231.174 425.401 231.034 425.258 231.034Z" fill="#E6E6E6"/>
<path d="M428.195 231.034H427.242C427.1 231.034 426.984 231.174 426.984 231.348V231.794C426.984 231.967 427.1 232.108 427.242 232.108H428.195C428.338 232.108 428.453 231.967 428.453 231.794V231.348C428.453 231.174 428.338 231.034 428.195 231.034Z" fill="#E6E6E6"/>
<path d="M431.133 231.034H430.179C430.037 231.034 429.922 231.174 429.922 231.348V231.794C429.922 231.967 430.037 232.108 430.179 232.108H431.133C431.275 232.108 431.39 231.967 431.39 231.794V231.348C431.39 231.174 431.275 231.034 431.133 231.034Z" fill="#E6E6E6"/>
<path d="M434.07 231.034H433.117C432.974 231.034 432.859 231.174 432.859 231.348V231.794C432.859 231.967 432.974 232.108 433.117 232.108H434.07C434.212 232.108 434.327 231.967 434.327 231.794V231.348C434.327 231.174 434.212 231.034 434.07 231.034Z" fill="#E6E6E6"/>
<path d="M389.977 232.824H389.024C388.882 232.824 388.766 232.964 388.766 233.138V233.584C388.766 233.757 388.882 233.898 389.024 233.898H389.977C390.12 233.898 390.235 233.757 390.235 233.584V233.138C390.235 232.964 390.12 232.824 389.977 232.824Z" fill="#E6E6E6"/>
<path d="M392.914 232.824H391.961C391.819 232.824 391.703 232.964 391.703 233.138V233.584C391.703 233.757 391.819 233.898 391.961 233.898H392.914C393.057 233.898 393.172 233.757 393.172 233.584V233.138C393.172 232.964 393.057 232.824 392.914 232.824Z" fill="#E6E6E6"/>
<path d="M395.852 232.824H394.898C394.756 232.824 394.641 232.964 394.641 233.138V233.584C394.641 233.757 394.756 233.898 394.898 233.898H395.852C395.994 233.898 396.109 233.757 396.109 233.584V233.138C396.109 232.964 395.994 232.824 395.852 232.824Z" fill="#E6E6E6"/>
<path d="M398.789 232.824H397.836C397.693 232.824 397.578 232.964 397.578 233.138V233.584C397.578 233.757 397.693 233.898 397.836 233.898H398.789C398.931 233.898 399.046 233.757 399.046 233.584V233.138C399.046 232.964 398.931 232.824 398.789 232.824Z" fill="#E6E6E6"/>
<path d="M401.726 232.824H400.773C400.63 232.824 400.515 232.964 400.515 233.138V233.584C400.515 233.757 400.63 233.898 400.773 233.898H401.726C401.868 233.898 401.984 233.757 401.984 233.584V233.138C401.984 232.964 401.868 232.824 401.726 232.824Z" fill="#E6E6E6"/>
<path d="M404.663 232.824H403.71C403.568 232.824 403.452 232.964 403.452 233.138V233.584C403.452 233.757 403.568 233.898 403.71 233.898H404.663C404.805 233.898 404.921 233.757 404.921 233.584V233.138C404.921 232.964 404.805 232.824 404.663 232.824Z" fill="#E6E6E6"/>
<path d="M407.6 232.824H406.647C406.505 232.824 406.389 232.964 406.389 233.138V233.584C406.389 233.757 406.505 233.898 406.647 233.898H407.6C407.743 233.898 407.858 233.757 407.858 233.584V233.138C407.858 232.964 407.743 232.824 407.6 232.824Z" fill="#E6E6E6"/>
<path d="M410.538 232.824H409.584C409.442 232.824 409.327 232.964 409.327 233.138V233.584C409.327 233.757 409.442 233.898 409.584 233.898H410.538C410.68 233.898 410.795 233.757 410.795 233.584V233.138C410.795 232.964 410.68 232.824 410.538 232.824Z" fill="#E6E6E6"/>
<path d="M413.475 232.824H412.521C412.379 232.824 412.264 232.964 412.264 233.138V233.584C412.264 233.757 412.379 233.898 412.521 233.898H413.475C413.617 233.898 413.732 233.757 413.732 233.584V233.138C413.732 232.964 413.617 232.824 413.475 232.824Z" fill="#E6E6E6"/>
<path d="M416.412 232.824H415.459C415.316 232.824 415.201 232.964 415.201 233.138V233.584C415.201 233.757 415.316 233.898 415.459 233.898H416.412C416.554 233.898 416.67 233.757 416.67 233.584V233.138C416.67 232.964 416.554 232.824 416.412 232.824Z" fill="#E6E6E6"/>
<path d="M419.349 232.824H418.396C418.254 232.824 418.138 232.964 418.138 233.138V233.584C418.138 233.757 418.254 233.898 418.396 233.898H419.349C419.491 233.898 419.607 233.757 419.607 233.584V233.138C419.607 232.964 419.491 232.824 419.349 232.824Z" fill="#E6E6E6"/>
<path d="M422.286 232.824H421.333C421.191 232.824 421.075 232.964 421.075 233.138V233.584C421.075 233.757 421.191 233.898 421.333 233.898H422.286C422.429 233.898 422.544 233.757 422.544 233.584V233.138C422.544 232.964 422.429 232.824 422.286 232.824Z" fill="#E6E6E6"/>
<path d="M425.223 232.824H424.27C424.128 232.824 424.012 232.964 424.012 233.138V233.584C424.012 233.757 424.128 233.898 424.27 233.898H425.223C425.366 233.898 425.481 233.757 425.481 233.584V233.138C425.481 232.964 425.366 232.824 425.223 232.824Z" fill="#E6E6E6"/>
<path d="M428.161 232.824H427.207C427.065 232.824 426.95 232.964 426.95 233.138V233.584C426.95 233.757 427.065 233.898 427.207 233.898H428.161C428.303 233.898 428.418 233.757 428.418 233.584V233.138C428.418 232.964 428.303 232.824 428.161 232.824Z" fill="#E6E6E6"/>
<path d="M431.098 232.824H430.145C430.002 232.824 429.887 232.964 429.887 233.138V233.584C429.887 233.757 430.002 233.898 430.145 233.898H431.098C431.24 233.898 431.356 233.757 431.356 233.584V233.138C431.356 232.964 431.24 232.824 431.098 232.824Z" fill="#E6E6E6"/>
<path d="M434.035 232.824H433.082C432.94 232.824 432.824 232.964 432.824 233.138V233.584C432.824 233.757 432.94 233.898 433.082 233.898H434.035C434.177 233.898 434.293 233.757 434.293 233.584V233.138C434.293 232.964 434.177 232.824 434.035 232.824Z" fill="#E6E6E6"/>
<path d="M414.356 234.972H403.122C402.98 234.972 402.865 235.112 402.865 235.286V235.732C402.865 235.905 402.98 236.046 403.122 236.046H414.356C414.498 236.046 414.613 235.905 414.613 235.732V235.286C414.613 235.112 414.498 234.972 414.356 234.972Z" fill="#E6E6E6"/>
<path d="M446.988 148.473H371.995C371.917 148.471 371.843 148.431 371.788 148.363C371.734 148.295 371.703 148.204 371.703 148.109C371.703 148.014 371.734 147.923 371.788 147.855C371.843 147.787 371.917 147.748 371.995 147.746H446.988C447.066 147.748 447.14 147.787 447.195 147.855C447.249 147.923 447.28 148.014 447.28 148.109C447.28 148.204 447.249 148.295 447.195 148.363C447.14 148.431 447.066 148.471 446.988 148.473Z" fill="#CACACA"/>
<path d="M377.1 145.89C378.065 145.89 378.848 144.915 378.848 143.712C378.848 142.509 378.065 141.534 377.1 141.534C376.135 141.534 375.352 142.509 375.352 143.712C375.352 144.915 376.135 145.89 377.1 145.89Z" fill="#CCCCCC"/>
<path d="M383.137 145.89C384.103 145.89 384.885 144.915 384.885 143.712C384.885 142.509 384.103 141.534 383.137 141.534C382.172 141.534 381.39 142.509 381.39 143.712C381.39 144.915 382.172 145.89 383.137 145.89Z" fill="#CCCCCC"/>
<path d="M389.175 145.89C390.141 145.89 390.923 144.915 390.923 143.712C390.923 142.509 390.141 141.534 389.175 141.534C388.21 141.534 387.427 142.509 387.427 143.712C387.427 144.915 388.21 145.89 389.175 145.89Z" fill="#CCCCCC"/>
<path d="M443.353 142.074H439.064C438.979 142.076 438.898 142.119 438.838 142.193C438.779 142.267 438.746 142.366 438.746 142.47C438.746 142.574 438.779 142.673 438.838 142.747C438.898 142.821 438.979 142.864 439.064 142.866H443.353C443.438 142.864 443.519 142.821 443.578 142.747C443.638 142.673 443.671 142.574 443.671 142.47C443.671 142.366 443.638 142.267 443.578 142.193C443.519 142.119 443.438 142.076 443.353 142.074H443.353Z" fill="#CCCCCC"/>
<path d="M443.353 143.56H439.064C438.979 143.562 438.898 143.605 438.839 143.679C438.779 143.753 438.746 143.852 438.746 143.956C438.746 144.059 438.779 144.159 438.839 144.233C438.898 144.307 438.979 144.349 439.064 144.351H443.353C443.438 144.349 443.519 144.307 443.578 144.233C443.638 144.159 443.671 144.059 443.671 143.956C443.671 143.852 443.638 143.753 443.578 143.679C443.519 143.605 443.438 143.562 443.353 143.56H443.353Z" fill="#CCCCCC"/>
<path d="M443.353 145.044H439.064C438.979 145.046 438.898 145.088 438.838 145.162C438.779 145.236 438.746 145.336 438.746 145.44C438.746 145.543 438.779 145.643 438.838 145.717C438.898 145.791 438.979 145.833 439.064 145.835H443.353C443.438 145.833 443.519 145.791 443.578 145.717C443.638 145.643 443.671 145.543 443.671 145.44C443.671 145.336 443.638 145.236 443.578 145.162C443.519 145.088 443.438 145.046 443.353 145.044H443.353Z" fill="#CCCCCC"/>
<path d="M415.547 168.276H406.176C405.472 168.276 404.901 168.972 404.901 169.83C404.901 170.687 405.472 171.383 406.176 171.383H415.547C416.25 171.383 416.821 170.687 416.821 169.83C416.821 168.972 416.25 168.276 415.547 168.276Z" fill="#4B91CB"/>
<path d="M421.6 174.49H400.122C399.418 174.49 398.848 175.185 398.848 176.043C398.848 176.901 399.418 177.596 400.122 177.596H421.6C422.304 177.596 422.875 176.901 422.875 176.043C422.875 175.185 422.304 174.49 421.6 174.49Z" fill="#E6E6E6"/>
<path d="M421.6 180.703H400.122C399.418 180.703 398.848 181.398 398.848 182.256C398.848 183.114 399.418 183.81 400.122 183.81H421.6C422.304 183.81 422.875 183.114 422.875 182.256C422.875 181.398 422.304 180.703 421.6 180.703Z" fill="#E6E6E6"/>
<path d="M276.9 277.501L272.58 274.983L278.514 252.975L284.89 256.691L276.9 277.501Z" fill="#FFB6B6"/>
<path d="M305.862 273.953C305.547 274.193 305.233 274.429 304.916 274.665C304.284 275.136 303.647 275.601 303.009 276.057C302.688 276.285 302.365 276.513 302.044 276.738V276.749L302.025 276.753L302.019 276.757L301.53 276.904L300.829 274.645L300.505 273.605L300.048 272.131L299.211 269.436L294.8 255.242L301.657 253.18L301.914 254.461H301.917L302.044 255.095L304.44 266.937L304.929 269.358L304.945 269.432L305.24 270.878L305.493 272.131L305.776 273.531L305.862 273.953Z" fill="#FFB6B6"/>
<path d="M346.767 224.107C346.332 224.958 345.888 225.805 345.441 226.644C344.609 228.207 343.756 229.746 342.88 231.262C342.88 231.266 342.877 231.266 342.874 231.27C342.363 231.847 341.798 232.349 341.192 232.767C341.166 232.79 341.138 232.805 341.112 232.825C340.666 233.126 340.191 233.358 339.697 233.517C339.52 233.571 339.339 233.625 339.161 233.68C338.52 233.865 337.885 234.024 337.254 234.163C336.131 234.407 335.02 234.581 333.916 234.689C333.827 234.701 333.738 234.708 333.649 234.716C329.109 235.122 324.688 234.468 320.075 233.397C317.796 232.871 315.47 232.241 313.062 231.587C312.275 231.371 311.485 231.158 310.685 230.945C310.625 230.93 310.562 230.91 310.498 230.895C309.356 230.589 308.194 230.288 307.005 229.99C305.507 229.615 303.961 229.251 302.356 228.907L302.47 231.665C302.565 233.786 302.927 235.877 303.543 237.864C304.228 240.308 304.771 242.242 303.625 246.268L303.073 248.218C303.359 249.186 303.457 250.221 303.36 251.243C303.263 252.265 302.972 253.246 302.511 254.108L302.4 254.313L307.005 268.511L307.303 269.431H304.945L302.045 269.435H297.13L290.038 252.093L289.698 251.265V251.223L290.431 217.896C290.441 217.602 290.46 217.304 290.492 217.01C290.621 215.674 290.967 214.383 291.51 213.211C292.053 212.04 292.783 211.012 293.655 210.188C294.491 209.392 295.449 208.806 296.473 208.464C297.496 208.123 298.565 208.033 299.617 208.2L302.045 208.583L307.004 209.364L310.498 209.917L310.568 209.929L320.871 211.553L321.61 207.879L321.747 207.817L326.084 205.88L341.087 199.177L341.125 199.162L342.112 198.721L342.229 198.953C342.264 199.023 342.299 199.092 342.331 199.162C343.306 201.293 344.1 203.54 344.701 205.868C345.711 209.671 346.543 213.541 347.192 217.459C347.221 217.629 347.246 217.784 347.268 217.923L347.278 217.966C347.287 218.031 347.294 218.074 347.297 218.086C347.594 220.113 347.41 222.203 346.767 224.107Z" fill="#2F2E41"/>
<path d="M347.4 211.825C347.352 211.578 347.292 211.327 347.229 211.083C346.725 209.238 346.138 207.427 345.471 205.661C344.722 203.65 343.824 201.495 342.755 199.163C342.237 198.034 341.681 196.859 341.086 195.64C340.787 195.029 340.477 194.406 340.156 193.772C340.143 193.743 340.129 193.714 340.115 193.687L340.023 193.501L325.179 195.922L319.651 196.823L319.321 200.18L319.242 201.012C319.239 201.012 319.239 201.012 319.242 201.016L319.02 203.282V203.286L318.725 206.279L318.699 206.276L310.497 204.98L302.043 203.646L297.503 202.93C296.45 202.763 295.381 202.853 294.358 203.194C293.334 203.535 292.376 204.121 291.54 204.918C290.668 205.742 289.939 206.77 289.396 207.942C288.853 209.113 288.506 210.404 288.377 211.74C288.348 212.011 288.329 212.29 288.32 212.564L284.036 224.937C281.473 232.336 279.84 240.164 279.194 248.157L276.052 260.398L276.5 260.448L283.157 261.202L284.915 261.404L288.786 254.515C289.227 253.73 289.646 252.922 290.036 252.094C290.679 250.743 291.25 249.342 291.747 247.902L300.12 223.614C300.768 223.749 301.409 223.878 302.043 224.001C304.979 224.581 307.796 225.054 310.497 225.42C319.277 226.615 326.879 226.708 333.648 225.695C335.548 225.412 337.386 225.041 339.159 224.581C339.81 224.414 340.452 224.235 341.086 224.043C341.235 224.001 341.381 223.958 341.527 223.912C342.838 223.499 344.044 222.693 345.033 221.566C346.023 220.439 346.764 219.027 347.191 217.461C347.699 215.645 347.772 213.69 347.4 211.825Z" fill="#2F2E41"/>
<path d="M278.28 273.907L273.606 271.177L272.873 270.748L271.702 274.252L263.528 276.444C263.124 276.552 262.759 276.815 262.486 277.194C262.213 277.573 262.046 278.049 262.011 278.551C261.976 279.054 262.073 279.557 262.289 279.987C262.505 280.417 262.828 280.752 263.211 280.942L271.198 284.914L273.733 282.134L273.111 285.866L276.119 287.363L279.416 274.573L278.28 273.907Z" fill="#2F2E41"/>
<path d="M307.004 268.511L307.303 269.431H307.004V268.511Z" fill="#2F2E41"/>
<path d="M305.377 269.628L300.479 271.696L299.711 272.02L300.901 275.514L296.359 284.082C296.134 284.505 296.026 285.005 296.051 285.509C296.076 286.012 296.232 286.492 296.497 286.88C296.762 287.267 297.122 287.541 297.523 287.662C297.925 287.783 298.348 287.743 298.73 287.55L306.698 283.523L306.895 279.373L308.607 282.558L311.609 281.042L306.568 269.126L305.377 269.628Z" fill="#2F2E41"/>
<path d="M275.651 141.661C275.883 142.213 276.212 142.695 276.614 143.075C277.016 143.455 277.481 143.723 277.977 143.86C278.473 143.997 278.987 144 279.484 143.868C279.981 143.737 280.448 143.474 280.853 143.099L291.151 151.431L291.171 143.602L281.388 136.89C280.826 136.103 280.046 135.595 279.197 135.462C278.348 135.33 277.488 135.581 276.781 136.169C276.074 136.758 275.568 137.642 275.36 138.654C275.152 139.666 275.255 140.736 275.651 141.661V141.661Z" fill="#FFB6B6"/>
<path d="M283.345 145.28L288.15 138.618L307.714 152.774L333.648 149.879C334.93 149.736 336.222 149.939 337.433 150.473C338.643 151.007 339.742 151.859 340.652 152.969C341.562 154.079 342.26 155.419 342.697 156.895C343.134 158.371 343.299 159.946 343.181 161.508C342.964 164.33 341.837 166.932 340.049 168.742C338.26 170.553 335.955 171.425 333.64 171.167L304.431 167.871L283.345 145.28Z" fill="#CCCCCC"/>
<path d="M343.538 145.383L343.493 145.314C339.845 144.875 336.17 145.736 332.915 147.792C329.66 149.847 326.964 153.01 325.154 156.896L322.953 161.621C315.834 172.229 321.007 179.545 321.317 180.633L318.846 194.52L319.4 199.168L319.676 200.548L347.884 218.513C349.49 209.108 347.937 201.094 342.087 194.972L347.748 173.503C349.003 168.757 349.275 163.705 348.541 158.799C347.806 153.893 346.088 149.284 343.538 145.383Z" fill="#CCCCCC"/>
<path d="M321.11 249.68H312.061C311.564 249.68 311.083 249.46 310.707 249.063C310.332 248.665 310.086 248.115 310.016 247.515C309.458 242.504 309.458 237.424 310.016 232.413C310.085 231.819 310.326 231.276 310.694 230.879C311.063 230.482 311.535 230.258 312.027 230.248C314.874 228.692 317.939 228.692 321.141 230.247C321.439 230.252 321.732 230.336 322.001 230.494C322.27 230.652 322.507 230.88 322.695 231.161C322.892 231.454 323.033 231.796 323.108 232.164C323.182 232.531 323.189 232.914 323.127 233.285C322.4 237.693 322.4 242.234 323.127 246.643C323.189 247.013 323.182 247.396 323.108 247.764C323.033 248.131 322.892 248.473 322.695 248.766C322.503 249.053 322.261 249.283 321.987 249.441C321.713 249.599 321.413 249.681 321.11 249.68Z" fill="#4B91CB"/>
<path d="M320.162 236.005H312.547C312.484 236.006 312.421 235.991 312.363 235.962C312.305 235.933 312.252 235.891 312.207 235.837C312.163 235.783 312.127 235.719 312.103 235.648C312.079 235.577 312.066 235.502 312.066 235.425C312.066 235.348 312.079 235.272 312.103 235.202C312.127 235.131 312.163 235.067 312.207 235.013C312.252 234.959 312.305 234.916 312.363 234.887C312.421 234.859 312.484 234.844 312.547 234.845H320.162C320.225 234.844 320.287 234.859 320.346 234.887C320.404 234.916 320.457 234.959 320.501 235.013C320.546 235.067 320.581 235.131 320.606 235.202C320.63 235.272 320.642 235.348 320.642 235.425C320.642 235.502 320.63 235.577 320.606 235.648C320.581 235.719 320.546 235.783 320.501 235.837C320.457 235.891 320.404 235.933 320.346 235.962C320.287 235.991 320.225 236.006 320.162 236.005Z" fill="white"/>
<path d="M320.162 240.646H312.547C312.484 240.647 312.421 240.632 312.363 240.603C312.305 240.574 312.252 240.532 312.207 240.478C312.163 240.424 312.127 240.36 312.103 240.289C312.079 240.218 312.066 240.142 312.066 240.066C312.066 239.989 312.079 239.913 312.103 239.843C312.127 239.772 312.163 239.708 312.207 239.654C312.252 239.6 312.305 239.557 312.363 239.528C312.421 239.5 312.484 239.485 312.547 239.486H320.162C320.225 239.485 320.287 239.5 320.346 239.528C320.404 239.557 320.457 239.6 320.501 239.654C320.546 239.708 320.581 239.772 320.606 239.843C320.63 239.913 320.642 239.989 320.642 240.066C320.642 240.142 320.63 240.218 320.606 240.289C320.581 240.36 320.546 240.424 320.501 240.478C320.457 240.532 320.404 240.574 320.346 240.603C320.287 240.632 320.225 240.647 320.162 240.646Z" fill="white"/>
<path d="M320.162 245.287H312.546C312.483 245.288 312.421 245.273 312.363 245.244C312.305 245.216 312.252 245.173 312.207 245.119C312.162 245.065 312.127 245.001 312.103 244.93C312.078 244.859 312.066 244.784 312.066 244.707C312.066 244.63 312.078 244.554 312.103 244.484C312.127 244.413 312.162 244.349 312.207 244.295C312.252 244.241 312.305 244.198 312.363 244.169C312.421 244.14 312.483 244.126 312.546 244.127H320.162C320.225 244.126 320.287 244.14 320.345 244.169C320.404 244.198 320.457 244.241 320.501 244.295C320.546 244.349 320.582 244.413 320.606 244.484C320.63 244.554 320.642 244.63 320.642 244.707C320.642 244.784 320.63 244.859 320.606 244.93C320.582 245.001 320.546 245.065 320.501 245.119C320.457 245.173 320.404 245.216 320.345 245.244C320.287 245.273 320.225 245.288 320.162 245.287Z" fill="white"/>
<path d="M277.31 145.484H268.262C267.764 145.483 267.284 145.264 266.908 144.866C266.532 144.468 266.287 143.919 266.217 143.318C265.658 138.307 265.658 133.227 266.217 128.216C266.286 127.623 266.527 127.079 266.895 126.682C267.263 126.285 267.736 126.062 268.227 126.051C271.074 124.496 274.14 124.496 277.341 126.051C277.64 126.056 277.933 126.14 278.202 126.298C278.47 126.456 278.707 126.683 278.896 126.965C279.093 127.257 279.234 127.6 279.308 127.967C279.383 128.335 279.389 128.717 279.327 129.088C278.601 133.497 278.601 138.038 279.327 142.446C279.389 142.817 279.383 143.2 279.308 143.567C279.234 143.935 279.093 144.277 278.896 144.57C278.704 144.856 278.462 145.087 278.188 145.245C277.913 145.403 277.614 145.485 277.31 145.484Z" fill="#4B91CB"/>
<path d="M276.363 131.809H268.747C268.684 131.809 268.622 131.795 268.564 131.766C268.505 131.737 268.452 131.694 268.408 131.641C268.363 131.587 268.328 131.522 268.303 131.452C268.279 131.381 268.267 131.305 268.267 131.228C268.267 131.152 268.279 131.076 268.303 131.005C268.328 130.935 268.363 130.87 268.408 130.816C268.452 130.762 268.505 130.72 268.564 130.691C268.622 130.662 268.684 130.648 268.747 130.648H276.363C276.425 130.648 276.488 130.662 276.546 130.691C276.604 130.72 276.657 130.762 276.702 130.816C276.746 130.87 276.782 130.935 276.806 131.005C276.83 131.076 276.843 131.152 276.843 131.228C276.843 131.305 276.83 131.381 276.806 131.452C276.782 131.522 276.746 131.587 276.702 131.641C276.657 131.694 276.604 131.737 276.546 131.766C276.488 131.795 276.425 131.809 276.363 131.809Z" fill="white"/>
<path d="M276.363 136.45H268.747C268.684 136.45 268.622 136.436 268.564 136.407C268.505 136.378 268.452 136.335 268.408 136.281C268.363 136.228 268.328 136.163 268.303 136.093C268.279 136.022 268.267 135.946 268.267 135.869C268.267 135.793 268.279 135.717 268.303 135.646C268.328 135.576 268.363 135.511 268.408 135.457C268.452 135.403 268.505 135.361 268.564 135.332C268.622 135.303 268.684 135.289 268.747 135.289H276.363C276.425 135.289 276.488 135.303 276.546 135.332C276.604 135.361 276.657 135.403 276.702 135.457C276.746 135.511 276.782 135.576 276.806 135.646C276.83 135.717 276.843 135.793 276.843 135.869C276.843 135.946 276.83 136.022 276.806 136.093C276.782 136.163 276.746 136.228 276.702 136.281C276.657 136.335 276.604 136.378 276.546 136.407C276.488 136.436 276.425 136.45 276.363 136.45Z" fill="white"/>
<path d="M276.363 141.091H268.747C268.684 141.091 268.622 141.077 268.564 141.048C268.505 141.019 268.452 140.977 268.408 140.923C268.363 140.869 268.327 140.805 268.303 140.734C268.279 140.663 268.267 140.587 268.267 140.511C268.267 140.434 268.279 140.358 268.303 140.287C268.327 140.217 268.363 140.152 268.408 140.098C268.452 140.044 268.505 140.002 268.564 139.973C268.622 139.944 268.684 139.93 268.747 139.93H276.363C276.425 139.93 276.488 139.944 276.546 139.973C276.604 140.002 276.657 140.044 276.702 140.098C276.747 140.152 276.782 140.217 276.806 140.287C276.831 140.358 276.843 140.434 276.843 140.511C276.843 140.587 276.831 140.663 276.806 140.734C276.782 140.805 276.747 140.869 276.702 140.923C276.657 140.977 276.604 141.019 276.546 141.048C276.488 141.077 276.425 141.091 276.363 141.091Z" fill="white"/>
<path d="M118.471 173.784H109.423C108.926 173.784 108.445 173.564 108.069 173.167C107.693 172.769 107.448 172.219 107.378 171.618C106.82 166.608 106.82 161.528 107.378 156.517C107.447 155.923 107.688 155.379 108.056 154.983C108.425 154.586 108.897 154.362 109.389 154.351C112.235 152.796 115.301 152.796 118.502 154.351C118.801 154.356 119.094 154.44 119.363 154.598C119.631 154.756 119.868 154.984 120.057 155.265C120.254 155.558 120.395 155.9 120.469 156.267C120.544 156.635 120.55 157.018 120.488 157.389C119.762 161.797 119.762 166.338 120.488 170.747C120.55 171.117 120.544 171.5 120.469 171.868C120.395 172.235 120.254 172.577 120.057 172.87C119.865 173.156 119.623 173.387 119.349 173.545C119.075 173.703 118.775 173.785 118.471 173.784Z" fill="#4B91CB"/>
<path d="M117.524 160.109H109.908C109.845 160.109 109.783 160.095 109.725 160.066C109.666 160.037 109.614 159.995 109.569 159.941C109.524 159.887 109.489 159.823 109.465 159.752C109.44 159.681 109.428 159.605 109.428 159.529C109.428 159.452 109.44 159.376 109.465 159.305C109.489 159.235 109.524 159.171 109.569 159.117C109.614 159.063 109.666 159.02 109.725 158.991C109.783 158.962 109.845 158.948 109.908 158.949H117.524C117.587 158.948 117.649 158.962 117.707 158.991C117.765 159.02 117.818 159.063 117.863 159.117C117.908 159.171 117.943 159.235 117.967 159.305C117.991 159.376 118.004 159.452 118.004 159.529C118.004 159.605 117.991 159.681 117.967 159.752C117.943 159.823 117.908 159.887 117.863 159.941C117.818 159.995 117.765 160.037 117.707 160.066C117.649 160.095 117.587 160.109 117.524 160.109Z" fill="white"/>
<path d="M117.524 164.75H109.908C109.845 164.751 109.783 164.736 109.725 164.707C109.666 164.678 109.614 164.636 109.569 164.582C109.524 164.528 109.489 164.464 109.465 164.393C109.44 164.322 109.428 164.246 109.428 164.17C109.428 164.093 109.44 164.017 109.465 163.947C109.489 163.876 109.524 163.812 109.569 163.758C109.614 163.704 109.666 163.661 109.725 163.632C109.783 163.603 109.845 163.589 109.908 163.59H117.524C117.587 163.589 117.649 163.603 117.707 163.632C117.765 163.661 117.818 163.704 117.863 163.758C117.908 163.812 117.943 163.876 117.967 163.947C117.991 164.017 118.004 164.093 118.004 164.17C118.004 164.246 117.991 164.322 117.967 164.393C117.943 164.464 117.908 164.528 117.863 164.582C117.818 164.636 117.765 164.678 117.707 164.707C117.649 164.736 117.587 164.751 117.524 164.75Z" fill="white"/>
<path d="M117.524 169.391H109.908C109.845 169.392 109.783 169.377 109.725 169.348C109.666 169.319 109.613 169.277 109.569 169.223C109.524 169.169 109.489 169.105 109.464 169.034C109.44 168.963 109.428 168.887 109.428 168.811C109.428 168.734 109.44 168.658 109.464 168.587C109.489 168.517 109.524 168.453 109.569 168.399C109.613 168.345 109.666 168.302 109.725 168.273C109.783 168.244 109.845 168.23 109.908 168.231H117.524C117.587 168.23 117.649 168.244 117.707 168.273C117.765 168.302 117.818 168.345 117.863 168.399C117.908 168.453 117.943 168.517 117.968 168.587C117.992 168.658 118.004 168.734 118.004 168.811C118.004 168.887 117.992 168.963 117.968 169.034C117.943 169.105 117.908 169.169 117.863 169.223C117.818 169.277 117.765 169.319 117.707 169.348C117.649 169.377 117.587 169.392 117.524 169.391Z" fill="white"/>
<path d="M323.761 235.583C324.198 235.268 324.574 234.839 324.861 234.328C325.149 233.816 325.341 233.234 325.423 232.623C325.506 232.011 325.478 231.385 325.341 230.788C325.203 230.191 324.961 229.639 324.629 229.169L330.843 216.144L324.429 216.585L319.512 228.885C318.901 229.617 318.532 230.595 318.473 231.637C318.415 232.678 318.672 233.709 319.196 234.534C319.719 235.36 320.473 235.922 321.315 236.116C322.156 236.309 323.026 236.119 323.761 235.583V235.583Z" fill="#FFB6B6"/>
<path d="M326.268 226.007L320.526 220.556L330.96 195.913L327.05 164.53C326.857 162.979 326.946 161.395 327.312 159.891C327.678 158.386 328.31 156.998 329.165 155.826C330.021 154.653 331.077 153.724 332.26 153.105C333.443 152.485 334.723 152.191 336.009 152.243C338.333 152.339 340.531 153.555 342.12 155.624C343.709 157.693 344.56 160.445 344.485 163.278L343.52 199.011L326.268 226.007Z" fill="#CCCCCC"/>
<path d="M48.752 219.274C49.1136 218.831 49.3912 218.297 49.5651 217.709C49.739 217.121 49.805 216.494 49.7585 215.871C49.712 215.249 49.5541 214.647 49.2959 214.107C49.0378 213.567 48.6856 213.102 48.2643 212.746L53.8484 178.94L47.6818 181.353L43.2119 214.052C42.768 214.955 42.6111 216.024 42.7709 217.058C42.9308 218.092 43.3962 219.019 44.0791 219.662C44.762 220.306 45.6148 220.622 46.4761 220.55C47.3373 220.479 48.1471 220.025 48.752 219.274H48.752Z" fill="#9E616A"/>
<path d="M56.9974 147.749L53.1713 144.229C53.1713 144.229 49.7961 143.938 49.1983 151.357C48.6005 158.776 47.373 173.234 47.373 173.234L41.5183 206.285L49.6229 208.453L55.8937 172.785L59.6556 162.193L56.9974 147.749Z" fill="#CCCCCC"/>
<path d="M50.6897 201.718L72.2501 201.28L74.0469 183.323H50.6897V201.718Z" fill="#9E616A"/>
<path d="M70.0938 312.221H75.0711L77.4389 288.821L70.0928 288.821L70.0938 312.221Z" fill="#9E616A"/>
<path d="M38.9119 312.783L43.8892 312.74L46.1224 289.321L39.6491 291.13L38.9119 312.783Z" fill="#9E616A"/>
<path d="M54.479 167.859L53.3513 171.433L53.5766 175.007L75.6489 184.325L74.5539 168.684L72.0727 165.109L54.479 167.859Z" fill="#FFB6B6"/>
<path d="M63.9483 135.697C68.3021 135.697 71.8316 131.395 71.8316 126.088C71.8316 120.782 68.3021 116.48 63.9483 116.48C59.5944 116.48 56.0649 120.782 56.0649 126.088C56.0649 131.395 59.5944 135.697 63.9483 135.697Z" fill="#9E616A"/>
<path d="M68.8593 309.228L76.7274 308.656V312.765L84.2079 319.061C84.5774 319.372 84.8557 319.819 85.0021 320.336C85.1485 320.854 85.1554 321.415 85.0218 321.937C84.8882 322.46 84.621 322.916 84.2593 323.241C83.8976 323.565 83.4604 323.74 83.0114 323.74H73.6441L72.0295 319.676L71.399 323.74H67.8672L68.8593 309.228Z" fill="#2F2E41"/>
<path d="M37.2093 309.804L45.0739 309.165L45.0975 313.273L52.614 319.506C52.9852 319.814 53.2661 320.258 53.4155 320.775C53.5648 321.291 53.575 321.851 53.4444 322.375C53.3137 322.899 53.0492 323.358 52.6894 323.685C52.3296 324.012 51.8934 324.191 51.4444 324.195L42.0773 324.275L40.4394 320.224L39.8323 324.294L36.3005 324.324L37.2093 309.804Z" fill="#2F2E41"/>
<path d="M37.3631 294.841L40.9874 259.532L45.2995 222.304C42.1417 215.156 49.2522 192.959 49.2522 192.959L50.2559 193.018L72.9736 198.241L72.9687 198.215C77.6152 213.661 79.1546 221.292 78.9 237.742L77.9846 296.873H78.2718C78.7483 296.873 79.2053 297.104 79.5422 297.514C79.8792 297.925 80.0685 298.482 80.0685 299.063C80.0685 299.644 79.8792 300.201 79.5422 300.611C79.2053 301.022 78.7483 301.253 78.2718 301.253H69.2883C69.0521 301.253 68.8181 301.197 68.5998 301.087C68.3814 300.977 68.183 300.816 68.0158 300.613C67.8486 300.409 67.716 300.168 67.6255 299.902C67.5351 299.636 67.4885 299.351 67.4885 299.063C67.4885 298.775 67.5351 298.49 67.6255 298.224C67.716 297.958 67.8486 297.717 68.0158 297.513C68.183 297.31 68.3814 297.149 68.5998 297.039C68.8181 296.929 69.0521 296.873 69.2883 296.873H69.5199L61.2741 226.465L54.283 256.028L46.3775 294.57C49.2522 293.694 48.8059 295.724 48.8059 296.873C48.8059 297.454 48.6166 298.011 48.2796 298.422C47.9427 298.832 47.4857 299.063 47.0092 299.063H38.0257C37.6079 299.064 37.203 298.886 36.8808 298.562C36.5587 298.238 36.3395 297.787 36.261 297.286C36.1825 296.786 36.2496 296.268 36.4508 295.822C36.652 295.376 36.9746 295.029 37.3631 294.841H37.3631Z" fill="#2F2E41"/>
<path d="M47.4832 194.109L48.2019 185.349C48.2766 184.992 48.4421 184.672 48.6748 184.437C48.9076 184.201 49.1955 184.061 49.4974 184.038C49.7969 179.865 51.0567 161.863 51.132 161.078L51.1349 161.045L51.7078 146.128C51.7286 145.587 51.9124 145.073 52.2241 144.686C52.5359 144.299 52.9536 144.066 53.3976 144.03L56.4235 143.789C56.4651 143.788 56.5044 143.766 56.5333 143.73C56.5621 143.693 56.5783 143.645 56.5783 143.594C56.5783 143.187 56.6441 142.784 56.772 142.407C56.8999 142.031 57.0873 141.689 57.3236 141.401C57.5599 141.113 57.8404 140.885 58.1491 140.729C58.4578 140.573 58.7887 140.493 59.1229 140.493H68.0817C68.6619 140.493 69.2222 140.751 69.6572 141.219C70.0923 141.687 70.3722 142.333 70.4445 143.035C70.4485 143.083 70.4673 143.128 70.4971 143.16C70.527 143.192 70.5657 143.209 70.6055 143.208H70.6066C71.6245 143.183 72.6163 143.603 73.4019 144.392C74.1875 145.182 74.7148 146.288 74.8883 147.511C76.1131 156.197 78.5676 175.909 77.354 186.869C76.9316 190.684 77.8423 187.662 78.0021 190.854C78.0179 191.163 77.9837 191.472 77.9013 191.764C77.819 192.057 77.6901 192.326 77.5221 192.558C77.866 192.71 78.1468 193.022 78.3034 193.425C78.4601 193.828 78.4799 194.29 78.3587 194.711L78.5162 194.663C78.47 194.887 78.3883 195.096 78.2756 195.281C78.1629 195.466 78.0215 195.621 77.8595 195.739C77.6974 195.857 77.5179 195.935 77.3312 195.969C77.1444 196.002 76.9541 195.99 76.771 195.934L53.3327 199.805C52.5629 199.568 47.2892 195.047 47.4832 194.109Z" fill="#CCCCCC"/>
<path d="M110.114 158.494C109.967 159.093 109.714 159.645 109.373 160.112C109.032 160.579 108.612 160.949 108.141 161.196C107.67 161.443 107.16 161.562 106.648 161.543C106.135 161.524 105.632 161.369 105.174 161.087L96.1132 171.166L94.9102 163.409L103.705 155.052C104.144 154.146 104.84 153.468 105.662 153.146C106.483 152.823 107.374 152.88 108.164 153.304C108.953 153.728 109.588 154.491 109.948 155.447C110.307 156.404 110.366 157.488 110.114 158.494H110.114Z" fill="#9E616A"/>
<path d="M78.5759 150.79C78.5759 150.79 75.4163 142.087 71.4258 143.817C67.4352 145.547 69.4956 153.991 69.4956 153.991L84.4882 181.527C84.4882 181.527 106.113 164.619 103.483 164.5C100.854 164.38 100.067 158.551 100.067 158.551L88.6382 165.511L88.2515 163.034L87.6317 163.789L86.0323 162.255L78.5759 150.79Z" fill="#CCCCCC"/>
<path d="M337.035 141.23C343.114 141.23 348.041 135.224 348.041 127.815C348.041 120.406 343.114 114.4 337.035 114.4C330.957 114.4 326.029 120.406 326.029 127.815C326.029 135.224 330.957 141.23 337.035 141.23Z" fill="#FFB6B6"/>
<path d="M372.358 147.555C371.088 149.749 369.234 151.339 367.111 152.057C366.262 152.365 365.385 152.547 364.499 152.598C364.39 151.378 364.128 150.185 363.723 149.061C363.764 150.257 363.628 151.453 363.32 152.59C361.99 152.498 360.691 152.073 359.502 151.343C358.334 150.626 357.318 149.588 356.537 148.311C355.756 147.033 355.229 145.551 354.999 143.982C354.533 140.313 355.898 136.71 356.392 133.046C356.887 129.382 355.957 124.742 353.014 123.779C350.774 123.046 351.025 123.363 349.162 125.048C351.1 128.541 343.943 141.338 341.014 140.222C339.358 139.591 338.297 137.739 337.956 137.739C335.654 142.572 339.988 150.716 335.62 152.408L335.98 151.969C338.616 148.015 333.105 139.648 335.742 135.695C336.478 134.588 337.261 133.278 337.043 131.879C336.837 130.549 335.106 129.846 334.599 130.938C335.511 128.392 334.164 124.993 331.935 124.339C329.954 123.757 329.99 124.475 328.003 124.786C327.873 123.739 327.63 122.718 327.281 121.749C327.318 122.793 327.217 123.838 326.985 124.844C326.282 124.827 325.605 124.529 325.056 123.994C323.435 122.403 323.764 119.059 325.21 117.235C326.659 115.412 328.811 114.755 330.864 114.33C331.461 109.265 342.927 108.737 344.447 113.798C345.095 110.018 348.976 108.057 351.994 109.229C355.011 110.402 357.105 113.837 358.207 117.456C359.309 121.073 359.617 124.966 360.296 128.734C360.975 132.503 362.123 136.34 364.486 138.909C366.849 141.474 370.699 142.324 373.189 139.94C373.551 141.2 373.664 142.546 373.52 143.869C373.375 145.191 372.977 146.454 372.358 147.555Z" fill="#2F2E41"/>
<path d="M475.617 178.168L474.076 187.59C473.96 188.311 473.838 189.044 473.706 189.771C472.419 189.446 471.083 189.536 469.833 190.035C470.825 191.762 471.714 193.574 472.493 195.457C471.522 199.104 470.097 202.474 467.712 204.912C466.119 206.503 464.216 207.568 462.187 208.003C460.158 208.438 458.072 208.228 456.129 207.394L456.197 207.021C453.633 200.956 455.026 193.308 458.213 187.706C459.839 184.943 461.765 182.461 463.939 180.329C466.092 178.142 468.419 176.18 470.725 174.244C471.243 173.81 471.855 173.574 472.484 173.566C473.112 173.559 473.729 173.779 474.254 174.2C474.779 174.622 475.189 175.224 475.432 175.931C475.674 176.637 475.739 177.416 475.617 178.168Z" fill="#E4E4E4"/>
<path d="M456.677 230.066C456.029 224.308 455.362 218.476 455.817 212.656C456.221 207.487 457.514 202.439 460.149 198.299C461.547 196.106 463.248 194.227 465.176 192.747C465.679 192.361 466.141 193.331 465.641 193.716C462.305 196.286 459.725 200.08 458.273 204.552C456.668 209.525 456.411 214.946 456.69 220.229C456.857 223.424 457.211 226.596 457.568 229.767C457.597 229.911 457.58 230.062 457.52 230.191C457.46 230.319 457.362 230.415 457.246 230.458C457.128 230.497 457.003 230.477 456.897 230.404C456.791 230.33 456.712 230.209 456.679 230.066L456.677 230.066Z" fill="#F2F2F2"/>
<path d="M493.372 324.802L0.62822 325C0.461893 324.999 0.302545 324.918 0.185104 324.775C0.0676627 324.631 0.00170898 324.437 0.00170898 324.234C0.00170898 324.031 0.0676627 323.837 0.185104 323.693C0.302545 323.55 0.461893 323.469 0.62822 323.468L493.372 323.271C493.538 323.271 493.697 323.352 493.815 323.496C493.932 323.639 493.998 323.834 493.998 324.036C493.998 324.239 493.932 324.434 493.815 324.577C493.697 324.721 493.538 324.802 493.372 324.802Z" fill="#CACACA"/>
<path d="M54.6699 120.205C53.4609 120.912 52.1075 119.848 51.0636 118.794L51.437 119.187C49.5922 121.375 48.7297 124.522 48.3082 127.621C47.8863 130.716 47.8393 133.881 47.3081 136.954C46.7765 140.024 45.6738 143.108 43.6141 144.989C40.8547 147.507 37.049 147.346 33.6627 146.573C33.6176 146.562 33.5756 146.554 33.5304 146.543C34.4416 143.336 34.812 139.938 34.6194 136.553C33.7117 139.946 32.1664 143.033 30.1068 145.568C27.8616 144.815 25.6702 143.842 23.5539 142.658C22.1846 141.89 20.7101 140.839 20.3301 139.061C19.9491 137.296 20.8339 135.444 22.0169 134.33C23.1999 133.215 24.6519 132.634 25.9996 131.84C27.3452 131.049 28.6767 129.923 29.2154 128.221C30.458 124.308 26.9182 119.818 28.2978 115.971C28.9781 114.08 30.6443 113.051 32.2105 112.258C34.6014 111.05 37.0565 110.041 39.5591 109.237C41.7561 108.53 44.05 107.981 46.288 108.444C48.526 108.907 50.7186 110.566 51.5241 113.157C52.8681 113.711 54.2949 114.335 55.1574 115.713C56.0196 117.089 55.9501 119.457 54.6699 120.205Z" fill="#2F2E41"/>
<path d="M65.4279 115.67C61.9691 112.342 59.1725 112.91 57.0151 114.978C56.6524 114.486 55.109 115.839 54.5864 115.645L52.6962 119.97C51.7236 122.062 51.3245 124.197 51.4818 125.399C49.6926 131.514 53.9353 135.644 58.9527 137.825C60.9548 138.701 63.1392 138.739 65.1612 137.934L65.2229 136.892L65.6028 137.746C65.6028 137.746 70.1897 149.258 71.2736 149.775C70.6159 147.695 68.8813 137.812 68.3971 135.752C67.7332 132.949 68.1867 128.496 68.5769 125.766C68.8201 124.083 68.8328 122.362 68.6146 120.674L68.6049 120.6L69.6781 123.24L72.086 121.395C71.1657 118.128 71.1473 114.22 65.4279 115.67Z" fill="#2F2E41"/>
</g>
<defs>
<clipPath id="clip0_796_873">
<rect width="494" height="325" fill="white"/>
</clipPath>
</defs>
</svg>
