<?xml version="1.0" standalone="no"?>
<!DOCTYPE svg PUBLIC "-//W3C//DTD SVG 20010904//EN"
 "http://www.w3.org/TR/2001/REC-SVG-20010904/DTD/svg10.dtd">
<svg version="1.0" xmlns="http://www.w3.org/2000/svg"
 width="755.000000pt" height="331.000000pt" viewBox="0 0 755.000000 331.000000"
 preserveAspectRatio="xMidYMid meet">

<g transform="translate(0.000000,331.000000) scale(0.100000,-0.100000)"
fill="#000000" stroke="none">
<path d="M2840 2990 c-64 -7 -140 -35 -140 -52 0 -5 -4 -7 -9 -4 -13 8 -70
-60 -95 -113 -21 -46 -21 -52 -21 -956 0 -1020 -5 -955 74 -1046 23 -27 61
-59 84 -72 l42 -22 1000 0 1000 0 40 21 c87 47 137 117 156 218 6 35 9 370 7
933 -3 723 -6 885 -18 916 -27 74 -129 167 -166 153 -8 -3 -13 -2 -10 3 3 5
-4 12 -17 17 -28 10 -1839 14 -1927 4z m1946 -116 c96 -45 89 35 91 -1022 l3
-923 -25 -27 c-14 -15 -25 -30 -25 -35 0 -4 -24 -19 -52 -32 l-53 -25 -945 0
c-629 0 -958 4 -983 11 -45 12 -100 58 -116 96 -8 21 -11 277 -9 950 l3 921
31 39 c54 67 55 67 404 74 173 3 610 3 970 1 l655 -3 51 -25z"/>
<path d="M3595 2653 c-44 -8 -82 -17 -85 -21 -3 -4 -16 -8 -30 -9 -14 -2 -75
-28 -136 -58 -89 -45 -128 -71 -190 -131 -44 -41 -72 -72 -64 -69 8 4 3 -3
-12 -16 -28 -26 -75 -95 -80 -119 -2 -8 -6 -17 -10 -20 -15 -11 -56 -141 -68
-212 -28 -163 19 -362 118 -503 46 -65 93 -115 103 -109 4 2 11 -1 15 -7 5 -8
2 -10 -7 -4 -8 4 5 -11 29 -33 88 -83 205 -147 335 -182 308 -84 632 -8 853
202 137 130 212 278 234 459 11 97 2 241 -17 260 -5 5 -24 1 -43 -10 -28 -15
-35 -24 -33 -47 6 -109 3 -227 -7 -269 -6 -27 -29 -88 -52 -134 -33 -69 -57
-101 -132 -176 -60 -60 -113 -102 -154 -124 -37 -19 -60 -37 -56 -43 4 -7 2
-8 -5 -4 -6 4 -39 -2 -74 -13 -96 -32 -163 -42 -282 -42 -77 1 -134 7 -189 21
-43 11 -83 17 -89 13 -6 -3 -7 -1 -3 5 4 7 1 12 -9 12 -8 0 -33 11 -54 24 -21
14 -41 22 -45 19 -3 -3 -16 4 -28 15 -13 12 -53 45 -90 75 -37 30 -64 57 -61
61 3 3 1 6 -5 6 -16 0 -99 130 -127 198 -36 89 -50 210 -36 307 7 44 13 89 14
100 1 11 4 22 7 25 3 3 23 41 45 85 30 60 60 100 120 160 124 125 248 192 411
220 246 43 490 -18 662 -167 39 -34 60 -35 96 -7 26 20 26 22 9 41 -28 31
-133 103 -198 135 -182 91 -386 121 -580 86z"/>
<path d="M4448 2262 c-29 -17 -33 -28 -19 -51 17 -26 96 24 85 54 -8 20 -32
19 -66 -3z"/>
<path d="M4022 2143 c-6 -2 -9 -10 -6 -15 4 -7 2 -8 -5 -4 -7 4 -26 -3 -44
-16 -18 -14 -51 -35 -74 -48 -23 -13 -39 -28 -36 -33 3 -6 1 -7 -5 -3 -7 4
-42 -12 -79 -36 -38 -24 -94 -59 -125 -78 -31 -18 -55 -37 -53 -40 3 -6 -11
-6 -46 -1 -3 1 -14 19 -24 41 -27 60 -39 66 -80 44 -19 -10 -35 -21 -35 -24 0
-3 16 -30 36 -60 19 -30 45 -72 56 -92 12 -21 26 -38 30 -38 18 0 69 31 64 39
-3 4 1 8 8 8 17 0 385 226 380 234 -1 3 3 6 10 6 24 0 86 44 86 62 0 18 -27
61 -38 60 -4 0 -13 -3 -20 -6z"/>
<path d="M4324 2084 c-32 -20 -75 -46 -94 -58 -83 -50 -160 -103 -155 -108 3
-2 -1 -5 -8 -5 -13 0 -56 -25 -325 -192 -48 -29 -104 -64 -125 -76 -20 -12
-34 -25 -30 -30 5 -4 3 -5 -3 -2 -6 3 -27 -5 -47 -18 -20 -14 -42 -25 -50 -25
-8 0 -61 74 -117 165 -56 91 -106 165 -110 165 -13 0 -60 -41 -60 -52 0 -13
25 -54 157 -255 52 -79 98 -143 103 -143 9 0 76 40 295 175 61 38 189 117 285
176 96 58 222 136 280 171 58 36 106 73 108 82 4 18 -23 66 -36 66 -5 0 -35
-16 -68 -36z"/>
<path d="M3017 524 c-11 -11 -8 -142 2 -149 16 -9 23 14 23 77 0 57 -10 86
-25 72z"/>
<path d="M3638 523 c-2 -5 -4 -39 -3 -77 0 -48 4 -71 13 -74 10 -3 13 14 11
77 -2 71 -10 99 -21 74z"/>
<path d="M3848 523 c-2 -5 -3 -39 -3 -77 0 -46 4 -71 13 -73 9 -4 12 16 12 76
0 45 -4 81 -9 81 -6 0 -11 -3 -13 -7z"/>
<path d="M4630 451 c0 -66 3 -81 15 -81 13 0 15 13 13 77 -2 50 -7 78 -15 81
-10 3 -13 -17 -13 -77z"/>
<path d="M2772 448 c2 -46 7 -73 16 -76 9 -3 12 16 12 72 0 62 -3 76 -15 76
-13 0 -15 -12 -13 -72z"/>
<path d="M2893 490 c2 -33 9 -37 27 -15 10 12 10 18 0 30 -19 23 -29 18 -27
-15z"/>
<path d="M3130 513 c0 -4 5 -15 10 -23 7 -11 12 -12 21 -3 8 8 6 14 -10 22
-12 7 -21 8 -21 4z"/>
<path d="M3440 500 c7 -12 10 -42 8 -66 -3 -47 2 -53 22 -29 7 8 9 15 6 15 -4
0 -3 8 2 18 13 22 -1 58 -28 72 -20 11 -21 10 -10 -10z"/>
<path d="M3965 501 c4 -13 -1 -26 -14 -38 l-21 -19 26 -37 c13 -20 29 -37 34
-37 20 0 18 19 -5 40 -31 29 -31 37 -3 59 24 20 19 51 -7 51 -12 0 -15 -6 -10
-19z"/>
<path d="M4170 506 c0 -7 7 -19 15 -26 8 -7 15 -20 15 -30 0 -10 7 -23 15 -30
8 -7 15 -18 15 -25 0 -7 7 -15 15 -19 20 -7 19 1 -8 54 -44 85 -67 111 -67 76z"/>
<path d="M3256 482 c-15 -29 -12 -66 7 -89 15 -20 29 -15 22 6 -3 10 -6 40 -7
65 0 25 -2 46 -4 46 -2 0 -10 -13 -18 -28z"/>
<path d="M4364 502 c-35 -23 -37 -94 -3 -113 22 -11 23 -10 9 27 -8 19 -8 37
0 57 11 33 10 39 -6 29z"/>
<path d="M3113 439 c2 -26 44 -72 58 -63 6 4 -1 18 -20 36 -17 17 -28 34 -25
39 3 5 1 9 -5 9 -5 0 -9 -9 -8 -21z"/>
<path d="M4700 452 c0 -14 67 -82 81 -82 15 0 10 16 -11 35 -11 10 -20 15 -20
11 0 -4 -11 6 -25 21 -13 15 -25 22 -25 15z"/>
</g>
</svg>
