<svg width="754" height="663" viewBox="0 0 754 663" fill="none" xmlns="http://www.w3.org/2000/svg">
<g clip-path="url(#clip0_449_310)">
<path d="M577.28 655.503C567.627 643.506 561.763 624.554 563.301 606.105C564.839 587.655 574.363 570.695 586.717 566.777C599.071 562.859 613.154 573.704 616.906 591.454C618.971 557.234 621.351 521.58 633.721 492.438C644.922 466.051 664.322 447.17 685.348 443.793C706.373 440.415 728.51 453.172 741.622 477.58C754.735 501.987 757.946 537.47 748.762 565.492C741.997 586.134 729.532 601.497 716.473 613.995C674.273 654.041 623.66 670.326 573.946 659.854L577.28 655.503Z" fill="#D4E5F2"/>
<path d="M720.831 453.88C703.482 474.662 687.567 497.906 673.315 523.275C651.01 562.841 632.961 607.202 619.796 654.812C618.833 658.286 622.667 659.798 623.62 656.363C645.16 578.986 679.547 510.787 723.635 458.004C725.615 455.633 722.794 451.528 720.831 453.88Z" fill="white"/>
<path d="M242.725 652.243C255.984 635.765 264.037 609.735 261.925 584.395C259.813 559.055 246.732 535.759 229.763 530.378C212.795 524.997 193.452 539.893 188.298 564.272C185.462 517.27 182.193 468.3 165.203 428.274C149.819 392.032 123.173 366.099 94.2944 361.459C65.4161 356.82 35.0109 374.342 17.0006 407.866C-1.00975 441.389 -5.4195 490.126 7.19447 528.613C16.4867 556.966 33.6064 578.066 51.5435 595.232C108.769 649.999 179.757 672.839 247.304 658.219" fill="#D4E5F2"/>
<path d="M45.5579 375.314C69.386 403.859 91.2458 435.784 110.821 470.628C130.4 505.437 147.636 542.956 162.289 582.659C170.479 604.931 177.837 627.843 184.329 651.295C185.652 656.065 180.385 658.142 179.077 653.424C167.578 612.08 153.352 572.492 136.602 535.229C119.934 498.101 100.856 463.439 79.6371 431.729C67.6355 413.802 54.9728 396.86 41.7064 380.978C38.9871 377.722 42.8611 372.084 45.5579 375.314Z" fill="white"/>
<path d="M541.233 661.549H224.9V184.188C224.9 82.6264 281.079 0 350.133 0H416C485.054 0 541.233 82.6264 541.233 184.188V661.549Z" fill="#E0F0E5"/>
<path d="M475.367 661.549H224.9V184.188C224.831 145.272 233.21 107.339 248.816 75.9131C249.392 74.7598 249.965 73.6214 250.557 72.4955C258.106 57.9339 267.089 45.1097 277.211 34.4462C277.783 33.8344 278.357 33.2331 278.939 32.6319C287.408 24.0119 296.57 16.9652 306.215 11.6523C306.788 11.333 307.371 11.0131 307.954 10.7062C316.677 6.12774 325.72 2.9915 334.915 1.35542C335.485 1.24089 336.07 1.15127 336.655 1.06165C345.616 -0.347453 354.653 -0.347453 363.613 1.06165C364.197 1.15127 364.782 1.24088 365.359 1.35664C374.551 2.99284 383.592 6.12869 392.312 10.7063C392.896 11.0131 393.479 11.333 394.053 11.6529C403.58 16.8989 412.633 23.8404 421.012 32.3226C421.594 32.9108 422.177 33.512 422.751 34.1132C428.424 40.0694 433.753 46.7049 438.684 53.952C442.637 59.765 446.321 65.9613 449.711 72.4993C450.301 73.6215 450.875 74.7599 451.449 75.9113C467.057 107.338 475.436 145.271 475.367 184.188V661.549Z" fill="#D4E5F2"/>
<path d="M455 448.043C462.658 448.043 468.867 438.912 468.867 427.649C468.867 416.385 462.658 407.254 455 407.254C447.342 407.254 441.133 416.385 441.133 427.649C441.133 438.912 447.342 448.043 455 448.043Z" fill="#277BC0"/>
<path d="M515.319 647.251H504.694L499.639 586.975L515.321 586.976L515.319 647.251Z" fill="#FFB8B8"/>
<path d="M497.104 642.785H517.595V661.761H484.202C484.202 659.269 484.536 656.802 485.184 654.499C485.833 652.197 486.783 650.105 487.981 648.343C489.179 646.581 490.601 645.183 492.167 644.23C493.732 643.276 495.41 642.785 497.104 642.785Z" fill="#2F2E41"/>
<path d="M568.186 647.251H557.561L552.505 586.975L568.188 586.976L568.186 647.251Z" fill="#FFB8B8"/>
<path d="M549.971 642.785H570.462V661.761H537.069C537.069 659.269 537.403 656.802 538.051 654.499C538.699 652.197 539.65 650.105 540.848 648.343C542.046 646.581 543.468 645.183 545.033 644.23C546.599 643.276 548.277 642.785 549.971 642.785Z" fill="#2F2E41"/>
<path d="M462.018 431.689C461.254 430.032 460.745 428.15 460.529 426.173C460.313 424.197 460.394 422.175 460.767 420.249C461.14 418.324 461.795 416.542 462.686 415.029C463.578 413.517 464.684 412.31 465.927 411.494L502.046 265.078L519.819 279.343L478.579 419.264C479.372 422.426 479.35 425.906 478.515 429.045C477.68 432.184 476.092 434.763 474.051 436.295C472.009 437.826 469.657 438.203 467.439 437.355C465.222 436.506 463.293 434.49 462.018 431.689Z" fill="#FFB8B8"/>
<path d="M562.758 459.201C561.577 458.205 560.559 456.841 559.776 455.204C558.992 453.567 558.463 451.697 558.223 449.727C557.984 447.756 558.042 445.732 558.392 443.797C558.743 441.863 559.377 440.065 560.251 438.53L549.062 283.647L569.288 285.006L573.938 437.354C575.594 439.684 576.611 442.827 576.797 446.186C576.982 449.545 576.324 452.888 574.946 455.581C573.568 458.274 571.566 460.13 569.32 460.797C567.073 461.464 564.739 460.896 562.758 459.201Z" fill="#FFB8B8"/>
<path d="M530.492 237.958C542.248 237.958 551.778 223.942 551.778 206.651C551.778 189.361 542.248 175.344 530.492 175.344C518.736 175.344 509.206 189.361 509.206 206.651C509.206 223.942 518.736 237.958 530.492 237.958Z" fill="#FFB8B8"/>
<path d="M562.622 423.976H498.448L498.526 423.241C498.641 422.144 509.963 313.061 501.612 277.374C500.775 273.867 500.848 270.028 501.819 266.597C502.79 263.165 504.59 260.382 506.873 258.785H506.873C518.808 250.519 541.719 240.34 561.057 265.043C563.902 268.738 566.124 273.356 567.547 278.532C568.97 283.708 569.555 289.299 569.255 294.865L562.622 423.976Z" fill="#277BC0"/>
<path d="M510.774 329.182L481.882 320.561L495.425 273.36C496.235 268.789 498.245 264.877 501.014 262.482C503.784 260.087 507.085 259.406 510.196 260.587C513.306 261.768 515.971 264.715 517.606 268.781C519.24 272.848 519.712 277.703 518.916 282.28L510.774 329.182Z" fill="#277BC0"/>
<path d="M547.777 345.188L546.04 286.629C544.723 275.62 549.008 265.214 555.597 263.513C562.189 261.818 568.625 269.453 569.948 280.542L576.476 335.261L547.777 345.188Z" fill="#277BC0"/>
<path d="M560.487 416.965C570.813 474.805 571.94 548.344 569.154 628.559L555.287 626.009L530.154 473.05L516.287 628.559L500.687 627.284C496.027 543.119 491.489 470.864 498.954 423.338L560.487 416.965Z" fill="#2F2E41"/>
<path d="M544.517 230.846C540.546 237.067 533.172 233.728 532.654 225.228C532.614 224.569 532.616 223.904 532.663 223.245C532.93 219.481 534.409 216.063 534.055 212.088C533.974 211.098 533.724 210.155 533.327 209.348C530.162 203.116 522.734 212.136 519.747 206.494C517.916 203.035 520.069 197.588 518.664 193.721C516.809 188.618 511.315 191.136 507.87 188.341C504.037 185.231 504.266 176.582 506.79 171.321C509.867 164.905 515.262 161.481 520.59 160.988C525.918 160.494 531.209 162.612 536.183 165.463C541.835 168.703 547.439 173.18 550.917 180.489C555.147 189.377 555.554 201.327 553.438 211.72C552.152 218.042 547.76 225.766 544.517 230.846Z" fill="#2F2E41"/>
<path d="M727.984 662.369H88.1293C87.8561 662.368 87.5944 662.207 87.4015 661.923C87.2087 661.638 87.1003 661.253 87.1003 660.851C87.1003 660.449 87.2087 660.064 87.4015 659.78C87.5944 659.495 87.8561 659.335 88.1293 659.333H727.984C728.257 659.335 728.519 659.495 728.712 659.78C728.905 660.064 729.013 660.449 729.013 660.851C729.013 661.253 728.905 661.638 728.712 661.923C728.519 662.207 728.257 662.368 727.984 662.369Z" fill="#3F3D56"/>
<path d="M406.467 523.248H293.8C292.316 523.26 290.89 522.405 289.834 520.872C288.778 519.339 288.178 517.253 288.167 515.071V145.203C288.178 143.021 288.778 140.934 289.834 139.401C290.89 137.868 292.316 137.014 293.8 137.026H406.467C407.951 137.014 409.377 137.868 410.433 139.401C411.489 140.934 412.089 143.021 412.1 145.203V515.071C412.089 517.253 411.489 519.339 410.433 520.872C409.377 522.405 407.951 523.26 406.467 523.248Z" fill="white"/>
<path d="M412.1 256.703H288.167V259.253H412.1V256.703Z" fill="#D4E5F2"/>
<path d="M412.533 402.155H288.6V404.705H412.533V402.155Z" fill="#D4E5F2"/>
<path d="M328.9 137.026H327.167V524.523H328.9V137.026Z" fill="#D4E5F2"/>
<path d="M372.233 137.026H370.5V524.523H372.233V137.026Z" fill="#D4E5F2"/>
</g>
<defs>
<clipPath id="clip0_449_310">
<rect width="754" height="663" fill="white"/>
</clipPath>
</defs>
</svg>
